<svg height="69.2" viewBox="0 0 300 69.2" width="300" xmlns="http://www.w3.org/2000/svg"><g fill="#fff"><path d="m25.9 37.7 6.4 8.1v14.3h11.9v-54.1h-11.9v23.6l-18.4-23.6h-13.7l17.4 22.2-17.6 31.9h13.6z"/><path d="m50.8 40.1h-6.5v20h-11.9v-54.1h22.1c13.3 0 18.5 5 18.5 17.1 0 8.9-2.8 13.9-9.6 15.9l11.7 21.1h-13.6zm-6.5-10.1h8.9c5.8 0 7.9-2 7.9-6.9s-2.1-6.9-7.9-6.9h-8.9z"/><path d="m83.4 0h4.1v69.2h-4.1z"/><path d="m109.6 21.4h-2.9v8.8h-5.2v-23.7h9.7c5.8 0 8.1 2.2 8.1 7.5s-1.2 6.1-4.2 7l5.1 9.2h-5.9zm-2.9-4.4h3.9c2.6 0 3.5-.9 3.5-3s-.9-3-3.5-3h-3.9z"/><path d="m140.1 25.7v4.5h-16.5v-23.7h16.2v4.5h-11v4.9h9.3v4.5h-9.3v5.3z"/><path d="m144 6.5h5.2v23.7h-5.2z"/><path d="m170 11.1h-6.4v19.1h-5.2v-19.1h-6.3v-4.6h17.9z"/><path d="m189.4 25.7v4.5h-16.6v-23.7h16.2v4.5h-11v4.9h9.3v4.5h-9.3v5.3z"/><path d="m211.8 6.5v23.7h-5l-8.6-16v16h-5v-23.7h5.6l8 14.9v-14.9z"/><path d="m217 6.5h9.5c5.6 0 8 1.9 8 6.2 0 2.6-.9 4.2-3.2 5 2.8.8 4 2.6 4 5.7 0 4.6-2.5 6.7-8.1 6.7h-10.2zm8.7 9.4c2.7 0 3.7-.6 3.7-2.5s-.9-2.5-3.4-2.5h-3.8v5zm.6 9.9c2.8 0 3.7-.7 3.7-2.7s-1-2.7-4.1-2.7h-3.7v5.4z"/><path d="m250.8 25.4h-7.5l-1.5 4.8h-5.3l8-23.7h5.4l7.9 23.7h-5.5zm-6.2-4.3h4.9l-2.5-8.7z"/><path d="m259.1 21v-5.3c0-6.6 3-9.6 9.2-9.6s9 2.8 9.1 8.9h-5c-.1-3.1-1.2-4.4-4-4.4s-4 1.4-4 5.2v5.1c0 3.8 1.1 5.2 4 5.2s3.9-1.3 4-4.4h5c-.1 6.1-3 8.9-9.1 8.9s-9.2-3-9.2-9.6z"/><path d="m300 6.5v23.7h-5.2v-9.8h-8.2v9.8h-5.2v-23.7h5.2v9.4h8.2v-9.4z"/><path d="m119.5 48.4v5c0 6.4-2.9 9.3-9.2 9.3h-8.8v-23.7h8.8c6.3 0 9.2 2.9 9.2 9.4zm-5.3.1c0-3.7-1.1-5-4.7-5h-2.8v14.7h2.8c3.6 0 4.7-1.2 4.7-4.9z"/><path d="m140.4 58.2v4.5h-16.6v-23.7h16.3v4.5h-11.1v4.9h9.3v4.5h-9.3v5.3z"/><path d="m142.9 55.6h5.1c0 2.3 1.2 3.3 3.8 3.3s3.4-.9 3.4-2.6-1.2-2.8-4.7-3.3c-5.3-.8-7.3-2.8-7.3-7.1s3-7.3 8.6-7.3 8.4 2.4 8.4 7.4h-5.1c0-2.1-1.1-3.2-3.4-3.2s-3.3 1-3.3 2.6 1.3 2.5 4.6 3c5.6.8 7.5 3 7.5 7.4s-2.9 7.3-8.8 7.3-8.8-2.3-8.8-7.5z"/><path d="m164.1 39h5.2v23.7h-5.2z"/><path d="m192.4 53.8c0 6.3-3 9.3-9.2 9.3s-9.5-3.1-9.5-9.4v-5.7c0-6.3 3.1-9.4 9.3-9.4s9 2.6 9.2 7.8h-5c-.2-2.2-1.4-3.3-4.1-3.3s-4.1 1.5-4.1 5.2v5.1c0 3.7 1.2 5.2 4.3 5.2s4.1-1.3 4.1-4.8h-3.9v-4.5h8.9z"/><path d="m215.2 39v23.7h-5l-8.6-15.9v15.9h-4.9v-23.7h5.5l8.1 15v-15z"/></g></svg>