<svg id="Layer_1" data-name="Layer 1" xmlns="http://www.w3.org/2000/svg" width="2160" height="800" viewBox="0 0 2160 800"><polygon points="2160 209.5 2160 800 1444.8 800 -0.1 613.4 -0.1 0.3 540.7 0.3 2160 209.5" fill="#035881"/><polygon points="2160 135 2160 209.5 540.7 0.3 1117.5 0.3 2160 135" fill="#f8b563"/><polygon points="2160 0.3 2160 60.5 1694.3 0.3 2160 0.3" fill="#e44043"/><polygon points="803.4 800 -0.1 800 -0.1 696.2 803.4 800" fill="#74acc8"/><polygon points="1444.8 800 803.4 800 -0.1 696.2 -0.1 613.4 1444.8 800" fill="#247ba6"/><polygon points="2160 60.5 2160 135 1117.5 0.3 1694.3 0.3 2160 60.5" fill="#f36f38"/><path d="M698.6,300.7l19.5,24.9v44h36.7V203.5H718.1V276l-56.4-72.5h-42l53.5,68.1-54.3,98h41.8Z" fill="#fff"/><path d="M775,308.3H755.2v61.3H718.5V203.5h68c40.8,0,56.9,15.3,56.9,52.5,0,27.1-8.8,42.7-29.6,48.8l35.9,64.8H808ZM755.2,277h27.4c17.8,0,24.1-6.1,24.1-21s-6.3-21.3-24.1-21.3H755.2Z" fill="#fff"/><path d="M875.4,184.9H888V397.6H875.4Z" fill="#fff"/><path d="M955.7,250.8H947v26.9H930.9V204.9h29.8c17.9,0,25,6.7,25,23,0,11.9-3.9,18.7-13,21.4l15.8,28.4H970.1ZM947,237.1h12c7.8,0,10.6-2.7,10.6-9.2s-2.8-9.3-10.6-9.3H947Z" fill="#fff"/><path d="M1049.7,263.9v13.8h-51V204.9h49.9v13.8h-33.8v15.1h28.5v13.7h-28.5v16.4Z" fill="#fff"/><path d="M1061.6,204.9h16v72.8h-16Z" fill="#fff"/><path d="M1141.4,218.9h-19.5v58.8h-16.1V218.9h-19.5v-14h55.1Z" fill="#fff"/><path d="M1201,263.9v13.8h-51V204.9h49.9v13.8h-33.8v15.1h28.5v13.7h-28.5v16.4Z" fill="#fff"/><path d="M1269.8,204.9v72.8h-15.3l-26.4-49.1v49.1h-15.2V204.9h17l24.7,45.9V204.9Z" fill="#fff"/><path d="M1285.9,204.9h29.2c17.2,0,24.7,5.9,24.7,18.9,0,8.1-2.9,13.1-10,15.6v.2c8.8,2.4,12.3,8.1,12.3,17.6,0,14.2-7.7,20.5-24.7,20.5h-31.5Zm26.8,29c8.4,0,11.2-1.9,11.2-7.8s-2.6-7.6-10.4-7.6H1302v15.4Zm1.9,30.2c8.6,0,11.5-2,11.5-8.1s-3.3-8.5-12.8-8.5H1302v16.6Z" fill="#fff"/><path d="M1389.8,263h-23l-4.6,14.7H1346l24.4-72.8H1387l24.4,72.8h-17Zm-19-13.4h15l-7.5-26.5Z" fill="#fff"/><path d="M1415.4,249.4V233.1c0-20.2,9.1-29.5,28.3-29.5s27.4,8.7,27.9,27.5h-15.4c-.3-9.6-3.7-13.7-12.3-13.7s-12.4,4.5-12.4,16.1v15.6c0,11.6,3.4,16.1,12.4,16.1s12-4.1,12.3-13.6h15.4c-.5,18.7-9.2,27.4-27.9,27.4S1415.4,269.7,1415.4,249.4Z" fill="#fff"/><path d="M1541.1,204.9v72.8H1525V247.6h-25.1v30.1h-16V204.9h16v28.8H1525V204.9Z" fill="#fff"/><path d="M986.1,333.5v15.4c0,19.9-8.6,28.7-28.2,28.7H930.8V304.8h27.1C977.5,304.8,986.1,313.8,986.1,333.5Zm-16,.3c0-11.3-3.7-15.3-14.5-15.3h-8.8v45.4h8.8c10.8,0,14.5-3.9,14.5-15.3Z" fill="#fff"/><path d="M1050.5,363.8v13.8h-51V304.8h49.9v13.8h-33.8v15.1h28.5v13.7h-28.5v16.4Z" fill="#fff"/><path d="M1058.1,355.7h15.6c0,7.1,4,10.2,11.8,10.2s10.6-2.6,10.6-7.9-3.8-8.5-14.7-10.2c-16.1-2.6-22.2-8.6-22.2-21.9,0-14.9,9.1-22.4,26.4-22.4s25.6,7.3,25.6,22.6h-15.6c0-6.3-3.3-9.5-10.3-9.5s-10.1,2.9-10.1,7.7,3.8,7.9,14,9.4c17.1,2.5,23,9,23,22.7s-8.9,22.5-27.1,22.5S1058.1,371.6,1058.1,355.7Z" fill="#fff"/><path d="M1123.4,304.8h16.1v72.8h-16.1Z" fill="#fff"/><path d="M1210.2,350.2c0,19.5-9,28.7-28.2,28.7s-29-9.5-29-29V332.6c0-19.5,9.5-29.1,28.4-29.1s27.6,8.2,28.2,23.9h-15.3c-.5-6.7-4.3-10-12.4-10s-12.9,4.4-12.9,16v15.7c0,11.4,3.8,16,13.3,16s12.6-4.2,12.6-14.9h-12V336.4h27.3Z" fill="#fff"/><path d="M1280.5,304.8v72.8h-15.3l-26.5-49v49h-15.2V304.8h17l24.8,46v-46Z" fill="#fff"/></svg>