<svg height="212.7" viewBox="0 0 922.1 212.7" width="922.1" xmlns="http://www.w3.org/2000/svg"><g fill="#fff"><path d="m79.6 115.8 19.6 24.9v44h36.6v-166.1h-36.6v72.5l-56.4-72.5h-42.1l53.5 68.1-54.2 98h41.8z"/><path d="m156 123.4h-19.8v61.3h-36.6v-166.1h67.9c40.8 0 57 15.3 57 52.5 0 27.1-8.8 42.7-29.6 48.9l35.9 64.7h-41.8zm-19.8-31.3h27.4c17.8 0 24.2-6.1 24.2-21s-6.4-21.3-24.2-21.3h-27.4z"/><path d="m256.4 0h12.7v212.7h-12.7z"/><path d="m336.7 65.9h-8.6v26.9h-16.1v-72.8h29.8c17.9 0 24.9 6.7 24.9 23 0 11.9-3.8 18.7-12.9 21.4l15.7 28.4h-18.3zm-8.6-13.7h12c7.8 0 10.6-2.7 10.6-9.2s-2.8-9.3-10.6-9.3h-12z"/><path d="m430.8 79v13.8h-51v-72.8h49.9v13.8h-33.8v15.1h28.4v13.7h-28.4v16.4z"/><path d="m442.6 20h16.1v72.8h-16.1z"/><path d="m522.4 34h-19.5v58.8h-16v-58.8h-19.5v-14h55z"/><path d="m582.1 79v13.8h-51v-72.8h49.9v13.8h-33.9v15.1h28.5v13.7h-28.5v16.4z"/><path d="m650.9 20v72.8h-15.3l-26.5-49v49h-15.2v-72.8h17.1l24.7 45.9v-45.9z"/><path d="m667 20h29.2c17.1 0 24.6 5.9 24.6 18.9 0 8.1-2.9 13.1-9.9 15.6v.2c8.7 2.4 12.3 8.1 12.3 17.6 0 14.2-7.7 20.5-24.8 20.5h-31.4zm26.7 29c8.5 0 11.3-1.9 11.3-7.8s-2.6-7.6-10.4-7.6h-11.6v15.4zm2 30.2c8.5 0 11.4-2 11.4-8.1s-3.2-8.5-12.7-8.5h-11.4v16.6z"/><path d="m770.8 78.1h-22.9l-4.6 14.7h-16.3l24.4-72.8h16.6l24.5 72.8h-17.1zm-18.9-13.4h15l-7.5-26.5z"/><path d="m796.5 64.5v-16.2c0-20.3 9-29.6 28.3-29.6s27.4 8.7 27.8 27.5h-15.3c-.3-9.6-3.7-13.7-12.3-13.7s-12.4 4.5-12.4 16.1v15.6c0 11.6 3.4 16.1 12.4 16.1s12-4.1 12.3-13.6h15.3c-.4 18.7-9.2 27.4-27.8 27.4s-28.3-9.3-28.3-29.6z"/><path d="m922.1 20v72.8h-16v-30.1h-25.1v30.1h-16.1v-72.8h16.1v28.8h25.1v-28.8z"/><path d="m367.2 148.6v15.4c0 19.9-8.7 28.7-28.3 28.7h-27.1v-72.8h27.1c19.6 0 28.3 9 28.3 28.7zm-16.1.3c0-11.3-3.6-15.3-14.4-15.3h-8.8v45.4h8.8c10.8 0 14.4-3.9 14.4-15.3z"/><path d="m431.6 178.9v13.8h-51v-72.8h49.9v13.8h-33.9v15.1h28.5v13.7h-28.5v16.4z"/><path d="m439.1 170.8h15.7c0 7.1 3.9 10.2 11.8 10.2s10.6-2.6 10.6-7.8-3.9-8.6-14.7-10.3c-16.2-2.6-22.3-8.6-22.3-21.9 0-14.9 9.1-22.4 26.5-22.4s25.6 7.3 25.6 22.6h-15.7c0-6.3-3.3-9.5-10.2-9.5s-10.1 2.9-10.1 7.7 3.7 7.9 14 9.4c17 2.5 22.9 9 22.9 22.7s-8.9 22.5-27.1 22.5-27-7.2-27-23.2z"/><path d="m504.5 119.9h16v72.8h-16z"/><path d="m591.3 165.3c0 19.5-9.1 28.7-28.3 28.7s-29-9.5-29-29v-17.3c0-19.5 9.6-29.1 28.5-29.1s27.5 8.2 28.2 23.9h-15.3c-.6-6.7-4.3-10-12.5-10s-12.8 4.5-12.8 16v15.7c0 11.4 3.7 16 13.3 16s12.6-4.2 12.6-14.9h-12v-13.8h27.3z"/><path d="m661.5 119.9v72.8h-15.3l-26.4-49v49h-15.2v-72.8h17l24.7 46v-46z"/></g></svg>