<svg height="800" viewBox="0 0 2160 800" width="2160" xmlns="http://www.w3.org/2000/svg"><path d="m2160 209.5v590.5h-715.2l-1444.9-186.6v-613.1h540.8z" fill="#035881"/><path d="m2160 135v74.5l-1619.3-209.2h576.8z" fill="#f8b563"/><path d="m2160 .3v60.2l-465.7-60.2z" fill="#e44043"/><path d="m803.4 800h-803.5v-103.8z" fill="#74acc8"/><path d="m1444.8 800h-641.4l-803.5-103.8v-82.8z" fill="#247ba6"/><path d="m2160 60.5v74.5l-1042.5-134.7h576.8z" fill="#f36f38"/><g fill="#fff"><path d="m698.6 300.7 19.5 24.9v44h36.7v-166.1h-36.7v72.5l-56.4-72.5h-42l53.5 68.1-54.3 98h41.8z"/><path d="m775 308.3h-19.8v61.3h-36.7v-166.1h68c40.8 0 56.9 15.3 56.9 52.5 0 27.1-8.8 42.7-29.6 48.8l35.9 64.8h-41.7zm-19.8-31.3h27.4c17.8 0 24.1-6.1 24.1-21s-6.3-21.3-24.1-21.3h-27.4z"/><path d="m875.4 184.9h12.6v212.7h-12.6z"/><path d="m955.7 250.8h-8.7v26.9h-16.1v-72.8h29.8c17.9 0 25 6.7 25 23 0 11.9-3.9 18.7-13 21.4l15.8 28.4h-18.4zm-8.7-13.7h12c7.8 0 10.6-2.7 10.6-9.2s-2.8-9.3-10.6-9.3h-12z"/><path d="m1049.7 263.9v13.8h-51v-72.8h49.9v13.8h-33.8v15.1h28.5v13.7h-28.5v16.4z"/><path d="m1061.6 204.9h16v72.8h-16z"/><path d="m1141.4 218.9h-19.5v58.8h-16.1v-58.8h-19.5v-14h55.1z"/><path d="m1201 263.9v13.8h-51v-72.8h49.9v13.8h-33.8v15.1h28.5v13.7h-28.5v16.4z"/><path d="m1269.8 204.9v72.8h-15.3l-26.4-49.1v49.1h-15.2v-72.8h17l24.7 45.9v-45.9z"/><path d="m1285.9 204.9h29.2c17.2 0 24.7 5.9 24.7 18.9 0 8.1-2.9 13.1-10 15.6v.2c8.8 2.4 12.3 8.1 12.3 17.6 0 14.2-7.7 20.5-24.7 20.5h-31.5zm26.8 29c8.4 0 11.2-1.9 11.2-7.8s-2.6-7.6-10.4-7.6h-11.5v15.4zm1.9 30.2c8.6 0 11.5-2 11.5-8.1s-3.3-8.5-12.8-8.5h-11.3v16.6z"/><path d="m1389.8 263h-23l-4.6 14.7h-16.2l24.4-72.8h16.6l24.4 72.8h-17zm-19-13.4h15l-7.5-26.5z"/><path d="m1415.4 249.4v-16.3c0-20.2 9.1-29.5 28.3-29.5s27.4 8.7 27.9 27.5h-15.4c-.3-9.6-3.7-13.7-12.3-13.7s-12.4 4.5-12.4 16.1v15.6c0 11.6 3.4 16.1 12.4 16.1s12-4.1 12.3-13.6h15.4c-.5 18.7-9.2 27.4-27.9 27.4s-28.3-9.3-28.3-29.6z"/><path d="m1541.1 204.9v72.8h-16.1v-30.1h-25.1v30.1h-16v-72.8h16v28.8h25.1v-28.8z"/><path d="m986.1 333.5v15.4c0 19.9-8.6 28.7-28.2 28.7h-27.1v-72.8h27.1c19.6 0 28.2 9 28.2 28.7zm-16 .3c0-11.3-3.7-15.3-14.5-15.3h-8.8v45.4h8.8c10.8 0 14.5-3.9 14.5-15.3z"/><path d="m1050.5 363.8v13.8h-51v-72.8h49.9v13.8h-33.8v15.1h28.5v13.7h-28.5v16.4z"/><path d="m1058.1 355.7h15.6c0 7.1 4 10.2 11.8 10.2s10.6-2.6 10.6-7.9-3.8-8.5-14.7-10.2c-16.1-2.6-22.2-8.6-22.2-21.9 0-14.9 9.1-22.4 26.4-22.4s25.6 7.3 25.6 22.6h-15.6c0-6.3-3.3-9.5-10.3-9.5s-10.1 2.9-10.1 7.7 3.8 7.9 14 9.4c17.1 2.5 23 9 23 22.7s-8.9 22.5-27.1 22.5-27-7.3-27-23.2z"/><path d="m1123.4 304.8h16.1v72.8h-16.1z"/><path d="m1210.2 350.2c0 19.5-9 28.7-28.2 28.7s-29-9.5-29-29v-17.3c0-19.5 9.5-29.1 28.4-29.1s27.6 8.2 28.2 23.9h-15.3c-.5-6.7-4.3-10-12.4-10s-12.9 4.4-12.9 16v15.7c0 11.4 3.8 16 13.3 16s12.6-4.2 12.6-14.9h-12v-13.8h27.3z"/><path d="m1280.5 304.8v72.8h-15.3l-26.5-49v49h-15.2v-72.8h17l24.8 46v-46z"/></g></svg>