<svg enable-background="new 0 0 200 200" viewBox="0 0 200 200" xmlns="http://www.w3.org/2000/svg" xmlns:xlink="http://www.w3.org/1999/xlink"><defs><path id="a" d="m0 0h200v200h-200z"/><clipPath id="b"><use xlink:href="#a"/></clipPath><linearGradient id="c" gradientUnits="userSpaceOnUse" x1="57.3684" x2="102.2274" y1="87.7078" y2="180.4172"><stop offset=".1084" stop-color="#e0f2f7"/><stop offset=".6695" stop-color="#f1f2f2"/></linearGradient></defs><use fill="#e4f4f8" xlink:href="#a"/><g clip-path="url(#b)"><path d="m18.7 42.2h103v98.9h-103z" fill="#afe0ea"/><g stroke-miterlimit="10"><path d="m18.7 109.5c8.3-6 17.3-9.4 27.6-8 4.5.7 8.9-.3 13.1-3.3 2.4-2.5 4.9-4.5 7.2-5.2 2.7-1.2 5-2.5 6.3-4.4 6.1-7.6 14.7-10.7 25.6-9.9 8.7.6 16.5 3.5 23.3 8.6v53.7h-103v-31.5z" fill="url(#c)" stroke="#8aabb7" stroke-width=".8212"/><circle cx="50.3" cy="68.3" fill="#ffcb05" r="5.5" stroke="#f7941d" stroke-width=".8212"/><path d="m113.7 85.1c-1-1.1-2.1-2.8-3.3-4.9.8.2 1.5.2 2.3 0-1.3-1.4-2.3-2.9-3.2-4.7.3.1.8.2 1.3 0-1-1.1-1.9-2.4-2.7-3.9-.6 1.2-1.5 2.5-2.7 3.9.4.1.9.1 1.3 0-.7 1.6-1.8 3.2-3.2 4.7.7.2 1.5.2 2.3 0-.5 1.7-1.7 3.3-3.3 4.9 1.1.3 1.9.4 2.7-.1.4 0 .7.2 1.1.6.6-.3 1.2-.5 1.8-.5s1.2.2 1.6.5c.4-.4 1-.7 1.6-.7 1 .4 1.6.6 2.4.2z" fill="#00683f" stroke="#004627" stroke-width=".6159"/><path d="m118.2 88.6c-1-1.1-2.1-2.8-3.3-4.9.8.2 1.5.2 2.3 0-1.3-1.4-2.3-2.9-3.2-4.7.3.1.8.2 1.3 0-1-1.1-1.9-2.4-2.7-3.9-.6 1.2-1.5 2.5-2.7 3.9.4.1.9.1 1.3 0-.7 1.6-1.8 3.2-3.2 4.7.7.2 1.5.2 2.3 0-.5 1.7-1.7 3.3-3.3 4.9 1.1.3 1.9.4 2.7-.1.4 0 .7.2 1.1.6.6-.3 1.2-.5 1.8-.5s1.2.2 1.6.5c.4-.4 1-.7 1.6-.7.9.4 1.5.6 2.4.2z" fill="#00683f" stroke="#004627" stroke-width=".6159"/><path d="m118.7 132.6c-2-2.1-4.1-5.2-6.3-9.3 1.5.3 2.9.3 4.3 0-2.4-2.6-4.4-5.6-6-8.9.7.2 1.5.3 2.5 0-2-2.1-3.6-4.6-5-7.4-1.1 2.3-2.8 4.8-5 7.4.8.2 1.6.3 2.5 0-1.3 3.1-3.4 6.1-6 8.9 1.3.4 2.8.4 4.3 0-1 3.2-3.2 6.3-6.3 9.3 2.1.6 3.6.7 5.1-.2.7.1 1.4.4 2.1 1.2 1.1-.6 2.3-1 3.4-1 1.2 0 2.2.3 3 1 .8-.8 1.8-1.3 3.1-1.4 1.6.8 2.7 1.2 4.3.4z" fill="#00683f" stroke="#004627" stroke-width=".6159"/><path d="m46.4 106.8c-1.3-1.4-2.7-3.4-4.1-6.1 1 .2 1.9.2 2.8 0-1.6-1.7-2.9-3.7-4-5.8.4.1 1 .2 1.7 0-1.3-1.4-2.4-3-3.3-4.9-.7 1.5-1.8 3.2-3.3 4.9.5.1 1.1.2 1.7 0-.8 2-2.2 4-4 5.8.9.3 1.8.2 2.8 0-.6 2.1-2.1 4.1-4.1 6.1 1.4.4 2.4.5 3.4-.1.5.1.9.3 1.3.8.7-.4 1.5-.6 2.2-.7.8 0 1.5.2 2 .7.5-.5 1.2-.8 2-.9 1.1.5 1.8.7 2.9.2z" fill="#00683f" stroke="#004627" stroke-width=".6159"/><path d="m97.4 85.7c-5.5 3.7-9.8 7.1-5.5 8.2 4.9 1.1 2.7 6.4-4.7 9.2" fill="none" stroke="#adc4cc" stroke-width=".8212"/><path d="m98.9 86.8c-4.4 2.6-7.7 5.1-4.9 5.8 7.1 2.1 0 11.5-4.9 12.4" fill="none" stroke="#adc4cc" stroke-width=".8212"/><path d="m78.6 99.8 2.9 2.5-2 3.6 3.9.5" fill="none" stroke="#231f20" stroke-width=".8212"/><path d="m78 109.5 9-5.5" fill="none" stroke="#231f20" stroke-width=".8212"/><path d="m79.4 111 8.1-5.5" fill="none" stroke="#231f20" stroke-width=".8212"/><path d="m79.5 105.9 4.5 2" fill="none" stroke="#231f20" stroke-width=".8212"/><path d="m80 101-1.6 2.7" fill="none" stroke="#231f20" stroke-width=".8212"/><circle cx="78" cy="98.8" fill="#231f20" r="1.5" stroke="#231f20" stroke-width=".8212"/><path d="m16 34.7v167.7h108.3v-167.7zm101 103.8h-93.6v-93.5h93.6z" fill="#786150" stroke="#47382c" stroke-width="1.6425"/><path d="m23.7 166.4v35.9h33.5v-35.9c0-1.5-1.2-2.7-2.7-2.7h-28.1c-1.5-.1-2.7 1.2-2.7 2.7z" fill="none" stroke="#47382c" stroke-width="1.6425"/><path d="m83.7 166.4v35.9h33.5v-35.9c0-1.5-1.2-2.7-2.7-2.7h-28.1c-1.4-.1-2.7 1.2-2.7 2.7z" fill="none" stroke="#47382c" stroke-width="1.6425"/><path d="m7.5 28.7v173.7h8.5v-167.7h108.3v167.7h8.5v-173.7c0-.9-.7-1.6-1.6-1.6h-122.1c-.8 0-1.6.7-1.6 1.6z" fill="#645042" stroke="#47382c" stroke-width="1.6425"/><circle cx="27.5" cy="150.6" fill="#ffcb05" r="3.5" stroke="#f7941d" stroke-width=".8212"/><path d="m70.2 45v93.5" fill="none" stroke="#47382c" stroke-width=".8212"/><path d="m24 91.7h93" fill="none" stroke="#47382c" stroke-width=".8212"/></g><path d="m131.4 150.7c3.1-3.1 1-7.7.2-11.3-1.1-5-1.3-10.2-.8-15.3 0-.4-.7-.4-.7 0-.5 4.4-.3 8.8.4 13.2.4 2.2 1 4.3 1.5 6.5s.7 4.7-1.1 6.5c-.4.2.1.7.5.4z" fill="#47382c"/><path d="m13.8 124.8c.4-2.2-.3-4.2-1.7-5.8-1.6-1.8-3.2-3.8-2.6-6.3.1-.4-.5-.6-.7-.2-.5 2.1.3 4.1 1.6 5.7.7.9 1.7 1.7 2.2 2.8.6 1.1.7 2.4.5 3.6 0 .4.7.6.7.2z" fill="#47382c"/><ellipse cx="12.1" cy="114.6" fill="none" rx="1.5" ry="2.2" stroke="#47382c" stroke-miterlimit="10" stroke-width=".4532" transform="matrix(.9897 -.143 .143 .9897 -16.2667 2.9022)"/><path d="m128.7 142.5c-1.8 5.1.5 10.5-1 15.6-.2.6.8.9 1 .3 1.6-5.1-.7-10.5 1-15.6.2-.6-.8-.9-1-.3z" fill="#47382c"/><path d="m7.5 27.1 8.5 7.6" fill="none" stroke="#47382c" stroke-miterlimit="10" stroke-width="1.6425"/><path d="m132.8 27.1-8.4 7.6" fill="none" stroke="#47382c" stroke-miterlimit="10" stroke-width="1.6425"/><path d="m151.6 42.2c11-1.7 21.2 5.8 23 16.7 7 60.1 16.4 119.8 28.2 179.2 1.7 11-5.8 21.2-16.7 23-11 1.7-21.2-5.8-23-16.7-6.7-60.1-16.1-119.9-28.2-179.2-1.7-11 5.8-21.2 16.7-23z" fill="#00657f" stroke="#004659" stroke-miterlimit="10" stroke-width="2.0172"/><path d="m160.6 111.1-7.5 8.3s-.1-.1-.1-.1c-6.6-6.1-8.6-14.9-4.5-19.4s13-3.2 19.7 2.9z" fill="none" stroke="#004659" stroke-miterlimit="10" stroke-width="2.134"/><path d="m174.9 186.4.3 11.2c-.1 0-.1 0-.2 0-9 .1-16.5-4.8-16.6-11-.1-6.1 7.2-11.3 16.3-11.4z" fill="none" stroke="#004659" stroke-miterlimit="10" stroke-width="2.134"/></g></svg>