<svg id="Layer_1" data-name="Layer 1" xmlns="http://www.w3.org/2000/svg" width="2160" height="300" viewBox="0 0 2160 300"><polygon points="2160 78.5 2160 300 1444.8 300 -0.1 230 -0.1 0 540.7 0 2160 78.5" fill="#035881"/><polygon points="2160 67.4 2160 104.7 0 0 769.5 0 2160 67.4" fill="#f8b563"/><polygon points="2160 0 2160 30.1 1538.8 0 2160 0" fill="#e44043"/><polygon points="803.3 300 -0.1 300 -0.1 261.1 803.3 300" fill="#74acc8"/><polygon points="1444.5 300 803.3 300 -0.1 261.1 -0.1 230 1444.5 300" fill="#247ba6"/><polygon points="2160 30.1 2160 67.4 769.5 0 1538.8 0 2160 30.1" fill="#f36f38"/></svg>