<svg height="200" viewBox="0 0 200 200" width="200" xmlns="http://www.w3.org/2000/svg"><path d="m81.2 51.1 10.3 13.1v23.1h19.2v-87.3h-19.2v38.1l-29.7-38.1h-22l28.1 35.8-28.5 51.5h21.9z"/><path d="m121.3 55.1h-10.4v32.2h-19.2v-87.3h35.7c21.4 0 29.9 8.1 29.9 27.6 0 14.2-4.6 22.5-15.5 25.7l18.8 34h-21.9zm-10.4-16.5h14.4c9.4 0 12.7-3.2 12.7-11s-3.3-11.2-12.7-11.2h-14.4z"/><path d="m0 107.1v-7h200v7z"/><path d="m8.1 135h-2.8v8.8h-5.3v-23.9h9.8c5.8 0 8.1 2.2 8.1 7.6 0 3.8-1.2 6.1-4.2 7l5.2 9.3h-6.1zm-2.8-4.5h3.9c2.6 0 3.5-.9 3.5-3s-.9-3.1-3.5-3.1h-3.9z"/><path d="m38.9 139.2v4.6h-16.7v-23.9h16.4v4.5h-11.1v5h9.3v4.5h-9.3v5.3z"/><path d="m42.8 119.9h5.3v23.9h-5.3z"/><path d="m69 124.5h-6.4v19.3h-5.3v-19.3h-6.4v-4.6h18.1z"/><path d="m88.5 139.2v4.6h-16.7v-23.9h16.4v4.5h-11.1v5h9.3v4.5h-9.3v5.3z"/><path d="m111.1 119.9v23.9h-5l-8.7-16.1v16.1h-5v-23.9h5.6l8.1 15.1v-15.1z"/><path d="m116.4 119.9h9.5c5.7 0 8.1 1.9 8.1 6.2 0 2.6-.9 4.3-3.3 5.1 2.9.8 4.1 2.6 4.1 5.8s-2.5 6.7-8.1 6.7h-10.3zm8.7 9.5c2.8 0 3.7-.6 3.7-2.5s-.8-2.5-3.4-2.5h-3.8v5zm.7 9.9c2.8 0 3.7-.7 3.7-2.7s-1-2.7-4.2-2.7h-3.7v5.4z"/><path d="m150.4 139h-7.5l-1.5 4.8h-5.4l8-23.9h5.5l8 23.9h-5.6zm-6.2-4.4h4.9l-2.5-8.7z"/><path d="m158.8 134.5v-5.3c0-6.7 3-9.7 9.3-9.7s9 2.8 9.1 9h-5c-.1-3.2-1.2-4.5-4-4.5s-4.1 1.5-4.1 5.3v5.1c0 3.8 1.1 5.3 4.1 5.3s3.9-1.4 4-4.5h5c-.1 6.2-3 9-9.1 9s-9.3-3.1-9.3-9.7z"/><path d="m200 119.9v23.9h-5.3v-9.9h-8.2v9.9h-5.2v-23.9h5.2v9.4h8.2v-9.4z"/><path d="m31.7 174v8.9c0 11.3-5 16.4-16.2 16.4h-15.5v-41.7h15.5c11.2 0 16.2 5.2 16.2 16.4zm-9.2.2c0-6.5-2.1-8.7-8.3-8.7h-5v25.9h5c6.2 0 8.3-2.2 8.3-8.7z"/><path d="m68.5 191.4v7.9h-29.2v-41.7h28.6v7.9h-19.4v8.7h16.3v7.8h-16.3v9.4z"/><path d="m72.8 186.7h8.9c0 4.1 2.3 5.8 6.8 5.8s6-1.4 6-4.4-2.2-4.9-8.3-5.9c-9.3-1.5-12.8-4.9-12.8-12.5s5.2-12.8 15.1-12.8 14.7 4.1 14.7 12.9h-9c0-3.6-1.9-5.4-5.8-5.4s-5.8 1.6-5.8 4.4 2.2 4.5 8 5.4c9.8 1.4 13.1 5.1 13.1 12.9s-5 12.9-15.5 12.9-15.4-4.2-15.4-13.3z"/><path d="m110.2 157.6h9.1v41.7h-9.1z"/><path d="m159.8 183.6c0 11.1-5.2 16.4-16.1 16.4s-16.6-5.5-16.6-16.6v-9.9c0-11.2 5.4-16.6 16.3-16.6s15.7 4.6 16.1 13.6h-8.8c-.3-3.8-2.4-5.7-7.1-5.7s-7.3 2.6-7.3 9.2v8.9c0 6.6 2.1 9.2 7.5 9.2s7.3-2.4 7.3-8.5h-6.9v-7.9h15.6z"/><path d="m200 157.6v41.7h-8.8l-15.1-28.1v28.1h-8.7v-41.7h9.8l14.1 26.3v-26.3z"/></svg>