<svg id="Layer_1" data-name="Layer 1" xmlns="http://www.w3.org/2000/svg" width="200" height="200" viewBox="0 0 200 200"><path d="M81.2,51.1,91.5,64.2V87.3h19.2V0H91.5V38.1L61.8,0h-22L67.9,35.8,39.4,87.3H61.3Z"/><path d="M121.3,55.1H110.9V87.3H91.7V0h35.7c21.4,0,29.9,8.1,29.9,27.6,0,14.2-4.6,22.5-15.5,25.7l18.8,34H138.7ZM110.9,38.6h14.4c9.4,0,12.7-3.2,12.7-11s-3.3-11.2-12.7-11.2H110.9Z"/><path d="M0,107.1v-7H200v7Z"/><path d="M8.1,135H5.3v8.8H0V119.9H9.8c5.8,0,8.1,2.2,8.1,7.6,0,3.8-1.2,6.1-4.2,7l5.2,9.3H12.8Zm-2.8-4.5H9.2c2.6,0,3.5-.9,3.5-3s-.9-3.1-3.5-3.1H5.3Z"/><path d="M38.9,139.2v4.6H22.2V119.9H38.6v4.5H27.5v5h9.3v4.5H27.5v5.3Z"/><path d="M42.8,119.9h5.3v23.9H42.8Z"/><path d="M69,124.5H62.6v19.3H57.3V124.5H50.9v-4.6H69Z"/><path d="M88.5,139.2v4.6H71.8V119.9H88.2v4.5H77.1v5h9.3v4.5H77.1v5.3Z"/><path d="M111.1,119.9v23.9h-5l-8.7-16.1v16.1h-5V119.9H98l8.1,15.1V119.9Z"/><path d="M116.4,119.9h9.5c5.7,0,8.1,1.9,8.1,6.2,0,2.6-.9,4.3-3.3,5.1h0c2.9.8,4.1,2.6,4.1,5.8s-2.5,6.7-8.1,6.7H116.4Zm8.7,9.5c2.8,0,3.7-.6,3.7-2.5s-.8-2.5-3.4-2.5h-3.8v5Zm.7,9.9c2.8,0,3.7-.7,3.7-2.7s-1-2.7-4.2-2.7h-3.7v5.4Z"/><path d="M150.4,139h-7.5l-1.5,4.8H136l8-23.9h5.5l8,23.9h-5.6Zm-6.2-4.4h4.9l-2.5-8.7Z"/><path d="M158.8,134.5v-5.3c0-6.7,3-9.7,9.3-9.7s9,2.8,9.1,9h-5c-.1-3.2-1.2-4.5-4-4.5s-4.1,1.5-4.1,5.3v5.1c0,3.8,1.1,5.3,4.1,5.3s3.9-1.4,4-4.5h5c-.1,6.2-3,9-9.1,9S158.8,141.1,158.8,134.5Z"/><path d="M200,119.9v23.9h-5.3v-9.9h-8.2v9.9h-5.2V119.9h5.2v9.4h8.2v-9.4Z"/><path d="M31.7,174v8.9c0,11.3-5,16.4-16.2,16.4H0V157.6H15.5C26.7,157.6,31.7,162.8,31.7,174Zm-9.2.2c0-6.5-2.1-8.7-8.3-8.7h-5v25.9h5c6.2,0,8.3-2.2,8.3-8.7Z"/><path d="M68.5,191.4v7.9H39.3V157.6H67.9v7.9H48.5v8.7H64.8V182H48.5v9.4Z"/><path d="M72.8,186.7h8.9c0,4.1,2.3,5.8,6.8,5.8s6-1.4,6-4.4-2.2-4.9-8.3-5.9c-9.3-1.5-12.8-4.9-12.8-12.5s5.2-12.8,15.1-12.8,14.7,4.1,14.7,12.9h-9c0-3.6-1.9-5.4-5.8-5.4s-5.8,1.6-5.8,4.4,2.2,4.5,8,5.4c9.8,1.4,13.1,5.1,13.1,12.9S98.7,200,88.2,200,72.8,195.8,72.8,186.7Z"/><path d="M110.2,157.6h9.1v41.7h-9.1Z"/><path d="M159.8,183.6c0,11.1-5.2,16.4-16.1,16.4s-16.6-5.5-16.6-16.6v-9.9c0-11.2,5.4-16.6,16.3-16.6s15.7,4.6,16.1,13.6h-8.8c-.3-3.8-2.4-5.7-7.1-5.7s-7.3,2.6-7.3,9.2v8.9c0,6.6,2.1,9.2,7.5,9.2s7.3-2.4,7.3-8.5h-6.9v-7.9h15.6Z"/><path d="M200,157.6v41.7h-8.8l-15.1-28.1v28.1h-8.7V157.6h9.8l14.1,26.3V157.6Z"/></svg>