<svg enable-background="new 0 0 200 200" viewBox="0 0 200 200" xmlns="http://www.w3.org/2000/svg" xmlns:xlink="http://www.w3.org/1999/xlink"><linearGradient id="a"><stop offset=".2738" stop-color="#c7aa81"/><stop offset=".629" stop-color="#c5a87f"/><stop offset=".8036" stop-color="#bda17a"/><stop offset=".9384" stop-color="#b09570"/><stop offset="1" stop-color="#a78d6a"/></linearGradient><radialGradient id="b" cx="953.0163" cy="63.933" gradientTransform="matrix(-1 0 0 1 1026.9392 0)" gradientUnits="userSpaceOnUse" r="19.5711" xlink:href="#a"/><radialGradient id="c" cx="942.8182" cy="76.7584" gradientTransform="matrix(-1 0 0 1 1026.9392 0)" gradientUnits="userSpaceOnUse" r="18.2419" xlink:href="#a"/><radialGradient id="d" cx="-284.4688" cy="1111.4794" gradientTransform="matrix(-.7233 -.6905 -.6905 .7233 632.1335 -898.879)" gradientUnits="userSpaceOnUse" r="19.8371" xlink:href="#a"/><radialGradient id="e" cx="978.9232" cy="82.4276" gradientTransform="matrix(-1 0 0 1 1026.9392 0)" gradientUnits="userSpaceOnUse" r="21.3339" xlink:href="#a"/><radialGradient id="f" cx="981.0101" cy="123.9623" gradientTransform="matrix(-1 0 0 1 1026.9392 0)" gradientUnits="userSpaceOnUse" r="21.0863" xlink:href="#a"/><radialGradient id="g" cx="969.1442" cy="45.2179" gradientTransform="matrix(-1 0 0 1 1026.9392 0)" gradientUnits="userSpaceOnUse" r="22.4934" xlink:href="#a"/><radialGradient id="h" cx="940.062" cy="39.0993" gradientTransform="matrix(-1 0 0 1 1026.9392 0)" gradientUnits="userSpaceOnUse" r="16.9332" xlink:href="#a"/><radialGradient id="i" cx="922.3163" cy="61.2208" gradientTransform="matrix(-1 0 0 1 1026.9392 0)" gradientUnits="userSpaceOnUse" r="14.7928" xlink:href="#a"/><radialGradient id="j" cx="922.3038" cy="95.7979" gradientTransform="matrix(-1 0 0 1 1026.9392 0)" gradientUnits="userSpaceOnUse" r="14.1344" xlink:href="#a"/><radialGradient id="k" cx="937.0733" cy="113.705" gradientTransform="matrix(-1 0 0 1 1026.9392 0)" gradientUnits="userSpaceOnUse" r="16.6945" xlink:href="#a"/><radialGradient id="l" cx="923.2133" cy="136.5136" gradientTransform="matrix(-1 0 0 1 1026.9392 0)" gradientUnits="userSpaceOnUse" r="14.7117" xlink:href="#a"/><radialGradient id="m" cx="942.5668" cy="159.6291" gradientTransform="matrix(-1 0 0 1 1026.9392 0)" gradientUnits="userSpaceOnUse" r="14.6574" xlink:href="#a"/><radialGradient id="n" cx="957.7059" cy="143.8611" gradientTransform="matrix(-1 0 0 1 1026.9392 0)" gradientUnits="userSpaceOnUse" r="19.6471"><stop offset=".2294" stop-color="#c7aa81"/><stop offset=".6063" stop-color="#c5a87f"/><stop offset=".7916" stop-color="#bda17a"/><stop offset=".9347" stop-color="#b09570"/><stop offset="1" stop-color="#a78d6a"/></radialGradient><radialGradient id="o" cx="975.8103" cy="164.1321" gradientTransform="matrix(-1 0 0 1 1026.9392 0)" gradientUnits="userSpaceOnUse" r="18.2822" xlink:href="#a"/><radialGradient id="p" cx="47.032" cy="60.8964" gradientTransform="matrix(.9995 0 0 1 .052913 0)" gradientUnits="userSpaceOnUse" r="11.4376" xlink:href="#a"/><radialGradient id="q" cx="103.551" cy="114.8747" gradientTransform="matrix(.9995 0 0 1 .052913 0)" gradientUnits="userSpaceOnUse" r="21.8244" xlink:href="#a"/><radialGradient id="r" cx="71.7063" cy="17.6422" gradientTransform="matrix(.9995 0 0 1 .052913 0)" gradientUnits="userSpaceOnUse" r="8.0559" xlink:href="#a"/><radialGradient id="s" cx="70.4228" cy="179.3735" fx="69.2741" fy="178.7519" gradientTransform="matrix(.9995 0 0 1.3803 .052913 -68.2093)" gradientUnits="userSpaceOnUse" r="5.4446"><stop offset=".02183133" stop-color="#c7aa81"/><stop offset=".4577" stop-color="#c5a87f"/><stop offset=".6721" stop-color="#bda17a"/><stop offset=".8375" stop-color="#b09570"/><stop offset=".9131" stop-color="#a78d6a"/></radialGradient><radialGradient id="t" cx="104.1142" cy="114.0114" gradientTransform="matrix(1 0 0 1.7268 0 -82.8626)" gradientUnits="userSpaceOnUse" r="13.1055" xlink:href="#a"/><radialGradient id="u" cx="148.2247" cy="66.1098" gradientUnits="userSpaceOnUse" r="16.43"><stop offset=".3104" stop-color="#c7aa81"/><stop offset=".5515" stop-color="#c3a67e"/><stop offset=".806" stop-color="#b69a74"/><stop offset="1" stop-color="#a78d6a"/></radialGradient><path d="m57.7 63.4c0 1.2.1 2.4.3 3.5.2 1.2.4 2.3.7 3.4s.4 2.4.8 3.4c.4 1.1 1.3 1.7 1.9 2.7s.4 2.7 1.1 3.5 1.8 1 2.6 1.6c.7.7 1.2 2.1 2 2.6s1.8.7 2.7 1c.8.3 1.8.2 2.7.4.9.1 1.8.5 2.6.4.9 0 1.7-.9 2.5-1.1s1.8 0 2.6-.4 1.7-.7 2.4-1.2 1.4-1.2 2.1-1.9 1-1.8 1.6-2.6 1-1.6 1.5-2.5 1.1-1.6 1.5-2.6c.4-.9.3-2.2.5-3.2s.1-2.1.2-3.1.7-2 .7-3.1.1-2.2 0-3.2c-.1-1.1-.3-2.2-.5-3.2s-.6-2.1-.9-3.1c-.4-1-.6-2.1-1.1-3s-1.4-1.3-2-2.2c-.6-.8-1.2-1.4-1.9-2.1-.8-.4-1.6-.8-2.3-1.4s-1.2-2-2-2.4-1.8.4-2.6.1-1.6-1-2.5-1.1-1.8-1-2.7-.9-1.8.5-2.6.7c-.9.3-1.7.9-2.5 1.3s-1.4 1.3-2.2 1.9-2.1.5-2.7 1.2c-.7.8-.6 2.5-1.1 3.4-.6.9-1.3 1.6-1.8 2.7-.4 1-.8 2.1-1.1 3.3-.3 1.1-.8 2.2-.9 3.4-.1 1.3.4 2.6.4 3.8z" fill="url(#b)"/><path d="m68.9 77.1c0 2 .2 4 .5 5.9.4 2 1.1 3.9 1.9 5.6.9 1.8 2.3 3.3 3.6 4.7 1.4 1.5 2.8 3.1 4.5 3.9 1.8.8 3.9 0 5.9-.2 1.9-.2 3.7 0 5.3-1 1.5-.9 2.2-2.8 3.4-4.3 1.1-1.4 2.2-2.7 3-4.4.7-1.6 1.6-3.2 1.9-5.1.4-1.8.3-3.6.3-5.5s.5-3.7.1-5.5c-.4-1.9-1.4-3.4-2.2-5-.8-1.7-1.8-3.1-2.9-4.5-1.2-1.5-2.4-2.7-3.9-3.5-1.6-.9-3.1-2-5-2.1-2-.1-4 .2-5.8 1-1.7.8-3.1 2.3-4.4 3.8-1.3 1.4-2.9 2.7-3.8 4.6-.8 1.7-1.9 3.6-2.3 5.6-.4 1.8-.1 4-.1 6z" fill="url(#c)"/><path d="m59 87.3c-.7.9-1.2 1.9-1.8 2.9s-1 2.1-1.4 3.2-1.1 2.1-1.4 3.3 0 2.4-.1 3.6-1.3 2.5-1.2 3.7c0 1.2.8 2.3 1 3.5s-.4 2.7 0 3.8c.3 1.1 1 2.1 1.4 3.1.5 1 1.3 1.8 1.9 2.6s1.1 1.9 1.8 2.6 1.8.7 2.6 1.3 1.4 1.5 2.2 1.9 1.7.8 2.6 1 1.8.2 2.7.2 1.8-.7 2.7-.8c.9-.2 1.7-.5 2.6-.9.8-.3 1.8-.4 2.6-.9s1.4-1.6 2.1-2.3c.7-.6 1.2-1.6 1.9-2.4.6-.8 1.6-1 2.2-1.9s1.2-1.7 1.7-2.6c.5-1 .9-2 1.3-3 .3-1 .6-2.1.9-3.2.2-1.1.6-2.2.7-3.2.1-1.1-.4-2.2-.4-3.2 0-1.1-.2-2.1-.4-3.1-.1-1-.5-1.9-.8-2.9s.1-2.4-.3-3.3-1.5-1.1-2-1.9-.7-1.9-1.3-2.7c-.6-.7-.8-2.1-1.5-2.7s-1.5-1-2.3-1.5-1.6-.6-2.5-.9c-.8-.3-1.7-.1-2.6-.3-.9-.1-1.7-1.2-2.6-1.2s-1.7 1.3-2.6 1.6c-.9.2-1.8.2-2.7.6s-1.7.9-2.5 1.5-1.8 1-2.5 1.7c-.9.6-1.3 1.9-2 2.8z" fill="url(#d)"/><path d="m50.6 59.6c.3.1.6.2.9.3 1 .3 2.3-.5 3.2-.1s1.5 2 2.3 2.6c.9.6 1.8.9 2.6 1.7.8.7 1.6 1.4 2.3 2.3.6.9 1.4 1.7 1.9 2.7s.4 2.5.8 3.5c.4 1.1.3 2.3.5 3.4.3 1.1 1.4 2 1.5 3.1.1 1.2-.7 2.4-.7 3.5 0 1.2.1 2.3-.1 3.4-.2 1.2-.2 2.3-.5 3.4s-.1 2.5-.6 3.6c-.4 1.1-1.2 2-1.7 3-.6 1-1.2 1.9-1.9 2.8s-1.5 1.7-2.3 2.4-1.8 1.2-2.7 1.8-2 .4-3 .8c-.9.4-1.6 1.1-2.5 1.4z" fill="url(#e)"/><path d="m50.6 100.6c.1 0 .3.1.4.1.9.3 1.8.9 2.7 1.4s1.3 1.7 2.1 2.3 1.7.9 2.4 1.7 1.7 1.1 2.3 2 .8 2.1 1.2 3.1.8 2 1.1 3.1 1 2 1.1 3.1.3 2.3.3 3.5-.2 2.4-.4 3.6c-.1 1.2-.8 2.3-1.1 3.5s-.1 2.5-.5 3.7-1.2 2.2-1.7 3.3c-.6 1.1-1 2.4-1.7 3.3-.7 1-1.4 2.2-2.1 3.1-.8.9-2.1 1-3 1.7-.9.8-1.6 2.2-2.5 2.8-.2.1-.4.2-.6.2z" fill="url(#f)"/><path d="m73 34.1c.1.2.2.3.3.5.5 1 .8 2.2 1.2 3.3s.7 2.2 1 3.3.4 2.3.6 3.4c.1 1.1 0 2.3 0 3.4s-.7 2.1-.8 3.2 0 2.2-.3 3.3-.2 2.3-.6 3.3-1.1 1.7-1.6 2.6-1 1.8-1.7 2.6c-.6.8-1 2-1.8 2.6-.7.7-1.5 1.4-2.3 1.9s-1.8.8-2.7 1.2c-.9.3-1.9.1-2.9.2-.9.2-1.9 1-2.8 1-1 0-2-.4-2.9-.6-1-.2-2.1-.2-3-.6-.7-.3-1.5-.5-2.2-.9v-36.8z" fill="url(#g)"/><path d="m72.2 34 27.7 3.8v14.1c-.1.2-.2.3-.3.5-.4.8-.8 1.6-1.4 2.3-.5.7-.9 1.8-1.4 2.3-.6.6-1.2 1.2-1.9 1.6s-1.4.7-2.2 1c-.7.3-1.6 0-2.3.1-.8.1-1.5.8-2.3.8s-1.6-.4-2.4-.6-1.7-.2-2.4-.6c-.8-.4-1.7-.7-2.4-1.2s-1.1-2-1.8-2.7-1.7-.9-2.3-1.8c-.6-.8-.5-2.5-1-3.4-.5-1-1.3-1.7-1.7-2.7s-.4-2.2-.7-3.3-.5-2.2-.6-3.3-.3-2.2-.2-3.4c-.1-1.1-.5-2.4-.4-3.5z" fill="url(#h)"/><path d="m92 57.8c.1-1.1.5-2 .7-3s.5-2 .9-2.9c.3-.9.9-1.6 1.4-2.4.4-.8.4-2.3.9-3s1.5-.5 2.1-1.1c.6-.5 1.1-1.3 1.7-1.7.1 0 .1-.1.2-.1l-.1 36.2c-.1-.1-.3-.1-.4-.2-.6-.5-1-1.8-1.6-2.4s-1.5-.7-2-1.5c-.5-.7-.4-2.3-.8-3.1s-1.1-1.4-1.5-2.4c-.3-.9-.4-2-.6-3.1-.2-1-.4-2-.5-3s-.2-2-.2-3.1-.3-2.2-.2-3.2z" fill="url(#i)"/><path d="m92.6 93c.1-1.1.5-2.1.7-3.1s.5-2 .9-3c.3-1 .9-1.7 1.4-2.5.4-.9.4-2.4.9-3.1.5-.8 1.5-.7 2.1-1.4.5-.5.8-1.1 1.3-1.6l-.1 35.2c-.5-.5-.8-1.5-1.3-2-.6-.5-1.5-.5-2-1.2s-.4-2.2-.8-3-1.1-1.3-1.5-2.2c-.3-.9-.4-2-.6-3s-.4-1.9-.5-3c-.1-1-.2-2-.2-3.1-.1-.9-.4-1.9-.3-3z" fill="url(#j)"/><path d="m74.8 112.4c.1-1.1.6-2.3.8-3.3.3-1.1.6-2.2 1-3.2s1.1-1.9 1.6-2.8c.5-1 .4-2.5 1-3.4.6-.8 1.7-.9 2.4-1.6s1.2-1.6 1.9-2.2 1.4-1.3 2.2-1.7c.7-.4 1.5-.9 2.3-1.1s1.6.5 2.4.4 1.4.5 2.2.6 1.6-.8 2.3-.6c.7.3 1.1 1.5 1.8 1.9s1.3.7 1.9 1.2c.4.4.8.7 1.2 1.1v29.1c-.3.6-.5 1.2-.9 1.6-.6.7-1.2 1.5-1.9 2.1-.6.6-1.4 1.1-2.1 1.6s-1.5.4-2.3.8c-.7.3-1.5 1.2-2.3 1.4s-1.6 0-2.3 0c-.8 0-1.6.2-2.4.1-.8-.2-1.7-.2-2.4-.5s-1.1-1.6-1.8-2.1-1.7-.4-2.3-1.1-.5-2.3-1-3.1-1.3-1.3-1.7-2.2-.4-2.1-.7-3.1-.5-2-.6-3.1-.2-2.1-.2-3.3c.2-1.3-.2-2.4-.1-3.5z" fill="url(#k)"/><path d="m90.5 140.8c-.1-1-.7-2-.6-3 0-1.1.9-2.2 1.1-3.3.1-1.1 0-2.2.2-3.2.3-1 .8-2 1.2-3s.7-1.9 1.2-2.8.9-1.8 1.5-2.6.9-2 1.5-2.7 1.4-1.1 2-1.6c.4-.3.8-.6 1.2-.9l-.1 35.1-2.9.9c-.3-.4-.6-.8-1-1.1-.6-.5-1.4-.4-2-1.1-.5-.6-.9-1.6-1.3-2.3-.4-.8-1-1.4-1.3-2.3s-.8-1.8-1-2.7c-.1-1 .4-2.4.3-3.4z" fill="url(#l)"/><path d="m99.3 152.6v.2l-30.5 9.5c-.1-.4-.2-.7-.2-1.1-.1-1.1.6-2.6.6-3.7 0-1.2-.5-2.3-.3-3.4.2-1.2 1.3-2.3 1.6-3.5s.2-2.4.7-3.5c.4-1.1 1.1-2 1.7-3 .5-1 1.1-2 1.7-2.9s1.2-1.8 1.9-2.6 1.2-2 2-2.6c.8-.7 1.6-1 2.4-1.5s1.6-.9 2.4-1.2 1.6-.2 2.4-.3 1.7-1.3 2.5-1.3 1.4 1.1 2.1 1.3 1.5.1 2.2.5c.7.3 1.4.6 2 1.1s1.3.9 1.8 1.6c.5.6.5 1.9.9 2.7s.5 1.8.8 2.7 1.3 1.1 1.5 2-.3 2.3-.2 3.2c.1 1 .3 1.9.3 2.9-.3.9-.2 1.9-.3 2.9z" fill="url(#m)"/><path d="m52.7 142.8c.1-1.2-.2-2.5.1-3.8.3-1.2.9-2.5 1.4-3.6.4-1.2.7-2.5 1.3-3.6s1.1-2.4 1.8-3.4 2-1.3 2.7-2.1c.8-.8 1.2-2.3 2.1-3 .8-.7 2.1-.2 3-.7s1.6-1.5 2.5-1.8 1.8-.2 2.7-.4 1.7-.3 2.6-.2c.8 0 1.7.1 2.5.3s1.8-.1 2.5.3c.8.4 1.4 1.1 2 1.6.7.5 1.3 1.1 1.9 1.7.6.7.9 1.6 1.4 2.4s1.6.9 2 1.8 0 2.4.3 3.4.7 1.8.8 2.8.4 2.1.4 3.1c0 1.1.1 2.2 0 3.3s-.9 2.2-1.1 3.3-.9 2-1.2 3.1c-.4 1.1 0 2.5-.5 3.5s-1.6 1.5-2.1 2.5c-.6 1-1 2-1.7 2.8-.7.9-1.3 1.8-2 2.5-.3.3-.6.7-.8 1.1l-12.9 4c-.4-.3-.8-.7-1.2-.8-.9-.3-1.8-.1-2.5-.6-.8-.5-1.8-.4-2.5-1s-1.1-1.7-1.6-2.5c-.6-.8-1.2-1.6-1.6-2.5-.5-.9-1.3-1.6-1.6-2.7s-.7-2.2-.8-3.4c-.2-1.1-.1-2.5-.1-3.7-.5-1.1 0-2.4.2-3.7z" fill="url(#n)"/><path d="m98.3 55.4-2-1.2-2.1 1.9.8 3.2 2 .1 1.3-2z" fill="#4e3d34"/><path d="m94.8 41.1-1.7-3.1-2.7 1.1v2.6l.6 1.4-.2 1.2 1.8 1.1 2.2-2.4z" fill="#4e3d34"/><path d="m76.4 90-2-2.9-3.1 1.7v2.9l.7 1.3-.2 1.3 2.1.8 2.5-3z" fill="#4e3d34"/><path d="m82.1 42.4-3.6-3.7-1.1 1.5.7 3.3 1.3-.7 1 1.7 1.7-.6z" fill="#4e3d34"/><path d="m58.2 113.8-4.3-2.9-1.3 1.9.8 3.4 1.6-1.1 1.1 1.6 2.1-1.2z" fill="#4e3d34"/><path d="m57.5 46-4.3-3.9-1.3 1.6.8 3.6 1.6-.7 1.1 1.8 2.1-.7z" fill="#4e3d34"/><path d="m79.2 75-1.6 1.1-1-.5-1.5 1.2 2.5 2.2 2.1-.1v-2.1z" fill="#4e3d34"/><path d="m59.7 57.8-1.9 1-1.1-.6-1.8 1.3 2.9 2.4 2.3.1v-2.3z" fill="#4e3d34"/><path d="m87.7 102.4.4 3.1 2.4 1.2 1.6-2.7-1-2.4-2.1-.4z" fill="#4e3d34"/><path d="m54.5 75.2.5 3.6 3.1 1.6 2-2.9-1.3-2.7-2.7-.7z" fill="#4e3d34"/><path d="m81.2 63.8.4 3.2 2.5 1.7 1.7-2.6-1.1-2.6-2.2-.7z" fill="#4e3d34"/><path d="m64 49.3.5 3.5 2.8 1.9 1.9-2.6-1.2-2.8-2.5-.9z" fill="#4e3d34"/><path d="m57.9 140.6-1.1 4.3 2.8 2.1 2.1-1.9.6-1.7 1.1-.7-.5-2.8-3.4-.8z" fill="#4e3d34"/><path d="m66.9 154.8 1.2 2.4 1.7-1.8-.4-3.8-3.1-.3-.9 2.4z" fill="#4e3d34"/><path d="m88.9 142.1 1.3.9.2 1.3 1.4.7.2-3.8-1-2-1.3 1.4z" fill="#4e3d34"/><path d="m96 110 1.3 1.1.1 1.2 1.4.9.1-3.7-.9-2.1-1.2 1.2z" fill="#4e3d34"/><path d="m72.5 134.9 1.3-3.2-1.4-3.2-2.7 1.3-.4 3.1 1.6 2.1z" fill="#4e3d34"/><path d="m90.2 126 2.3-2.5-.6-3.8h-1.9l-1 .8-.8-.3-1 2.6 1.6 3.2z" fill="#4e3d34"/><path d="m79 144.5 2.9-5-1-1.5-2.5 1.1.4 1.7-1.3 1.3.3 2.5z" fill="#4e3d34"/><path d="m73.1 109.3 3-4.7-1-1.6-2.6.7.5 1.8-1.4 1.2.3 2.6z" fill="#4e3d34"/><path d="m89.8 84.1 2.7-4.2-.9-1.6-2.3.5.4 1.7-1.3 1.1.4 2.4z" fill="#4e3d34"/><path d="m84.9 114.7-.5-2.2.5-1.2-.7-2-1.9 3.1-.3 2.7 1.6.1z" fill="#4e3d34"/><path d="m62.7 105-.6-2.4.6-1.3-.8-2.2-2.2 3.3-.4 3 1.8.1z" fill="#4e3d34"/><path d="m56.3 95.1-.6-2.4.6-1.3-.8-2.3-2.4 3.3-.3 3 1.9.2z" fill="#4e3d34"/><path d="m98.7 68.9 1.2-1.8v4.6h-.1l-1.3-.3z" fill="#4e3d34"/><path d="m98.8 87.6.8.4.2-.2v2.9h-.2l-2.1-1.9z" fill="#4e3d34"/><path d="m97.3 127.3 2.5-1.9v6.7l-.4.6-1.8-.5.3-1.2-.6-1.1z" fill="#4e3d34"/><path d="m82.2 158.2v-.1l1.9-3.5.7 2-.3.9z" fill="#4e3d34"/><path d="m50.6 126.7h1.9l-.4 3.3.5 2.4-1.9 1.4-.1-.1z" fill="#4e3d34"/><path d="m67.1 33.3.3 1.8-1.1.2-.5 1.5-2 1.2-2.8-3.2.7-2.3z" fill="#4e3d34"/><path d="m50.6 140.3h1.1c1 0 1.8.9 2.7 1 1 .2 1.9-.1 2.8.3.9.3 2 .2 2.7.7.8.5 1.3 1.5 1.9 2.2.7.7 1.3 1.3 1.9 2.1.5.8 1.4 1.3 1.8 2.2s.9 1.9 1.2 2.9.4 2.2.5 3.3-.2 2.4-.2 3.6c0 1.1.5 2.2.3 3.4 0 .2-.1.5-.1.8l-16.6 5.2z" fill="url(#o)"/><path d="m50.6 157.4 2.5-.3.8 4.2-3 3.3-.3.1z" fill="#4e3d34"/><path d="m100 186.8-42.2-22 46.9-13.4 32.3 14.2z" fill="#e6e7e8"/><path d="m50.5 31.2v137.6l49.5 25.8v-189.2zm44.9 141.2-42.4-17.4v-49.2l42.4 1.9z" fill="#d9c7a8"/><path d="m55.6 58.1c-.1-1.3-.3-2.6-.6-3.8-.2-1.2-.5-2.4-.9-3.4s-.8-1.9-1.3-2.7-1.1-1.2-1.7-1.7c-.2-.2-.4-.2-.6-.3v30.3c.1-.1.2-.2.2-.3.6-.8 1.1-1.6 1.6-2.7s.8-2.3 1.2-3.5.8-2.3 1-3.7c.2-1.3.5-2.6.6-4 .2-1.4.6-2.9.5-4.2z" fill="url(#p)"/><path d="m100 91c-1 .6-1.8 1.7-2.7 2.4-1.1.8-2.2 1.3-3.2 2.4-.9 1.1-2.1 1.9-2.8 3.2s-1.1 3-1.6 4.6c-.4 1.2-.8 2.5-1 3.8l6.7.3v26.5c.5.5 1 .9 1.5 1.4 1 .9 2 1.9 3 2.6v-47.2z" fill="url(#q)"/><path d="m54.3 75.3 38.9-7" fill="none" stroke="#2c4e5f" stroke-miterlimit="10" stroke-width=".3781"/><path d="m83.5 177.1c0 .1 0 .1 0 0 0 .3-.1.4-.1.6-.1.2-.2.4-.3.5-.2.2-.4.3-.7.3-.2 0-.4 0-.6 0-.1 0-.2 0-.3-.1-.1 0-.2-.1-.3-.1s-.1-.1-.2-.1-.2-.1-.2-.1c-.1-.1-.2-.1-.3-.2s-.3-.2-.4-.4c-.2-.2-.4-.4-.6-.7-.1-.2-.3-.4-.4-.6s-.2-.5-.3-.7-.1-.4-.1-.6c0-.1 0-.2 0-.3v-.1c0-.3 0-.5.1-.7s.2-.4.3-.5c.2-.2.3-.3.5-.4s.5-.1.7-.1c.1 0 .2 0 .3.1.2 0 .3.1.5.2.1.1.3.1.4.2.3.2.6.5.9.9.2.3.4.5.5.9.1.3.2.5.3.8 0 .2.1.4.1.6v.1c.2.2.2.4.2.5zm-.3.6c.1-.2.2-.4.3-.7 0 0 0-.1 0-.2s0-.1 0-.2c0-.3-.1-.6-.2-.8-.1-.3-.2-.5-.3-.7s-.3-.5-.5-.7-.4-.5-.6-.6c-.1-.1-.2-.2-.3-.2-.1-.1-.2-.1-.3-.2s-.2-.1-.3-.1-.2-.1-.3-.1-.3 0-.4 0c-.3 0-.5.1-.8.2-.2.1-.3.3-.4.5s-.2.4-.2.6v.2c0 .2.1.4.1.6.1.3.2.6.4.8.1.2.3.5.4.7s.3.3.4.5c.2.2.5.4.7.5.1.1.2.1.3.2s.2.1.4.1c.1 0 .2.1.4.1s.4 0 .6-.1.4-.2.5-.3-.1-.1-.1-.1-.1-.1-.1-.1c0-.1-.1-.2-.1-.2-.1-.2-.1-.3-.2-.5 0-.1-.1-.3-.1-.4s-.1-.2-.2-.2v.6.2c0 .1 0 .1.1.2 0 0 .1.1.1.1v.1.1c-.1 0-.1-.1-.2-.1-.1-.1-.2-.1-.3-.1 0 0-.1 0-.1-.1 0 0-.1-.1-.1-.2h.1s.1 0 .1-.1 0-.1 0-.2c0-.3 0-.5 0-.8s0-.5 0-.8v-.1s0 0 0-.1v-.1-.1s.1.1.1.1c.1 0 .2.1.2.1.1 0 .2.1.3.1s.2.1.2.2c.1.1.2.2.2.4v.3c0 .1 0 .3-.1.3-.1.1-.1.2-.2.2h-.1c.1.1.1.1.1.2.1.2.2.5.3.7 0 .1.1.1.1.2.1 0 .1.1.1.1zm-1-1.7c.1 0 .1.1.2.1h.2c.1-.1.1-.2.1-.3s-.1-.3-.1-.4c-.1-.1-.1-.1-.2-.1s-.1 0-.1.1v.2c-.1.1-.1.2-.1.4z"/><path d="m79.6 172.5c.1-.1.2-.1.2-.1h.1c0-.2 0-.3 0-.5 0-.1 0-.3 0-.4s0-.2 0-.3h.1.1c.1.3.2.6.3.8 0 .1.1.2.1.4v.1.1h-.1c0-.1-.1-.2-.1-.3-.1 0-.2 0-.3 0v.2s0 0-.1 0h-.1c-.1 0-.1.1-.2.1s-.1 0-.1-.1 0-.1-.1-.2c-.1-.3-.2-.7-.3-1 0 0 0 0 0-.1 0 0 .1-.1.1-.1.1.7.2 1 .4 1.4-.1 0-.1 0 0 0zm.4-.5h.2c-.1-.2-.1-.4-.2-.6z"/><path d="m80.2 178.4c0 .1 0 .2-.1.3 0 .1-.1.2-.1.2-.1 0-.1 0-.2 0s-.1-.1-.2-.2-.1-.2-.2-.2v-.1c0-.1.1-.2.1-.3.1-.2.1-.4.2-.5h.1s.1.1.1.1l.2.2c0 .1.1.1.1.2zm-.6.1c0 .1.1.1.1.2.1.1.2.1.2 0 .1-.1.1-.2.1-.3s0-.2 0-.3c0 0 0-.1-.1-.1 0-.1-.1-.1-.1-.2 0 .2-.1.4-.2.7z"/><path d="m81.7 179.7v.2.3h-.1c0-.1 0-.3 0-.4 0-.2-.1-.4-.1-.7 0-.1 0-.1 0-.2s0-.1 0-.1h.3c.1 0 .1 0 .2.1s.1.1.1.2v.3s0 .1-.1.1c.1.1.1.1.1.2s.1.2.1.3v.1.1s0 0-.1 0c0 0 0 0-.1 0 0 0 0 0 0-.1s-.1-.2-.1-.3v-.1c-.1 0-.1 0-.2 0zm0-.2h.1c.1 0 .1-.1.1-.2s0-.2-.1-.2c0 0 0 0-.1 0h-.1c0 .1.1.2.1.4z"/><path d="m82.6 173.4v.1c0 .1-.1.2-.1.2s-.1-.1-.1-.1 0 0 0-.1c.1-.2.2-.5.3-.7 0-.1 0-.1.1-.2h.1c.1.1.2.2.2.3s.1.1.1.2v.3c0 .1-.1.1-.2.1 0 0 0 0-.1 0v.2.2.2s0 .1-.1 0c0 0-.1-.1-.1-.1s0 0 0-.1 0-.2 0-.3 0-.1 0-.2c0 .2 0 .1-.1 0 .1.1.1 0 0 0zm.1-.2s.1.1.1.1h.1s.1 0 .1-.1 0-.1 0-.2-.1-.1-.1-.2c-.1.3-.2.3-.2.4z"/><path d="m80.6 178.4s.1.1.1.1v.1c0 .2 0 .4.1.6 0 .2 0 .4.1.6v.1s0 0-.1 0c0 0 0 0-.1 0 0 0 0 0 0-.1s0-.2 0-.3c-.1 0-.1-.1-.2-.1 0 0-.1 0-.1-.1 0 .1 0 .1-.1.2s-.1-.1-.1-.1 0 0 0-.1v-.1c.2-.3.3-.5.4-.8zm-.1.7c.1.1.2.1.2.2 0-.2 0-.4-.1-.6 0 .1 0 .2-.1.4z"/><path d="m82 172.8c0 .1 0 .2-.1.3 0 0 .1.1.1.1l.2.2v.1.1c-.1-.1-.3-.2-.4-.3 0 0-.1-.1 0-.1.1-.3.1-.7.2-1 0-.1 0-.1.1 0s.3.2.4.3v.1.1c-.1-.1-.2-.2-.3-.2 0 .1 0 .2-.1.3 0 0 .1.1.1.1s.1.1.1.1v.1c-.1-.2-.2-.3-.3-.3z"/><path d="m82.5 179.4c0-.1 0-.1 0-.2s0-.2 0-.3v-.1-.1h.1v.6.2c0 .2.1.3.1.5v.1h-.1c0-.1-.1-.3-.1-.4-.1-.2-.3-.5-.4-.7h.1.1c0 .1.1.3.2.4z"/><path d="m81.2 171.7v.2.2.4.2h-.1s0 0 0-.1c0-.2 0-.4 0-.6 0-.1 0-.2 0-.3v-.1h-.1-.1v-.1c.1 0 .2.1.2.1.1 0 .1.1.2.1h.1v.2c-.1-.1-.1-.2-.2-.2z"/><path d="m81.2 178.7s.1 0 0 0c.1.1.1.1 0 0 .1.3.1.4.1.6v.3.4s-.1 0-.1-.1c0 0 0 0 0-.1 0-.2 0-.4 0-.5s0-.2 0-.3c-.1 0-.1-.1 0-.3-.1 0-.1 0 0 0z"/><path d="m81.6 171.7c.1 0 .1 0 0 0 .1.1.1.1.1.1v.4.4.4s-.1 0-.1-.1c0 0 0 0 0-.1s0-.3 0-.4 0-.3 0-.4 0-.2 0-.3z"/><path d="m80.6 171.3c.1.2.1.4.1.5v.4.4h-.1c0-.2 0-.4-.1-.6 0-.2 0-.4 0-.6 0-.1 0-.1.1-.1-.1 0 0 0 0 0z"/><path d="m79 174.7c0-.3.1-.5.2-.7s.3-.3.5-.3h.2c.2.1.3.2.4.4 0 0 .1.1.1.2s.1.2 0 .3c0 .1-.1.2-.2.2s-.1-.1 0-.1c0 0 0 0 0-.1v-.1c0-.1-.1-.1-.1-.2-.1-.1-.1-.1-.2-.2-.1 0-.2-.1-.2-.1h-.1c-.1.1-.2.2-.2.3v.3c0 .2 0 .4.1.6.1.3.2.5.4.7.1.1.2.1.3.1h.1s.1 0 .1-.1c0 0 .1 0 .1.1v.1s0 .1-.1.1c-.1.1-.2.1-.4.1-.1 0-.2 0-.2-.1-.2-.1-.4-.4-.5-.7-.1-.2-.1-.4-.1-.6-.2 0-.2-.1-.2-.2z"/><path d="m81.1 176.7c-.2-.1-.3-.2-.4-.5-.1-.2-.2-.4-.2-.6s0-.4 0-.6c0-.1.1-.3.2-.3.1-.1.2-.1.3-.1s.3.1.4.3c0 0 .1.1.1.1.1.2.2.4.2.7v.3c0 .3-.1.5-.2.6s-.2.2-.3.1c0 .1 0 0-.1 0zm-.3-1.2v.3c0 .1.1.3.1.4.1.2.2.3.3.3s.1-.1.2-.2.1-.3.1-.4 0-.2 0-.3 0-.3-.1-.4c-.1-.2-.2-.3-.3-.3s-.2 0-.2.2c-.1.1-.1.3-.1.4z"/><path d="m80.9 173.5s0 .1.1.1v.4.2h.1c.1 0 .1-.1.1-.1 0-.1.1-.2.1-.3s0 0 0-.1v-.1s0 .1.1.1v.1c0 .2-.1.3-.1.4-.1.1-.2.2-.3.1 0-.1 0-.3 0-.4s0-.2 0-.3c-.2 0-.2 0-.1-.1z"/><path d="m81.5 173.8c0 .1.1.1.1.1h.1s.1.1.1.1v.3.2.1c-.1 0-.1 0-.2 0 0 0 0 0-.1 0 0-.1 0-.1 0-.2h.1.1s0 0 0-.1 0-.2 0-.3v-.1h-.1c-.1 0-.1-.1-.1-.1z"/><path d="m80.8 174.3c-.1-.3-.1-.5-.1-.7-.1 0-.1 0-.2-.1 0 0 0 0 0-.1 0-.1 0-.1 0-.2s0 0 .1.1c0 0 .1 0 .1.1 0 0 .1 0 .1.1z"/><path d="m81.1 174.1s0-.1-.1-.1c0-.1 0-.1.1-.2 0 0 0-.1-.1-.1v-.1c0 .1.1.1.1.2v.1c.1 0 0 .1 0 .2z"/><path d="m93.2 99.4 2.4-1.3 2.4 2.5-.9 3.7-2.3-.1-1.6-2.5z" fill="#4e3d34"/><path d="m60.3 63.9-.5.3c0-.3-.1-.7-.3-.6-.3 0-.5.4-.5 1 0 .7.2.9.5.8s.4-.4.5-.6l.3.6c-.1.3-.4.8-.8.9-.6.1-1-.5-1-1.6s.4-1.9 1-2.1c.6-.1.8.6.8 1.3z" fill="#37271d"/><path d="m62.4 62v3.7l-.6.1v-1.4l-.7.2v1.4l-.6.1v-3.6l.6-.2v1.4l.7-.2v-1.4z" fill="#37271d"/><path d="m64.7 63.2c0 1.2-.4 2-1.1 2.2-.6.1-1-.5-1-1.6 0-1.2.4-2 1-2.1.7-.3 1.1.3 1.1 1.5zm-.6.1c0-.6-.2-.9-.5-.9-.3.1-.4.5-.4 1.1s.2.9.4.9c.3 0 .5-.4.5-1.1z" fill="#37271d"/><path d="m66.9 62.2-.6.3c0-.3-.1-.7-.4-.7-.3.1-.4.5-.4 1.1 0 .7.3.9.5.9.3-.1.4-.5.5-.6l.4.6c-.1.3-.4.9-.9 1-.7.2-1.1-.5-1.1-1.6 0-1.2.4-2 1-2.2.8-.2 1 .5 1 1.2z" fill="#37271d"/><path d="m69.3 62c0 1.2-.5 2.1-1.1 2.2-.7.2-1.1-.5-1.1-1.7s.4-2.1 1.1-2.2c.6-.1 1.1.5 1.1 1.7zm-.6.2c0-.7-.2-1-.5-.9s-.5.5-.5 1.1c0 .7.2 1 .5.9.3 0 .5-.4.5-1.1z" fill="#37271d"/><path d="m71.2 62.6v.9l-1.6.4v-3.8l.6-.2v3z" fill="#37271d"/><path d="m72.7 62.4-.7.2-.1.7-.7.2.8-4.1.7-.2.8 3.7-.7.2zm-.1-.7-.2-.9c0-.1-.1-.3-.1-.5 0 .1 0 .4-.1.5l-.2 1z" fill="#37271d"/><path d="m74 59.8-.7.2v-.9l2.1-.5v.9l-.7.2v3.1l-.7.1z" fill="#37271d"/><path d="m76.3 59.2v.7l.9-.2v.9l-.9.2v.7l1-.3v.9l-1.7.4v-4l1.7-.5v.9z" fill="#37271d"/><path d="m80.7 58.7-.7.4c0-.4-.1-.8-.4-.7s-.5.6-.5 1.2c0 .8.3 1 .6.9s.5-.5.6-.7l.4.6c-.2.4-.5.9-1.1 1.1-.8.2-1.3-.5-1.3-1.8s.5-2.2 1.2-2.4c.9-.1 1.2.7 1.2 1.4z" fill="#37271d"/><path d="m83.4 56.4v4.2l-.8.2v-1.6l-.9.2v1.6l-.7.2v-4.1l.7-.2v1.6l.9-.2v-1.6z" fill="#37271d"/><path d="m83.8 56.3.8-.2v4.2l-.8.2z" fill="#37271d"/><path d="m87.4 56.9c0 1.1-.5 1.7-1.1 1.9l-.4.1v1.1l-.8.2v-4.2l1.1-.3c.7-.2 1.2.1 1.2 1.2zm-.8.2c0-.4-.2-.6-.5-.5l-.2.1v1.3l.3-.1c.2-.1.4-.3.4-.8z" fill="#37271d"/><path d="m57.1 71.4c0 .6-.2.9-.6 1l-.8.2v-3.1l.8-.2c.4-.1.6.2.6.7s-.2.7-.3.7.3.2.3.7zm-.8-1.5h-.2v.6h.2c.1 0 .2-.1.2-.3s0-.3-.2-.3zm.3 1.5c0-.2-.1-.3-.2-.3h-.2v.6h.2c.1 0 .2-.1.2-.3z" fill="#37271d"/><path d="m58.8 71.9s-.1.1-.2.1c-.6.1-.4-.9-.8-.9v1l-.5.1v-3.2l.6-.1c.5-.1.7.2.7 1 0 .4-.1.8-.3 1 .2.1.2.4.4.4h.1zm-.9-1.4c.2 0 .3-.2.3-.5s-.1-.4-.3-.4h-.1z" fill="#37271d"/><path d="m59 68.7.5-.1v3.2l-.5.1z" fill="#37271d"/><path d="m60.4 69c-.1 0-.2.1-.2.3 0 .5.9 0 .9 1.2 0 .5-.2 1-.7 1.1-.4.1-.7-.2-.8-.4l.3-.7c.1.1.3.4.5.3.1 0 .2-.1.2-.2 0-.5-.9 0-.9-1.2 0-.6.3-1.1.7-1.2.5-.1.7.3.7.7l-.4.3s-.1-.2-.3-.2z" fill="#37271d"/><path d="m62.9 67.8v2c0 .8-.3 1.4-.8 1.5s-.8-.4-.8-1.2v-1.9l.5-.1v2c0 .4.1.5.3.5s.3-.3.3-.6v-2z" fill="#37271d"/><path d="m64.9 70.7s-.1.1-.3.1c-.6.1-.5-1-.8-.9v1l-.6.1v-3.3l.7-.2c.5-.1.8.2.8 1 0 .5-.1.8-.3 1 .2.1.2.4.4.4h.1zm-1-1.5c.2 0 .4-.2.4-.5s-.1-.5-.3-.4h-.1v1z" fill="#37271d"/><path d="m65.6 67.9v.5l.7-.1v.7l-.7.1v.5l.8-.2v.8l-1.4.3v-3.3l1.4-.3v.8z" fill="#37271d"/><path d="m67.5 67.5c-.1 0-.2.1-.2.3 0 .5 1 0 1 1.3 0 .5-.2 1-.8 1.2-.5.1-.7-.2-.9-.4l.3-.7c.1.1.3.4.6.3.2 0 .2-.1.2-.2 0-.5-1 0-1-1.2 0-.6.3-1.2.7-1.3.5-.1.7.3.8.8l-.5.3c0-.3-.1-.4-.2-.4z" fill="#37271d"/><path d="m70.8 67.7c0 1.1-.3 1.8-.9 1.9l-.9.2v-3.4l.8-.2c.7-.1 1 .5 1 1.5zm-.6.2c0-.7-.2-.9-.5-.9h-.1v2h.2c.3-.1.4-.4.4-1.1z" fill="#37271d"/><path d="m71.7 66.6v.6l.7-.2v.7l-.7.2v.6l.9-.2v.8l-1.5.3v-3.4l1.5-.3v.8z" fill="#37271d"/><path d="m75.3 66.4-.6.3c0-.3-.1-.7-.4-.6s-.4.5-.4 1c0 .7.3.9.5.8.3-.1.4-.4.5-.6l.4.6c-.1.3-.4.8-.9.9-.7.1-1.1-.5-1.1-1.6s.4-1.9 1-2c.8-.2 1 .5 1 1.2z" fill="#37271d"/><path d="m77.6 64.5v3.6l-.6.2v-1.4l-.8.1v1.4l-.6.1v-3.5l.6-.1v1.4l.8-.3v-1.4z" fill="#37271d"/><path d="m80.2 65.8c0 1.2-.5 2-1.2 2.1s-1.1-.5-1.1-1.6.5-2 1.1-2.1c.7-.2 1.2.4 1.2 1.6zm-.7.1c0-.6-.2-.9-.5-.9-.3.1-.5.4-.5 1.1 0 .6.2.9.5.9.3-.1.5-.5.5-1.1z" fill="#37271d"/><path d="m82.6 64.9-.6.2c0-.3-.1-.7-.4-.7-.3.1-.5.5-.5 1.1 0 .7.3.9.6.9.3-.1.5-.4.6-.6l.4.6c-.1.3-.4.8-1 .9-.7.1-1.2-.5-1.2-1.6 0-1.2.5-2 1.1-2.1.7-.2 1 .6 1 1.3z" fill="#37271d"/><path d="m85.2 64.7c0 1.2-.5 2-1.2 2.2-.7.1-1.2-.5-1.2-1.7s.5-2 1.2-2.2c.7-.1 1.2.5 1.2 1.7zm-.7.2c0-.7-.2-1-.5-.9s-.5.5-.5 1.1c0 .7.2 1 .5.9s.5-.5.5-1.1z" fill="#37271d"/><path d="m87.2 65.3v.9l-1.7.3v-3.8l.7-.2v2.9z" fill="#37271d"/><path d="m88.9 65.2-.8.2-.1.7-.7.1.9-4 .8-.2.9 3.7-.9.1zm-.1-.8-.2-.9c0-.1-.1-.3-.1-.5 0 .1-.1.4-.1.5l-.2 1z" fill="#37271d"/><path d="m90.3 62.6-.8.2v-.9l2.3-.5v.9l-.8.1v3l-.7.1z" fill="#37271d"/><path d="m63.1 77.3-.3.1c0-.2-.1-.5-.2-.4-.2 0-.3.3-.3.7s.2.6.3.6c.2 0 .3-.3.3-.4l.2.4c-.1.2-.2.5-.5.5-.4.1-.7-.4-.7-1.1s.3-1.2.6-1.3c.4-.1.6.4.6.9z" fill="#37271d"/><path d="m64.5 77.3c0 .7-.3 1.2-.7 1.3s-.7-.4-.7-1.1.3-1.2.7-1.3c.5-.1.7.3.7 1.1zm-.4 0c0-.4-.1-.6-.3-.6s-.3.3-.3.7.1.6.3.6.3-.3.3-.7z" fill="#37271d"/><path d="m66 77.1c0 .7-.3 1.3-.7 1.3-.4.1-.7-.4-.7-1.1s.3-1.2.7-1.3.7.3.7 1.1zm-.4 0c0-.4-.1-.6-.3-.6s-.3.3-.3.7.1.6.3.6.3-.3.3-.7z" fill="#37271d"/><path d="m66.7 77.3h-.1v.9l-.4.1v-2.4l.4-.1v1h.1l.3-1.1.4-.1-.4 1.3.4 1.1-.4.1z" fill="#37271d"/><path d="m67.5 75.6.4-.1v2.5h-.4z" fill="#37271d"/><path d="m68.5 76v.4l.5-.1v.5l-.5.1v.4l.6-.1v.6l-1 .1v-2.4l1-.2v.6z" fill="#37271d"/><path d="m69.8 75.8c-.1 0-.2.1-.2.2 0 .4.7 0 .7.9 0 .4-.2.7-.6.8-.3 0-.5-.2-.6-.3l.2-.5c.1.1.2.3.4.3.1 0 .2-.1.2-.2 0-.3-.7 0-.7-.9 0-.4.2-.8.5-.9.4-.1.5.3.6.6l-.3.2c0-.1 0-.3-.2-.2z" fill="#37271d"/><path d="m71.5 74.8.4-.1-.6 3.5-.4.1z" fill="#37271d"/><path d="m73.7 76.4c0 .4-.2.7-.5.7l-.7.1v-2.5l.7-.1c.3-.1.5.2.5.6s-.2.5-.3.6c.1.1.3.2.3.6zm-.7-1.2h-.2v.5h.2c.1 0 .2-.1.2-.3 0-.1-.1-.2-.2-.2zm.3 1.2c0-.2-.1-.2-.2-.2h-.2v.5h.2c.1 0 .2-.1.2-.3z" fill="#37271d"/><path d="m73.9 74.6.4-.1v2.5l-.4.1z" fill="#37271d"/><path d="m75.1 74.9c-.1 0-.1.1-.1.2 0 .4.8 0 .8 1 0 .4-.2.8-.6.8-.4.1-.6-.2-.7-.3l.2-.5c.1.1.3.3.4.3s.2-.1.2-.2c0-.4-.8 0-.8-.9 0-.4.2-.8.6-.9s.6.3.6.6l-.4.2c0-.2 0-.3-.2-.3z" fill="#37271d"/><path d="m77.3 75-.4.2c0-.2-.1-.5-.3-.5s-.3.3-.3.7c0 .5.2.7.4.6.2 0 .3-.3.4-.4l.3.4c-.1.2-.3.6-.6.6-.5.1-.8-.4-.8-1.2s.3-1.3.8-1.4c.3 0 .5.5.5 1z" fill="#37271d"/><path d="m78.9 73.8v1.5c0 .7-.3 1.1-.7 1.2s-.7-.3-.7-1v-1.5l.4-.1v1.5c0 .3.1.4.2.4s.2-.2.2-.5v-1.5z" fill="#37271d"/><path d="m79.1 73.7.4-.1v2.6l-.4.1z" fill="#37271d"/><path d="m80.2 74.1-.5.1v-.6l1.4-.2v.6l-.5.1v2l-.5.1v-2.1z" fill="#37271d"/><path d="m81.9 73.8c-.1 0-.2.1-.2.2 0 .4.8 0 .8 1 0 .4-.2.8-.7.9-.4.1-.6-.2-.7-.3l.3-.6c.1.1.3.3.5.3.1 0 .2-.1.2-.2 0-.4-.8 0-.8-1 0-.5.2-.9.6-.9.4-.1.6.3.7.6l-.4.2c-.1 0-.2-.2-.3-.2z" fill="#37271d"/><path d="m58.5 85.3-.2.1c0-.2-.1-.5-.2-.4-.2 0-.3.3-.3.7 0 .5.2.7.3.7s.2-.2.3-.3l.1.2c0 .1-.2.4-.4.4-.3 0-.5-.3-.5-1 0-.6.2-1.1.5-1.1s.4.4.4.7z" fill="#37271d"/><path d="m59.5 85.7v.9h-.2v-.9c0-.2-.1-.3-.2-.3s-.2.2-.2.4v.8h-.2v-2.2h.2v1c0-.2.1-.3.3-.3s.3.2.3.6z" fill="#37271d"/><path d="m60.3 86 .1.2c-.1.2-.2.3-.3.3-.3 0-.4-.3-.4-.7s.2-.8.4-.8.4.3.4.7v.2l-.6.1c0 .2.1.4.2.3s.2-.2.2-.3zm-.5-.3h.4c0-.2-.1-.3-.2-.3-.1-.1-.1 0-.2.3z" fill="#37271d"/><path d="m61.8 84.8-.2 1.5h-.3l-.1-.8v-.1.2l-.2.8h-.2l-.3-1.4h.2l.1.9v.2c0-.1 0-.1 0-.2l.1-1h.2l.1.9v.2s0-.1 0-.2l.1-.9z" fill="#37271d"/><path d="m62 87c-.1 0-.2 0-.2 0v-.3h.1c.1 0 .1-.1.1-.2v-.1l-.4-1.5h.2l.2.9v.2c0-.1 0-.1 0-.2l.2-1h.2l-.4 1.8c.3.2.2.4 0 .4z" fill="#37271d"/><path d="m64.1 86.1s0 0-.1 0-.2-.1-.2-.2c0 .1-.1.3-.3.3s-.3-.1-.3-.4c0-.4.2-.5.6-.5v-.1c0-.2-.1-.3-.2-.3s-.2.1-.2.2v.1l-.2.1v-.1c0-.3.1-.5.4-.5.2 0 .4.2.4.6v.5c0 .1 0 .1.1.1zm-.4-.5v-.1c-.2 0-.3.1-.3.3 0 .1 0 .2.1.1.2 0 .2-.1.2-.3z" fill="#37271d"/><path d="m65 85.1v.9h-.2v-.9c0-.2-.1-.3-.2-.3s-.2.2-.2.4v.8h-.2v-1.5h.2v.3c0-.2.1-.4.3-.4.2.1.3.3.3.7z" fill="#37271d"/><path d="m66.1 83.6v2.3l-.1.1c0-.1 0-.3 0-.3 0 .2-.1.3-.3.4-.2 0-.4-.3-.4-.8s.2-.8.4-.8c.1 0 .2.1.3.2v-1zm-.2 1.6c0-.3-.1-.5-.2-.5s-.2.2-.2.5.1.4.2.4.2-.2.2-.4z" fill="#37271d"/><path d="m66.8 83.5h.2v2.3h-.2z" fill="#37271d"/><path d="m68.1 85c0 .5-.2.8-.5.9-.3 0-.5-.3-.5-.8s.2-.8.5-.9c.3 0 .5.3.5.8zm-.2 0c0-.3-.1-.5-.2-.5s-.2.2-.2.5.1.5.2.4c.1.1.2-.1.2-.4z" fill="#37271d"/><path d="m69.2 85.6h-.1c-.1 0-.2-.1-.2-.2 0 .1-.1.3-.3.3s-.3-.1-.3-.4c0-.4.2-.5.6-.6v-.1c0-.2-.1-.3-.2-.3s-.2.1-.2.2v.1l-.2.1v-.1c0-.3.2-.5.4-.5.3 0 .4.2.4.6v.6c0 .1 0 .1.1.1zm-.3-.5v-.1c-.3 0-.4.1-.4.3 0 .1.1.2.1.2.2-.1.3-.3.3-.4z" fill="#37271d"/><path d="m70.3 83.1v2.4h-.2c0-.1 0-.3 0-.3-.1.2-.2.4-.3.4-.3 0-.4-.3-.4-.8s.2-.8.4-.9c.1 0 .2.1.3.2v-1zm-.2 1.7c0-.3-.1-.5-.3-.5-.1 0-.2.2-.2.5s.1.5.2.4c.2 0 .3-.2.3-.4z" fill="#37271d"/><path d="m71.3 84.9.1.2c-.1.2-.2.3-.4.3-.3 0-.5-.3-.5-.8s.2-.8.5-.9c.3 0 .4.3.4.7v.2l-.7.1c0 .2.1.4.3.4s.2-.1.3-.2zm-.6-.3h.4c0-.2-.1-.4-.2-.3 0-.1-.1 0-.2.3z" fill="#37271d"/><path d="m72.6 82.9v2.4h-.2c0-.1 0-.3 0-.3-.1.2-.2.4-.3.4-.3 0-.4-.3-.4-.8s.2-.9.5-.9c.1 0 .2.1.3.2v-1zm-.3 1.7c0-.3-.1-.5-.3-.5-.1 0-.2.2-.2.5s.1.5.3.5c.1-.1.2-.3.2-.5z" fill="#37271d"/><path d="m74.7 83.5-.3 1.7h-.3l-.1-.9s0-.1 0-.2v.2l-.2.9h-.3l-.3-1.6h.3l.2 1v.2c0-.1 0-.1 0-.2l.2-1h.2l.2 1v.2s0-.1 0-.2l.2-1z" fill="#37271d"/><path d="m75 83.2c-.1 0-.2-.1-.2-.3s.1-.3.2-.3.2.1.2.3c0 .1-.1.3-.2.3zm-.1.3h.3v1.7h-.3z" fill="#37271d"/><path d="m76.2 84.9s-.1.1-.3.1c-.3 0-.4-.2-.4-.7v-.7h-.2v-.3h.2v-.5h.3v.5h.4v.3h-.4v.6c0 .2.1.3.2.3s.2-.1.2-.1z" fill="#37271d"/><path d="m77.3 83.8v1h-.3v-1c0-.2-.1-.4-.2-.3-.2 0-.2.3-.2.5v.9h-.3v-2.5h.3v1.1c.1-.2.2-.3.3-.3.2 0 .4.3.4.6z" fill="#37271d"/><path d="m78.9 83.6v.1h-.2s0 0 0-.1c0-.2-.1-.3-.2-.3-.2 0-.3.2-.3.5s.1.5.3.5.3-.2.3-.2l.1.3c-.1.2-.2.3-.5.3s-.6-.3-.6-.8.2-.9.5-.9c.5 0 .6.3.6.6z" fill="#37271d"/><path d="m80.2 83.6v1h-.3v-1c0-.2-.1-.4-.2-.3-.2 0-.3.3-.3.5v.9h-.3v-2.5h.3v1.1c.1-.2.2-.3.3-.3.3-.1.5.2.5.6z" fill="#37271d"/><path d="m81.5 83.6c0 .5-.2.9-.6.9-.3 0-.6-.3-.6-.8s.2-.9.6-.9.6.3.6.8zm-.3 0c0-.3-.1-.5-.3-.5s-.3.2-.3.5.1.5.3.5c.2.1.3-.2.3-.5z" fill="#37271d"/><path d="m82.7 83.2v.1l-.3.1s0 0 0-.1c0-.2-.1-.3-.2-.3-.2 0-.3.2-.3.5s.1.5.3.5.3-.2.3-.2l.1.3c-.1.2-.2.3-.5.3-.4 0-.6-.3-.6-.8s.2-.9.6-.9c.4-.1.6.2.6.5z" fill="#37271d"/><path d="m84 83.4c0 .5-.2.9-.6.9-.3 0-.6-.3-.6-.8s.2-.9.6-1c.4 0 .6.3.6.9zm-.3 0c0-.3-.1-.5-.3-.5s-.3.2-.3.6c0 .3.1.5.3.5.2-.1.3-.3.3-.6z" fill="#37271d"/><path d="m84.2 81.6h.3v2.6h-.3z" fill="#37271d"/><path d="m85.9 84h-.1c-.1 0-.2-.1-.3-.3 0 .1-.1.3-.4.3-.2 0-.4-.2-.4-.4 0-.4.3-.6.7-.6 0-.2-.1-.3-.2-.3s-.2.1-.2.3v.1l-.3.1s0-.1 0-.2c0-.3.2-.6.5-.6s.5.2.5.6v.6c0 .1 0 .1.1.1zm-.4-.5v-.1c-.3 0-.4.1-.4.3 0 .1.1.2.2.2.1-.1.2-.3.2-.4z" fill="#37271d"/><path d="m87 83.9s-.1.1-.3.2c-.3 0-.4-.2-.4-.7v-.7h-.2v-.4h.2v-.5l.3-.1v.5h.4v.4h-.4v.7c0 .3.1.4.2.3.1 0 .2-.1.2-.1z" fill="#37271d"/><path d="m88 83.3.2.2c-.1.2-.3.3-.5.4-.4 0-.6-.3-.6-.8s.2-.9.6-1c.3 0 .5.3.5.8v.2l-.8.1c0 .3.1.4.4.4.1-.1.2-.2.2-.3zm-.7-.4.5-.1c0-.2-.1-.4-.3-.4 0 .1-.1.2-.2.5z" fill="#37271d"/><path d="m60.6 88.6v.1h-.2s0 0 0-.1-.1-.3-.2-.3-.2.2-.2.5.1.4.2.4.2-.1.2-.2l.1.2c-.1.1-.2.3-.4.3-.3 0-.4-.3-.4-.7 0-.5.2-.8.4-.8.4.1.5.3.5.6z" fill="#37271d"/><path d="m61.6 88.6v.9h-.2v-.9c0-.2-.1-.3-.2-.3s-.2.2-.2.4v.8h-.2v-2.2h.2v1c0-.2.1-.3.3-.3.1 0 .3.3.3.6z" fill="#37271d"/><path d="m61.9 87.8c-.1 0-.1-.1-.1-.2s.1-.3.1-.3c.1 0 .1.1.1.2 0 .2 0 .3-.1.3zm-.1.2h.2v1.5h-.2z" fill="#37271d"/><path d="m63.1 88.7c0 .5-.2.8-.4.8-.1 0-.2-.1-.3-.2v.9h-.2v-2.2h.2v.3c0-.2.1-.3.3-.3.2-.1.4.2.4.7zm-.2 0c0-.3-.1-.4-.2-.4s-.2.2-.2.4v.1c0 .2.1.4.2.4s.2-.2.2-.5z" fill="#37271d"/><path d="m63.7 88.3c0-.1-.1-.2-.2-.2s-.1.1-.1.2c0 .3.5 0 .5.6 0 .3-.1.5-.4.5-.2 0-.4-.2-.4-.2l.1-.3s.1.2.3.2c.1 0 .2-.1.2-.2 0-.3-.5-.1-.5-.6 0-.3.1-.5.4-.5.2 0 .4.2.4.4v.1h-.3c0 .1 0 .1 0 0z" fill="#37271d"/><path d="m64.5 88.3.7-.1v.3l-.7.1z" fill="#37271d"/><path d="m66 88.9c.1 0 .2-.1.2-.4v-1.5h.2v1.5c0 .5-.2.7-.4.7s-.3-.1-.3-.2l.1-.3c0 .1.1.2.2.2z" fill="#37271d"/><path d="m67.5 87.6v1.6h-.2c0-.1 0-.3 0-.3 0 .2-.1.3-.3.3s-.3-.2-.3-.6v-1h.2v.9c0 .2.1.3.2.3s.2-.2.2-.4v-.8z" fill="#37271d"/><path d="m68.2 88c0-.1-.1-.2-.2-.2s-.1.1-.1.2c0 .3.5 0 .5.6 0 .3-.2.5-.4.5-.3 0-.4-.2-.4-.2l.1-.3s.2.2.3.2.2-.1.2-.2c0-.3-.5-.1-.5-.6 0-.3.2-.5.4-.5s.4.2.4.4v.1z" fill="#37271d"/><path d="m69.3 88.9s-.1.1-.3.1-.4-.2-.4-.6v-.6h-.1v-.3h.1v-.5h.2v.5h.3v.3h-.3v.6c0 .2 0 .3.2.3.1 0 .2-.1.2-.1z" fill="#37271d"/><path d="m69.9 86.6h.2v2.4h-.2z" fill="#37271d"/><path d="m70.5 87.1c-.1 0-.2-.1-.2-.2s.1-.3.2-.3.2.1.2.2c-.1.1-.1.3-.2.3zm-.2.2h.2v1.6h-.2z" fill="#37271d"/><path d="m71.2 88.2-.1.7h-.2v-2.4h.2v1.4h.1l.3-.6h.3l-.4.7.4.8h-.3z" fill="#37271d"/><path d="m72.6 88.3.1.2c-.1.2-.2.3-.4.3-.3 0-.5-.3-.5-.8s.2-.8.5-.9c.3 0 .4.3.4.7v.2l-.7.1c0 .2.1.4.3.4s.3-.2.3-.2zm-.5-.4h.4c0-.2-.1-.4-.2-.4s-.2.1-.2.4z" fill="#37271d"/><path d="m74.3 87.6v1h-.3v-.9c0-.2-.1-.3-.2-.3-.2 0-.2.3-.2.5v.8h-.3v-2.4h.3v1.1c.1-.2.1-.3.3-.3.3-.1.4.1.4.5z" fill="#37271d"/><path d="m75.6 87.7c0 .5-.2.9-.5.9s-.5-.3-.5-.8.2-.9.5-.9.5.3.5.8zm-.3 0c0-.3-.1-.5-.3-.5s-.3.2-.3.5.1.5.3.5.3-.2.3-.5z" fill="#37271d"/><path d="m77.4 87.4v1h-.3v-1c0-.2-.1-.3-.2-.3-.2 0-.2.3-.2.5v.9h-.3v-1c0-.2-.1-.3-.2-.3-.2 0-.2.3-.2.5v.9h-.3v-1.7h.2v.4c0-.2.2-.4.3-.4.2 0 .3.1.4.4 0-.2.2-.4.3-.4.4-.2.5.1.5.5z" fill="#37271d"/><path d="m78.5 87.8.1.2c-.1.2-.2.3-.4.3-.3 0-.6-.3-.6-.8s.2-.9.5-.9.5.3.5.8v.2l-.7.1c0 .2.1.4.3.4.2-.1.2-.2.3-.3zm-.6-.4h.5c0-.2-.1-.4-.2-.4-.2 0-.3.2-.3.4z" fill="#37271d"/><path d="m80.6 87.1v1h-.3v-1c0-.2-.1-.4-.2-.3-.2 0-.2.3-.2.5v.9h-.3v-1c0-.2-.1-.4-.2-.3-.2 0-.2.3-.2.5v.9h-.3v-1.7h.2v.4c.1-.2.2-.4.3-.4.2 0 .3.1.4.4 0-.2.2-.4.4-.4.2-.1.4.1.4.5z" fill="#37271d"/><path d="m81.9 88.1h-.1c-.1 0-.2-.1-.2-.3 0 .1-.1.3-.4.3-.2 0-.4-.2-.4-.4 0-.4.3-.6.7-.6v-.1c0-.2-.1-.3-.2-.3s-.2.1-.2.2v.1l-.2.1s0-.1 0-.2c0-.3.2-.6.5-.6s.5.2.5.6v.6c0 .1 0 .1.1.1zm-.4-.6v-.1c-.3 0-.4.1-.4.3 0 .1.1.2.2.2.1-.1.2-.2.2-.4z" fill="#37271d"/><path d="m83.2 85.4v2.6h-.2c0-.1 0-.3 0-.4-.1.2-.2.4-.4.4-.3 0-.5-.3-.5-.8 0-.6.2-.9.5-.9.2 0 .3.1.3.2v-1.1zm-.3 1.8v-.1c0-.2-.1-.5-.3-.4-.2 0-.3.2-.3.5s.1.5.3.5.3-.3.3-.5z" fill="#37271d"/><path d="m84.3 87.4.1.2c-.1.2-.3.3-.5.3-.4 0-.6-.3-.6-.8s.2-.9.6-.9c.3 0 .5.3.5.8v.2l-.8.1c0 .3.1.4.3.4.3-.1.4-.2.4-.3zm-.6-.5h.5c0-.2-.1-.4-.2-.4-.2 0-.3.2-.3.4z" fill="#37271d"/><path d="m84.8 87.4c.1 0 .2.1.2.3 0 .1-.1.3-.2.3s-.2-.1-.2-.3c.1-.2.1-.3.2-.3z" fill="#37271d"/><path d="m70.7 91.2 1.3-.1v.3l-1.3.1z" fill="#37271d"/><path d="m59 96h-.2v-1.1c0-.1 0-.2 0-.3v.2l-.3 1.2h-.1l-.3-1.2c0-.1 0-.2 0-.2v.3 1.1h-.2v-2h.2l.3 1.2c0 .1.1.3.1.3 0-.1 0-.2.1-.3l.3-1.2h.2v2z" fill="#37271d"/><path d="m60 95.3c0 .4-.2.8-.4.8-.3 0-.4-.3-.4-.7s.2-.8.4-.8c.3-.1.4.2.4.7zm-.2 0c0-.3-.1-.4-.2-.4s-.2.2-.2.5.1.4.2.4c.1-.1.2-.3.2-.5z" fill="#37271d"/><path d="m60.9 95.5.1.2c-.1.2-.2.3-.4.3-.3 0-.4-.3-.4-.8 0-.4.2-.8.4-.8s.4.3.4.7v.2h-.6c0 .2.1.4.2.4.2 0 .2-.1.3-.2zm-.5-.4h.4c0-.2-.1-.3-.2-.3s-.2.1-.2.3z" fill="#37271d"/><path d="m61.1 93.7h.2v2.3h-.2z" fill="#37271d"/><path d="m61.6 93.7h.2v2.3h-.2z" fill="#37271d"/><path d="m62.7 95.5.1.2c-.1.2-.2.3-.4.3-.3 0-.5-.3-.5-.8s.2-.8.4-.8.4.3.4.7v.2h-.6c0 .2.1.4.3.4.2-.1.2-.2.3-.2zm-.5-.4h.4c0-.2-.1-.3-.2-.3-.1-.1-.2 0-.2.3z" fill="#37271d"/><path d="m63.7 94.4v1.5h-.2c0-.1 0-.3 0-.3 0 .2-.1.3-.3.3s-.3-.2-.3-.6v-.9h.2v.9c0 .2.1.3.2.3s.2-.2.2-.4v-.8z" fill="#37271d"/><path d="m64.8 95.9h-.2l-.2-.4v-.1.1l-.2.4h-.2l.3-.8-.3-.7h.3l.1.4v.2s0-.1 0-.2l.1-.4h.3l-.3.8z" fill="#37271d"/><path d="m66 95.4.1.2c-.1.2-.2.3-.4.3-.3 0-.5-.3-.5-.8s.2-.8.4-.8c.3 0 .4.3.4.7v.2h-.6c0 .2.1.4.3.4.2-.1.2-.2.3-.2zm-.5-.5h.4c0-.2-.1-.3-.2-.3s-.2.1-.2.3z" fill="#37271d"/><path d="m66.9 95.7s-.1.1-.3.1-.3-.2-.3-.6v-.6h-.1v-.3h.1v-.4h.2v.5h.3v.3h-.3v.6c0 .2 0 .3.2.3.1 0 .2-.1.2-.1z" fill="#37271d"/><path d="m68.4 95c0 .5-.2.8-.4.8s-.3-.1-.3-.3v.3h-.2v-2.3h.2v1c.1-.1.1-.3.3-.3s.4.3.4.8zm-.2 0c0-.3-.1-.5-.2-.5-.2 0-.2.2-.2.4v.1c0 .2.1.4.2.4.1.1.2-.1.2-.4z" fill="#37271d"/><path d="m69.5 94.9c0 .5-.2.8-.5.8s-.5-.3-.5-.8.2-.8.5-.8.5.4.5.8zm-.2 0c0-.3-.1-.5-.2-.5s-.2.2-.2.5.1.5.2.5.2-.2.2-.5z" fill="#37271d"/><path d="m70.6 94.1v1.6h-.2c0-.1 0-.3 0-.3 0 .2-.1.3-.3.3s-.4-.3-.4-.6v-1h.2v.9c0 .2.1.3.2.3s.2-.2.2-.4v-.8z" fill="#37271d"/><path d="m71.4 94.1-.1.4h-.1c-.1 0-.2.2-.2.4v.8h-.2v-1.6h.2v.4c0-.2.1-.4.3-.4.1-.1.1 0 .1 0z" fill="#37271d"/><path d="m72.2 94.1-.1.4h-.1c-.1 0-.2.2-.2.4v.8h-.2v-1.6h.2v.4c0-.2.1-.4.3-.4 0-.1.1-.1.1 0z" fill="#37271d"/><path d="m73.1 95.1.1.2c-.1.2-.2.3-.4.3-.3 0-.5-.3-.5-.8s.2-.8.5-.9c.3 0 .5.3.5.7v.2h-.7c0 .2.1.4.3.4 0 .1.1 0 .2-.1zm-.6-.4h.5c0-.2-.1-.4-.2-.4-.2 0-.3.2-.3.4zm.3-.9h-.2l.1-.6h.3z" fill="#37271d"/><path d="m74.8 93.1v2.5h-.2c0-.1 0-.3 0-.3-.1.2-.2.4-.3.4-.3 0-.5-.3-.5-.8s.2-.9.5-.9c.2 0 .3.1.3.2v-1zm-.2 1.7c0-.3-.1-.5-.3-.5-.1 0-.2.2-.2.5s.1.5.3.5c.1 0 .2-.3.2-.5z" fill="#37271d"/><path d="m75.9 95 .1.2c-.1.2-.2.3-.4.3-.3 0-.5-.3-.5-.8s.2-.9.5-.9.5.3.5.8v.2h-.7c0 .2.1.4.3.4 0 0 .1-.1.2-.2zm-.6-.4h.5c0-.2-.1-.4-.2-.4-.2 0-.3.2-.3.4z" fill="#37271d"/><path d="m77.7 94.7c0 .5-.2.9-.5.9-.2 0-.3-.1-.4-.3v.3h-.2v-2.6h.3v1.1c.1-.2.2-.3.3-.3.3 0 .5.3.5.9zm-.2 0c0-.3-.1-.5-.3-.5s-.3.3-.3.5v.1c0 .2.1.4.3.4s.3-.2.3-.5z" fill="#37271d"/><path d="m78.6 93.8-.1.4s-.1-.1-.1 0c-.1 0-.2.2-.2.5v.8h-.3v-1.7h.2v.4c0-.2.1-.4.3-.4z" fill="#37271d"/><path d="m78.9 93.5c-.1 0-.2-.1-.2-.3s.1-.3.2-.3.2.1.2.3-.1.3-.2.3zm-.1.3h.3v1.7h-.3z" fill="#37271d"/><path d="m79.9 94.3c0-.1-.1-.2-.2-.2s-.2.1-.2.2c0 .4.6.1.6.7 0 .3-.2.5-.5.5s-.4-.2-.5-.2l.1-.3s.2.2.3.2.2-.1.2-.2c0-.3-.6-.1-.6-.7 0-.3.2-.5.4-.5.3 0 .4.2.4.5v.1z" fill="#37271d"/><path d="m81.4 93.7v1.7h-.2c0-.1 0-.3 0-.3-.1.2-.2.4-.3.4-.3 0-.4-.3-.4-.7v-1h.3v1c0 .2.1.4.2.4.2 0 .2-.3.2-.5v-.9z" fill="#37271d"/><path d="m82.4 93.7-.1.4s-.1-.1-.1-.1c-.1 0-.2.2-.2.5v.9h-.3v-1.7h.2v.4c0-.2.1-.4.3-.4.1-.1.1-.1.2 0z" fill="#37271d"/><path d="m83.4 94.8.1.2c-.1.2-.2.3-.5.3-.4 0-.6-.3-.6-.9 0-.5.2-.9.6-.9.3 0 .5.3.5.8v.2h-.8c0 .3.1.4.3.4.2.1.3 0 .4-.1zm-.7-.5h.5c0-.2-.1-.4-.2-.4-.1.1-.2.2-.3.4z" fill="#37271d"/><path d="m84.4 94.1c0-.2-.1-.2-.2-.2-.2 0-.2.1-.2.2 0 .4.7.1.7.7 0 .3-.2.5-.5.5s-.5-.2-.5-.2l.1-.3s.2.2.4.2c.1 0 .2-.1.2-.2 0-.3-.6-.1-.6-.7 0-.3.2-.5.5-.6.3 0 .5.2.5.5v.1z" fill="#37271d"/><path d="m86.5 92.6v2.7h-.2c0-.1 0-.3 0-.4-.1.2-.2.4-.4.4-.3 0-.5-.4-.5-.9 0-.6.2-.9.5-.9.2 0 .3.1.4.2v-1.1zm-.3 1.8v-.1c0-.2-.1-.5-.3-.5s-.3.2-.3.5.1.5.3.5c.2.1.3-.1.3-.4z" fill="#37271d"/><path d="m87.7 94.7.2.2c-.1.2-.3.3-.5.3-.4 0-.6-.4-.6-.9s.2-.9.6-.9c.3 0 .5.3.5.8v.2h-.8c0 .3.1.4.4.4.1.1.2 0 .2-.1zm-.6-.5h.5c0-.2-.1-.4-.3-.4-.1 0-.2.2-.2.4z" fill="#37271d"/><path d="m58 98.2v.1h-.2s0 0 0-.1-.1-.3-.2-.3-.2.2-.2.4c0 .3.1.4.2.4s.2-.1.2-.2l.1.2c-.1.1-.2.3-.3.3-.3 0-.4-.3-.4-.7s.2-.8.4-.8c.3.2.4.4.4.7z" fill="#37271d"/><path d="m58.9 98.3v.9h-.2v-.9c0-.2-.1-.3-.2-.3s-.2.2-.2.4v.8h-.2v-2.2h.2v1c0-.2.1-.3.3-.3s.3.2.3.6z" fill="#37271d"/><path d="m59.9 98.4c0 .4-.2.8-.4.8-.3 0-.4-.3-.4-.8 0-.4.2-.8.4-.8.3.1.4.4.4.8zm-.2 0c0-.3-.1-.5-.2-.4-.1 0-.2.2-.2.5s.1.4.2.4.2-.2.2-.5z" fill="#37271d"/><path d="m60.8 98.2v.1h-.2s0 0 0-.1-.1-.3-.2-.3-.2.2-.2.4c0 .3.1.5.2.5s.2-.1.2-.2l.1.2c-.1.1-.2.3-.4.3-.3 0-.4-.3-.4-.8s.2-.8.4-.8c.4.1.5.4.5.7z" fill="#37271d"/><path d="m61.8 98.4c0 .5-.2.8-.4.8-.3 0-.4-.3-.4-.8s.2-.8.4-.8c.3 0 .4.3.4.8zm-.2 0c0-.3-.1-.5-.2-.5s-.2.2-.2.5.1.4.2.4.2-.1.2-.4z" fill="#37271d"/><path d="m62 96.9h.2v2.3h-.2z" fill="#37271d"/><path d="m63.3 99.1s0 0-.1 0-.2-.1-.2-.2c0 .1-.1.2-.3.2s-.3-.2-.3-.4c0-.4.2-.5.5-.5v-.1c0-.2-.1-.3-.2-.3s-.2.1-.2.2v.1l-.2.1v-.1c0-.3.1-.5.4-.5.2 0 .4.2.4.6v.5c0 .1 0 .1.1.1zm-.3-.5v-.1c-.2 0-.3.1-.3.2s0 .2.1.2.2-.2.2-.3z" fill="#37271d"/><path d="m64 99s-.1.1-.2.1c-.2 0-.3-.2-.3-.6v-.6h-.1v-.3h.1v-.4h.2v.5h.3v.3h-.3v.6c0 .2 0 .3.1.3s.1-.1.1-.1z" fill="#37271d"/><path d="m65.5 98.4c0 .5-.2.8-.4.8-.1 0-.2-.1-.3-.2v.9h-.2v-2.2h.2v.3c0-.2.1-.3.3-.3.2-.1.4.2.4.7zm-.3 0c0-.3-.1-.5-.2-.5s-.2.2-.2.4v.1c0 .2.1.4.2.4s.2-.2.2-.4z" fill="#37271d"/><path d="m66.5 98.3c0 .5-.2.8-.5.8s-.5-.3-.5-.8.2-.8.5-.8.5.4.5.8zm-.2 0c0-.3-.1-.5-.2-.5s-.2.2-.2.5.1.5.2.5.2-.2.2-.5z" fill="#37271d"/><path d="m67.5 97.5v1.6h-.2c0-.1 0-.3 0-.3 0 .2-.1.3-.3.3s-.3-.3-.3-.6v-1h.2v.9c0 .2.1.3.2.3s.2-.2.2-.4v-.8z" fill="#37271d"/><path d="m68.4 97.6-.1.4h-.1c-.1 0-.2.1-.2.4v.8h-.2v-1.6h.2v.4c0-.2.1-.4.2-.4.1-.1.1-.1.2 0z" fill="#37271d"/><path d="m69.7 97.5v1.6h-.2c0-.1 0-.3 0-.3 0 .2-.1.3-.3.3s-.4-.3-.4-.6v-1h.2v.9c0 .2.1.3.2.3s.2-.2.2-.4v-.8z" fill="#37271d"/><path d="m70.9 98.1v1h-.2v-.9c0-.2-.1-.3-.2-.3-.2 0-.2.2-.2.4v.8h-.2v-1.6h.2v.3c0-.2.1-.4.3-.4.1.1.3.3.3.7z" fill="#37271d"/><path d="m72.5 98.3c0 .5-.2.8-.5.8-.2 0-.3-.1-.3-.3v.3h-.2v-2.4h.2v1.1c.1-.2.2-.3.3-.3.3-.1.5.3.5.8zm-.2 0c0-.3-.1-.5-.2-.5-.2 0-.2.2-.2.4v.1c0 .2.1.4.3.4 0 .1.1-.1.1-.4z" fill="#37271d"/><path d="m73.7 98.3c0 .5-.2.8-.5.8s-.5-.3-.5-.8.2-.8.5-.8c.3-.1.5.3.5.8zm-.3 0c0-.3-.1-.5-.3-.5s-.3.2-.3.5.1.5.3.5.3-.2.3-.5z" fill="#37271d"/><path d="m74.9 98.1v1h-.3v-1c0-.2-.1-.4-.2-.3-.2 0-.2.2-.2.5v.9h-.3v-1.6h.2v.4c.1-.2.2-.4.3-.4.3-.2.5.1.5.5z" fill="#37271d"/><path d="m76.5 99.3c0 .3-.1.5-.6.5-.4 0-.5-.2-.5-.4s.1-.3.2-.3c-.1-.1-.1-.2-.1-.3 0-.2.1-.3.1-.3-.1-.1-.1-.3-.1-.4 0-.4.2-.6.4-.6.1 0 .2 0 .3.1.1-.1.1-.2.1-.4l.2.1c0 .3-.1.4-.2.5 0 .1.1.2.1.4 0 .4-.2.6-.5.6-.1 0-.1 0-.2 0s-.1.1-.1.1c0 .1.1.1.2.1h.2c.4-.2.5-.1.5.3zm-.2 0c0-.1-.1-.2-.2-.2h-.2c-.2 0-.2.1-.2.2s.1.2.3.2.3-.1.3-.2zm-.3-1c.1 0 .2-.1.2-.3s-.1-.3-.2-.3-.2.1-.2.3.1.3.2.3z" fill="#37271d"/><path d="m77.7 98.2c0 .5-.2.9-.5.9s-.5-.3-.5-.8.2-.9.5-.9.5.3.5.8zm-.3 0c0-.3-.1-.5-.3-.5s-.3.2-.3.5.1.5.3.5.3-.2.3-.5z" fill="#37271d"/><path d="m78.9 97.4v1.7h-.2c0-.1 0-.3 0-.3-.1.2-.2.4-.3.4-.3 0-.4-.3-.4-.7v-1h.3v1c0 .2.1.4.2.4.2 0 .2-.3.2-.5v-.9z" fill="#37271d"/><path d="m79.9 98.9s-.1.1-.3.1c-.3 0-.4-.2-.4-.7v-.7h-.2v-.3h.2v-.5h.3v.5h.4v.3h-.4v.7c0 .2.1.4.2.4s.2-.1.2-.1z" fill="#37271d"/><path d="m82.3 98v1h-.3v-1c0-.2-.1-.4-.2-.4-.2 0-.2.3-.2.5v.9h-.3v-1c0-.2-.1-.4-.2-.4-.2 0-.2.3-.2.5v.9h-.3v-1.7h.2v.4c.1-.2.2-.4.4-.4s.3.1.4.4c.1-.2.2-.4.4-.4s.3.3.3.7z" fill="#37271d"/><path d="m83.7 99h-.1c-.1 0-.2-.1-.2-.3 0 .1-.1.3-.4.3-.2 0-.4-.2-.4-.5 0-.4.3-.5.7-.6v-.1c0-.2-.1-.3-.2-.3s-.2.1-.2.2v.1l-.3.2s0-.1 0-.2c0-.3.2-.5.5-.6.3 0 .5.3.5.7v.6c0 .1 0 .1.1.1zm-.4-.6v-.1c-.3 0-.4.1-.4.3 0 .1.1.2.2.2.1-.1.2-.2.2-.4z" fill="#37271d"/><path d="m84 97c-.1 0-.2-.1-.2-.3s.1-.3.2-.3.2.1.2.3-.1.3-.2.3zm-.1.3h.3v1.7h-.3z" fill="#37271d"/><path d="m85.1 97.8c0-.2-.1-.2-.2-.2s-.2.1-.2.2c0 .4.7.1.7.8 0 .3-.2.5-.5.5s-.5-.2-.5-.3l.1-.3s.2.2.4.2c.1 0 .2-.1.2-.2 0-.3-.7-.1-.7-.8 0-.3.2-.5.5-.5s.5.2.5.5v.1z" fill="#37271d"/><path d="m86.8 98.1c0 .5-.2.9-.6.9s-.6-.4-.6-.9.2-.9.6-.9c.3 0 .6.4.6.9zm-.4 0c0-.3-.1-.5-.3-.5s-.3.2-.3.5.1.5.3.5c.2.1.3-.2.3-.5z" fill="#37271d"/><path d="m88.1 97.9v1.1h-.3v-1c0-.2-.1-.4-.2-.4-.2 0-.3.3-.3.5v.9h-.3v-1.8h.2v.4c.1-.2.2-.4.4-.4.3 0 .5.3.5.7z" fill="#37271d"/><path d="m88.5 98.5c.1 0 .2.1.2.3 0 .1-.1.3-.2.3s-.2-.1-.2-.3.1-.3.2-.3z" fill="#37271d"/><path d="m54.7 162.6h-.3v-.6h.6.1v2.6l-.4-.2z" fill="#37271d"/><path d="m56 164.4.4.2v.6l-1.1-.5v-.4c.3-.3.7-.5.7-.9 0-.2-.1-.3-.2-.4-.1 0-.1 0-.1.2v.1h-.4c0-.1 0-.1 0-.2 0-.5.2-.7.5-.6s.5.6.5 1.2c0 .5-.2.7-.4.9h-.1l.2-.2c-.1 0-.1 0 0 0z" fill="#37271d"/><path d="m57.6 165.2c0 .4-.1.6-.3.5-.1 0-.1-.1-.2-.2v.6l-.2-.1v-1.7l.2.1v.2c0-.1.1-.2.2-.1.2 0 .3.3.3.7zm-.3-.2c0-.1 0-.2-.1-.3-.1 0-.1 0-.1.1v.1c0 .1 0 .2.1.2.1.1.1.1.1-.1z" fill="#37271d"/><path d="m58.4 166.1s0 0-.1 0-.2-.1-.2-.3c0 .1-.1.1-.2.1-.1-.1-.2-.2-.2-.4 0-.3.2-.3.4-.2 0-.1 0-.2-.1-.2s-.1 0-.1.1h-.2v-.1c0-.2.1-.3.3-.2s.3.3.3.7v.3.1zm-.4-.6c-.1-.1-.2-.1-.2 0s0 .1.1.1.1 0 .1-.1z" fill="#37271d"/><path d="m59 165.7h-.2c0-.1 0-.1-.1-.2-.1 0-.1.1-.1.2 0 .2 0 .3.1.3h.2l.1.3c0 .1-.1.2-.3.1s-.4-.4-.4-.8.1-.6.4-.5c.2.1.3.3.3.6z" fill="#37271d"/><path d="m59.4 166.2v.4l-.3-.1v-1.8l.3.1v1h.1l.1-.3.3.1-.2.5.3.8-.3-.1z" fill="#37271d"/><path d="m60.3 165.2.2.1-.4 2.2-.2-.1z" fill="#37271d"/><path d="m61.5 167.4c0 .1-.1.1-.3.1-.2-.1-.4-.4-.4-.8s.1-.6.4-.5c.2.1.3.4.3.7v.1l-.4-.2c0 .1.1.2.2.3h.2zm-.4-.7.2.1c0-.1 0-.2-.1-.2 0-.1-.1 0-.1.1z" fill="#37271d"/><path d="m62.8 167.4v.8l-.3-.1v-.6c0-.1 0-.2-.1-.2s-.1.1-.1.2v.6l-.3-.1v-.6c0-.1 0-.2-.1-.2s-.1.1-.1.2v.6l-.3-.1v-1.2l.2.1v.2c0-.1.1-.2.2-.1s.2.2.2.4c0-.1.1-.2.2-.2.4-.2.5.1.5.3z" fill="#37271d"/><path d="m63.7 168c0 .4-.1.6-.3.5-.1 0-.2-.2-.2-.3v.2l-.2-.1v-1.9l.3.1v.8c0-.1.1-.1.2-.1 0 .1.2.4.2.8zm-.3-.1c0-.2 0-.3-.1-.3s-.1 0-.1.1v.1c0 .1.1.2.1.2 0 .1.1 0 .1-.1z" fill="#37271d"/><path d="m63.9 168.2c.1 0 .1.2.1.3s-.1.2-.1.2c-.1 0-.1-.2-.1-.3-.1-.1 0-.2.1-.2z" fill="#37271d"/><path d="m87.2 178.5.3.1v.7l-.3-.1v.6l-.6-.3v-.6l-1-.5v-.7l.9-1.5.7.3zm-.5-1c0-.1 0-.3 0-.3s-.1.2-.1.2l-.3.5s-.1.1-.1.1.1 0 .2.1l.3.2z" fill="#37271d"/><path d="m89.2 177.5v.7l-.9-.4v.5h.3c.4.2.7.8.7 1.4 0 .7-.4 1-.9.7-.6-.3-.9-1.1-.9-1.1l.4-.3s.2.4.4.6c.2.1.3 0 .3-.2s-.1-.4-.3-.5-.2 0-.2.1l-.5-.2.1-1.9z" fill="#37271d"/><path d="m91.3 180.7c0 .6-.3.9-.8.7-.6-.3-.9-1.1-.9-2.1s.4-1.5 1-1.2c.3.1.6.4.8.9l-.4.3c0-.1-.2-.3-.3-.4-.3-.1-.4.1-.4.6.1-.2.2-.3.5-.2.3.2.5.8.5 1.4zm-.5-.3c0-.2-.1-.4-.3-.5s-.3 0-.3.2c.1.2.2.4.3.4.2.2.3.1.3-.1z" fill="#37271d"/><path d="m93.2 182.9c0 .4-.2.7-.9.4-.6-.3-.8-.7-.8-1 0-.2.1-.3.3-.3-.1-.2-.2-.4-.2-.6 0-.3.1-.4.2-.4-.1-.2-.2-.4-.2-.6 0-.5.3-.7.7-.5.1.1.3.2.4.3.1 0 .1-.3.1-.5l.4.4c0 .3-.2.5-.4.4.1.2.1.4.1.6 0 .5-.3.7-.7.5-.1 0-.2-.1-.3-.2-.1 0-.1 0-.1.1s0 .1.2.2l.4.2c.5.1.8.5.8 1zm-.5-.2c0-.1-.1-.2-.2-.2l-.2-.1c-.2-.1-.3-.1-.3 0s.1.2.3.3c.3.1.4.1.4 0zm-.4-1.8c.1.1.2 0 .2-.2 0-.1-.1-.3-.2-.4s-.2 0-.2.2.1.4.2.4z" fill="#37271d"/><path d="m100 122.7-1.6-1.1-1 2.1 2.3 3.5.3-.1z" fill="#4e3d34"/><path d="m51.5 55.1-1 .4v5.4l.2-.6.7-.4.8-1.9z" fill="#4e3d34"/><path d="m50.5 67.8v2.7l.6-.7.1-1.9z" fill="#4e3d34"/><path d="m100 44.2-49.5 15.2v-18.8l49.5-22.3z" fill="#2c4e5f"/><path d="m80.1 31.8c-.3.9-.6 1.5-1 2.1-.1.1-.1.4-.3.3-.1-.1-.1-.3 0-.5 0-.3.1-.7.1-1.1.1-.3 0-.5-.2-.6-.2 0-.2.3-.3.5-.1.1-.1.3-.1.5-.2 1.4-.1 2.8-.2 4.2 0 .2 0 .5.2.4s.2-.4.2-.6c0-.3 0-.7 0-1 0-.4 0-.9.3-1 .2-.1.2.4.2.7.1.7.3 1.3.6 1.8.4.5.7.4 1.1-.3.2-.4.4-.8.5-1.2.1-.7.3-.6.5-.5s.2.3.2.5c.1.5.3.9.6 1.1.2.1.3 0 .3-.4s0-.8-.3-1.1c.4-.1.7-.3.8.3.1.5.3.8.7.8.1 0 .3 0 .3-.2.1-.2.1-.4 0-.6-.1-.3-.3-.5-.4-.7.3-.3.5-.3.7-.1.2.3.6.3.9.2.1-.1.2-.2.3-.4 0-.2-.1-.3-.1-.4-.1-.2-.3-.2-.5-.3 0-.2.1-.2.1-.2.2-.3.5-.6.6-1.1.1-.7-.1-1.1-.5-1.2-.5-.1-1 .3-1.2 1-.1.3-.1.6 0 .8.2.3.3.5.6.2.2-.2.4-.5.4-.8 0-.2 0-.3-.2-.4-.1 0-.3 0-.4.2s0 .2.1.3 0 .2 0 .3c-.1.2-.2.1-.3 0s-.2-.3-.1-.5c.2-.4.4-.8.7-.8s.5.1.6.6c0 .4-.1.8-.4 1.1-.2.2-.3.3-.5.5-1.3 1-2.5 1.2-3.6.8-.2-.1-.3-.1-.5-.1-.2.1-.4.3-.4.6-.1.3-.1.6.1.8.1.1.1.2.2 0 .1-.1.1-.2 0-.3s-.1-.3 0-.6c.1-.1.2-.2.3-.2s.2.2.2.4c0 .5-.1 1-.3 1.4-.3.6-.5.7-.7.2-.2-.4-.3-.8-.4-1.3-.4-1.5-.4-1.5.3-3.1.1-.1.3-.5.2-1z" fill="#fdea00"/><path d="m72.2 35.4c-.1-.4-.1-.7-.3-.7s-.3.3-.4.6c0 .1-.1.2-.2.3 0 .1-.2.2-.1.3s.2 0 .2-.1c.1-.1.1-.3.2-.3s0 .2 0 .4v.4c0 1.5-.2 3.1-.3 4.6 0 .2-.1.5.1.4.2 0 .3-.2.3-.5.1-1.3.4-2.6.3-3.8 0-.5 0-1 .2-1.5 0-.1.1-.3.2-.3s.1.2.1.3c.1 1.1.1 2.3 0 3.5 0 .5-.1 1.1-.1 1.6 0 .1-.1.4.1.4.1 0 .2-.2.3-.4 0-.2 0-.3.1-.5.1-1.5.4-3.1.6-4.6 0-.2.1-.4.2-.4.1-.1.1.2.1.3.1.5.1 1 .1 1.5-.1 1-.2 2-.3 2.9 0 .2-.2.5.1.5.2 0 .3-.1.4-.6.1-1.4.3-2.9.2-4.3 0-.4 0-.8-.2-1.1-.2-.5-.3-.4-.5.2s-.3 1.3-.5 1.9c-.1-.5-.1-1.1-.2-1.5-.2-.4-.3-.4-.6 0 0 .1 0 .3-.1.5z" fill="#fdea00"/><path d="m75.4 42.7c.2 0 .3-.3.4-.5s.2-.2.2.1v1c0 1.2-.1 2.4-.2 3.5 0 .2-.1.5.1.5s.2-.3.3-.5c.1-1 .1-2.1.2-3.1 0-.5.1-.9.2-1.4 0-.1.1-.3.2-.3s.1.2.1.3c.1 1.3.1 2.7 0 4 0 .2-.1.6.2.5.2-.1.3-.3.3-.6 0-.8 0-1.6 0-2.4 0-.6 0-1.3.2-2 0-.1.1-.3.2-.4.1 0 .1.2.1.3.1.5.2 1 .2 1.6 0 .9 0 1.8.1 2.6 0 .5.1.9.5 1 .2 0 .4.1.6-.3.3-.5.4-1.1.3-1.6 0-.3-.1-.6-.3-.5s-.3.4-.4.7c0 .1-.1.4 0 .4s.1-.2.1-.3c0-.3.1-.6.3-.4s.1.5 0 .8c-.1.4-.2.7-.5.8-.2.1-.3 0-.4-.3s-.1-.6-.1-.9c.1-1 .1-2 .2-3 0-.4 0-.9-.1-1.3-.1-.3-.2-.4-.5-.4-.4.1-.4.5-.6 1 0-.5-.2-.8-.4-.8-.3.1-.3.6-.5 1-.1-.3-.1-.7-.4-.5-.3.4-.5.9-.6 1.4z" fill="#f8a353"/><path d="m60.4 39.3c-.1.3-.2.4-.4.5-.5.5-1 .8-1.5 1.4-.4.5-.8 1.2-.9 2.1-.1.4.1.9.3 1s.5-.2.5-.5c.1-.4 0-.9-.1-1-.1 0-.1-.1-.2 0v.2c.2.3 0 .5-.1.7s-.1.2-.2.1c-.1-.2-.1-.4 0-.6.1-.6.4-1 .7-1.3.3-.4.3-.4.3.3 0 1.5-.1 3.1-.1 4.6 0 .2 0 .5.1.4s.2-.3.2-.5c0-.7 0-1.4.1-2.2 0-.3 0-.6 0-.9.1-.3.3-.2.5-.3s.1 0 .1-.1 0-.2-.1-.2-.1-.1-.2-.1c-.4 0-.4 0-.4-.8 0-1 0-1 .6-1.6.3-.4.3-.4.5.2v.1c0 .1 0 .2.1.1s0-.2 0-.2c.2-.5.2-.9.2-1.4z" fill="#fdea00"/><path d="m64.1 43.5c.1-1.1.2-2.2.5-3.3.1.1.1.2.1.3 0 .8.1 1.6.1 2.4 0 .2 0 .5.2.2.1-.2.3-.5.2-.9-.1-1-.1-2-.2-3 0-.2 0-.4-.2-.3-.1 0-.2.2-.2.4-.1.8-.4 1.5-.5 2.2-.1-.6-.3-1.1-.3-1.8 0-.2 0-.4-.2-.4s-.2.3-.2.5-.1.3-.1.5c-.1 1-.1 1.9-.2 2.9 0 .2 0 .4.2.5 0-.9 0-1.8.2-2.7.1.9.2 1.7.6 2.5z" fill="#fdea00"/><path d="m70.8 43.2c-.2.4-.2.4-.5.5-.4.1-.7.5-.9 1-.1.5-.1 1 .2 1.4.1.1.2.3.4.4.1.1.2.3.3.5.2.4.2 1 0 1.5-.1.4-.4.6-.6.7-.3.1-.4-.1-.5-.5s0-.8.2-1.1c.1-.2.2-.2.3 0 .1.1.1.3 0 .5 0 .1-.2.2-.1.4.3-.1.4-.3.4-.8 0-.4-.1-.6-.3-.5-.4.1-.7.6-.7 1.1 0 .9.2 1.4.7 1.3.6-.1 1.1-.8 1.2-1.6.1-.7-.1-1.2-.4-1.5-.2-.3-.5-.6-.7-1-.1-.3-.1-.5 0-.9s.3-.5.4-.6c.2-.1.2.2.2.4 0 .1 0 .2.1.2s.1-.2.1-.2c.1-.4.1-.7.2-1.2z" fill="#f8a353"/><path d="m85.3 38.4c.2.1.3.3.3.6-.1.5-.2 1.1-.2 1.6 0 .4-.3.5-.4.5-.2.1-.2-.2-.2-.4 0-.6.1-1.3.2-1.9 0-.2 0-.4-.1-.4s-.3.1-.3.3c-.1.2-.1.5-.1.7-.1 1.6-.2 3.2-.2 4.7 0 .2-.1.5.1.5s.3-.3.3-.6c0-.6.1-1.2.1-1.8 0-.2 0-.5.2-.5.2-.1.4.1.4.4v.6c0 .2 0 .5.2.4s.1-.3.1-.5c.1-1.4.1-2.9.3-4.3 0-.4-.1-.5-.3-.3-.1.1-.2.2-.4.4z" fill="#f8a353"/><path d="m70.6 35.6c-.2.3-.4.4-.6.4s-.3.2-.5.3c-.4.5-.5 1.3-.1 1.6.2.2.5.4.5.9.1.4-.1.9-.3 1.1-.3.2-.5-.1-.6-.5 0-.2.1-.4.2-.5s.1-.1.2-.1c.1.1.1.2 0 .4v.2h.1c.1-.2.2-.4.1-.6-.1-.4-.3-.2-.5-.1s-.3.4-.3.7c0 .6.3.8.6.9s.5 0 .7-.4c.3-.5.3-1 .1-1.6-.1-.4-.4-.6-.6-.9-.2-.2 0-.5.1-.7s.3-.3.4 0c0 .1 0 .3.2.2.1-.1.2-.3.2-.5 0-.3.1-.5.1-.8z" fill="#fdea00"/><path d="m66.5 48.3c0 .6.1 1 .3 1.3.2.4.6.3.9-.2.1-.1.2-.3.1-.4s-.1.1-.2.2c-.2.4-.4.4-.5 0-.2-.8 0-1.7.1-2.5.1-.4.2-.8.3-1.2.1-.1.2-.3.2-.1 0 .1 0 .3.1.2s.1-.3 0-.4c0-.1 0-.3 0-.4s0-.3-.1-.2c-.4.4-.8.6-1 1.5-.1.7-.2 1.4-.2 2.2z" fill="#f8a353"/><path d="m65.5 40.3v1.4c0 .5.1.9.1 1.4 0 .2.2.3.2 0 .1-.4.3-.6.5-.7.1 0 .1-.1.1-.2 0 0-.1-.1-.1-.1-.1 0-.1 0-.2.1-.2.2-.3.1-.2-.2 0-.1 0-.2 0-.3 0-.3-.1-.6 0-.9.1-.4.3-.3.5-.5.1-.1.2-.1.1-.3 0-.1-.1 0-.2 0-.1.1-.2.1-.3.2-.1 0-.1.1-.2-.1-.1-.4-.1-.9 0-1.4.1-.4.3-.2.4-.4.1 0 .1-.1.1-.2s-.1-.1-.1 0c-.2 0-.3.2-.5.2-.3-.1-.4.1-.4.6.2.4.2.9.2 1.4z" fill="#fdea00"/><path d="m64.4 49.6c-.2-.3-.5.6-.6-.1-.1-.6 0-1.1.5-1.2-.1-.3-.4.1-.4-.4 0-.3 0-.6.1-.9.2-.5.4-.2.6 0 .1-.4 0-.7-.1-1.1-.1.5-.2.6-.4.7-.2 0-.3.1-.5.2-.1.1-.3.1-.2.5.1.1 0 .4 0 .6 0 .6-.1 1.2 0 1.7 0 .3 0 .5-.2.8.5-.2.8-.5 1.2-.8z" fill="#f8a353"/><path d="m64.8 51.3c.3-.4.6-.6.9-.7.3 0 .5-.6.4-1.1 0-.2-.1-.1-.1 0-.1.6-.4.6-.6.9-.3.3-.3.1-.2-.3.1-1 0-2 .1-3 0-.2 0-.4-.1-.3s-.3.1-.2.5v.5c-.2 1.1-.2 2.3-.2 3.5z" fill="#f8a353"/><path d="m81.7 30.3c-.3 0-.5.4-.8.4-.4.1-.4.5-.5.8-.1.9-.1 1.8 0 2.6.1.4.3.4.5.2.2-.4.4-.6.7-.8.1-.1.2-.2.1-.4 0-.2-.1-.1-.2 0s-.1.1-.2.2c-.2.3-.3.2-.3-.3 0-.3.1-.4.3-.5.1-.1.3-.2.3-.5s-.2-.2-.3-.1c-.3.1-.3-.1-.3-.4s.1-.5.3-.7c.1-.1.3-.2.4-.5z" fill="#fdea00"/><path d="m84 39.5c-.2.3-.3.4-.5.4s-.4.2-.6.5c-.4.7-.7 2-.6 2.8.1.5.4.9.7.9.3-.1.5-.5.6-1-.2.1-.5.3-.6-.1-.4-.8 0-2.2.6-2.9.1.1-.1.6.2.5.1-.2.2-.5.2-1.1z" fill="#f8a353"/><path d="m87.6 39.8c-.2-.1-.3 0-.4.1s-.2.2-.2 0c-.1-.4 0-.9.3-1 .1 0 .2-.1.3-.1.1-.1.2-.1.2-.3s-.1-.1-.2-.1c-.2.1-.4.3-.6.3-.4.1-.5.4-.5.9-.1 1 0 1.9 0 2.8 0 .2 0 .4.2.4.5-.1.9-.4 1.2-.9-.2.1-.4.2-.7.3-.2.1-.3.1-.3-.2 0-.5 0-1 .1-1.4s.4-.3.6-.6c-.1 0-.1-.1 0-.2z" fill="#f8a353"/><path d="m81.8 31.4c.1.1.2.1.3 0 .3-.2.4 0 .3.5-.1.6-.1 1.2-.2 1.8 0 .3 0 .5.2.5s.2-.3.3-.5c0-.3.1-.7.1-1 .1-.7 0-1.5.7-1.8 0 0 .1-.1.1-.1.1-.1.2-.3.1-.4 0-.1-.1-.1-.2-.1-.4.1-.7.3-1.1.4-.2.1-.4.3-.6.7z" fill="#fdea00"/><path d="m68.8 48.3c-.2-.2-.4.2-.5-.2-.1-.5 0-1.1.4-1.3.1-.1.3-.1.3-.4s-.2 0-.3-.1c-.1 0-.3.2-.3 0 0-.3 0-.6.1-1 0-.2.2-.1.3-.2s.1.3.3.2c.1-.7.1-.7-.2-.5-.2.1-.3.2-.5.3-.1 0-.2.1-.2.3 0 .7-.1 1.3-.2 2-.1 1.1.1 1.3.7.8 0 .3 0 .2.1.1z" fill="#f8a353"/><path d="m73.6 43.2c-.1.1-.3.2-.3.3.1.5-.1 1-.1 1.5 0 .6.3.8.6.5.1-.1.2-.2.3.1 0 .2.2.1.3 0 .1 0 .1-.2.1-.3 0-.7 0-1.5.1-2.2 0-.2 0-.3-.1-.2-.1 0-.2.1-.2.3v.6c0 .5-.1.9-.3 1.4-.1.2-.2.3-.3.3s-.1-.2-.1-.4c-.1-.6-.1-1.2 0-1.9z" fill="#f8a353"/><path d="m65.6 48.2v.4c0 .3.2.2.3.2s.1-.1.1-.3c0-.7.1-1.4.1-2.1 0-.2 0-.5-.1-.5s-.2.3-.2.5c-.1.6-.2 1.3-.2 1.8z" fill="#f8a353"/><path d="m73.3 46.6c-.5.2-1 .4-1.5.6-.1 0-.1.1-.2.2s0 .3 0 .3c.1.1.1-.1.2-.1.2-.1.5-.3.7-.4.5-.2 1-.3 1.5-.4.1 0 .3-.1.4-.3 0-.1.1-.2.1-.4 0-.1-.1 0-.2 0-.3.3-.6.4-1 .5z" fill="#f8a353"/><path d="m68.5 37.1c0 .1 0 .3.1.3s.1-.1.2-.3c.1-.4.2-.7.2-1.1 0-.1.1-.3 0-.3s-.2 0-.3.3-.2.7-.2 1.1z" fill="#fdea00"/><path d="m83.8 33.4c-.3.3-.5.6-.6 1v.4c.1.1.2.1.3-.1.2-.3.4-.7.4-1.1 0-.2 0-.3-.1-.2z" fill="#fdea00"/><path d="m65.9 44.7c-.1.1-.2.2-.2.4s.1.3.2.3c.2 0 .2-.3.2-.5s-.1-.2-.2-.2z" fill="#f8a353"/><path d="m86.7 38.1c0 .1 0 .1.1.2.4-.5.8-.9 1.1-1.4 0 0 0-.1-.1-.1-.4.3-.8.7-1.1 1.3z" fill="#f8a353"/><path d="m63.6 46.3c.2-.2.4-.5.6-.8 0-.1.1-.2 0-.2h-.1c-.1.3-.3.5-.5 1z" fill="#f8a353"/><path d="m87.2 33.3c.1.5.1.5.8-.3-.3.1-.5.6-.8.3z" fill="#fdea00"/><path d="m86.5 33.7c.1.1.1.5.3.3.1-.1.2-.3.1-.5-.1 0-.1.4-.2.2s-.3-.1-.4 0v.7c.2-.3.1-.5.2-.7z" fill="#fdea00"/><path d="m62.7 47.2c-.7-1.1-1.5-.7-2.3.3-.2.3-.3.7-.3 1.2 0 .4.4.7.5.5.2-.2.2-.5.2-.9-.1.2-.1.3-.1.3 0 .2-.1.4-.2.4s-.1-.2-.1-.4c0-.5.2-1.1.5-1.4.1-.1.2-.2.3-.1s0 .3 0 .5v.4c.1 1.3 0 2.6 0 3.9 0 .5-.2.4-.4.5s-.1-.2-.1-.4c.1-.6-.1-.9-.3-1.2-.1-.2-.2-.1-.3.3 0 .5 0 1 .2 1.3-.4-.1-.9-.2-1-1-.1-.4-.2-.6-.5-.6-.2 0-.3.2-.3.5 0 .5.2 1 .5.9.2-.1.4.1.6.3-.2.2-.3.3-.4.5 0 .1-.1.1-.1.3s.1.2.2.2c.2 0 .5 0 .7-.3.2-.4.5-.4.7-.5.1 0 .1-.1.2-.1.1-.1.3-.4.3.1 0 .1.1.1.2.1.3-.4.7-.6.9-1.2.1-.3.2-.5.3-.8.5-1.1.6-2.8.1-3.6zm-3.6 4.8c-.1 0-.3-.4-.3-.6 0-.1 0-.2.1-.2s.3.4.3.6c-.1.1-.1.1-.1.2zm.8.9c0 .3-.2.3-.3.3s-.2.1-.2-.1.2-.3.3-.4c.1 0 .2 0 .2.2zm.6-.8c-.1 0-.2-.4-.2-.7 0-.1 0-.3.1-.3.2.1.2.4.2.6s0 .4-.1.4zm1.3-.1c-.1.1-.2.4-.2-.1-.1-.8 0-1.6 0-2.3 0-.8.1-1.4 0-2.1 0-.4.1-.4.2-.4.4.2.7.7.8 1.5.1 1.1-.2 2.7-.8 3.4z" fill="#f8a353"/><path d="m68.8 40.7c-.1-.3-.2-.4-.5-.2-.2.2-.3.5-.2.8 0 .1 0 .2.1.2s.1-.2.1-.3c0-.2 0-.3.1-.4.2-.1.2.1.2.4 0 .4-.2.8-.4 1.1-.1.2-.3.2-.3 0-.1-.4-.1-.8-.2-1.2-.2-.5-.1-1 .1-1.7.4-1.4.4-2.4-.5-2.4-.2 0-.3.2-.4.6-.1 1.7-.2 3.4-.2 5.1v1c.2-.2.3-.5.3-.9.1-.6 0-1.1.1-1.7 0-.2.1-.4.2-.4.1-.1.1.2.1.3.1.6.1 1.2.3 1.6.2.5.6.5.8-.1.4-.7.4-1.3.3-1.8zm-1.5-.4c-.1 0-.1 0 0 0 0-.9 0-1.7.1-2.6 0-.1 0-.2.1-.3s.1.1.1.1c.3.5.3 1.2 0 1.9-.1.4-.2.6-.3.9z" fill="#fdea00"/><path d="m57.1 53.6c0-1 0-2.1 0-3.1-.1-1.9 0-3.8 0-5.8 0-1.1.1-2.3 0-3.4-.1.2-.3.2-.4.2-.2.1-.2.2-.2.6v1.4c-.1 1.1-.1 2.1-.1 3.1.1 1.8.1 3.5 0 5.3 0 .7-.1 1.4 0 2.1 0 .2 0 .4.1.4.2 0 .4 0 .6-.3.2-.2 0-.3 0-.5zm-.1-9.4c-.1 3-.1 6 0 8.9v.5c0 .2 0 .3-.1.4-.1 0-.2-.1-.2-.3 0-.4 0-.7 0-1.1.1-2.9 0-5.8-.1-8.7 0 3.4.1 6.8-.1 10.3-.1 0-.1-.3-.1-.5 0-.8 0-1.7.1-2.5.1-1.7 0-3.3-.1-5 0-.9-.1-1.8.1-2.7.1-.5 0-1 0-1.5 0-.2 0-.4.2-.5s.2 0 .2.3c.2.8.2 1.6.1 2.4z" fill="#fff"/><path d="m63.4 44.3c0-.1-.1-.1-.2 0s-.2 0-.2-.2c-.2-.5-.2-1.1-.4-1.6-.1-.2 0-.4 0-.7.4-1.7.2-2.9-.9-2.7-.2 0-.3.2-.3.5v1c.1 1.4.2 2.8.3 4.2 0 .4.1.6.3.8 0-.4 0-.8 0-1.2s0-.8-.1-1.2c0-.3.1-.4.2-.5.1-.2.2 0 .2.1.2.5.3 1 .5 1.5v.4c-.1.4 0 .4.2.3.1-.1.2-.2.3-.4.1 0 .1-.1.1-.3zm-1.3-1.8c-.1-.9-.2-1.8-.2-2.7 0-.3.1-.4.2-.3.2 0 .3.3.3.6.1.8-.1 1.6-.3 2.4z" fill="#fdea00"/><path d="m89.8 28.5c-.1-.9-.1-.9-.7-.5-.3.2-.3.7-.3 1-.2 3.5 0 6.8-.1 10.6v3.3.3c.3 0 .6.2.9-.1.3-.2.2-.6.2-1 0-2.7 0-5.4.1-8.1.2-1.8 0-3.6-.1-5.5zm-.4 14.4c-.3.3-.5.2-.4-.3 0-1.9.1-3.8 0-5.6-.1-2.1-.1-4.3-.1-6.5 0-.6 0-1.2 0-1.8 0-.4.2-.5.3-.6.3-.1.1.3.1.4-.1 1.7.1 3.3 0 4.3-.1 2.5 0 4.4-.1 6.3 0 1 .1 2 .2 3.1.1.3.2.5 0 .7zm.2.2c-.3-4.8-.1-9.7-.1-14.7.4.8.4 14.1.1 14.7z" fill="#fff"/><path d="m82.3 45c-.1-.3-.1-.6-.2-.9-.2-.6-.4-1.1-.1-2 .4-1.4-.2-2.5-1.1-2.1-.1.1-.4.2-.2.5s.1.6.1.9c0 .9-.1 1.9-.1 2.8v1.1c0 .2-.1.5.2.4.2-.1.3-.2.3-.5 0-.4 0-.8.1-1.2 0-.1 0-.3.1-.3s.1.1.1.2c.2.5.4 1 .6 1.5 0 .1.1.3.2.1 0-.2.1-.3 0-.5zm-1.1-2.1c0-.7 0-1.4 0-2.1 0-.2 0-.4.1-.5s.2.1.2.2c.4.5.3 1.6-.3 2.4z" fill="#f8a353"/><path d="m78.3 38.4c-.1-.4-.2-.8-.4-1-.4-.5-.4-1-.2-1.9.2-1.3 0-1.8-.7-1.8-.4 0-.5.2-.6.8v.7c0 1 .2 1.9.2 2.9v1.2c0 .2.1.4.3.3s.2-.3.2-.6 0-.7 0-1c0-.2-.1-.4.1-.6s.2.1.3.2c.3.3.4.7.6 1.1 0 .1.1.2.2.1.1-.2 0-.3 0-.4zm-1.1-2.2c0 .1-.1.2-.1.2-.1 0-.1-.1-.1-.2 0-.5-.1-.9-.1-1.4.1-.2-.1-.5.1-.7.2-.1.3.1.4.4.2.5 0 1.1-.2 1.7z" fill="#fdea00"/><path d="m61.5 44.9c0-.6 0-1.1-.1-1.6-.1-.8-.3-1.5-.3-2.4 0-.2 0-.4-.2-.4s-.2.3-.2.5c-.2.9-.4 1.8-.6 2.7-.1.7-.3 1.4-.3 2.2.2-.1.2-.3.2-.5 0-.4.1-.8.2-1.2.1-.5.3-.4.5-.5s.2.2.2.4c0 .5.1.9.4 1.1 0 0 .1.1.1 0 .1-.1.1-.2.1-.3zm-1-1.5c-.1 0-.1-.1-.1-.2.1-.4.1-.8.3-1.2 0 .4.1.6.1.8s-.1.5-.3.6z" fill="#fdea00"/><path d="m76.3 37.8c-.1-1.3-.3-2.4-.6-3.5-.1-.3-.1-.7-.3-.5-.2.1-.4.4-.4.9-.1.9-.2 1.7-.3 2.6-.1.6-.1 1.3-.1 1.9.2-.2.2-.5.2-.7.1-1 .1-1.2.6-1.6.2-.2.3-.2.3.2s0 .9.1 1.2c.1.2.2.4.4.3.1-.3.1-.6.1-.8zm-1.2-1.3c-.1 0-.1-.1-.1-.3.1-.4.1-.9.2-1.3h.1c0 .3.1.6.1.9.1.3-.1.6-.3.7z" fill="#fdea00"/><path d="m80.3 44.2c-.1-.9-.2-1.7-.3-2.7 0-.2 0-.4-.2-.4s-.3 0-.4.4c-.2.7-.4 1.3-.6 2-.1.3-.2.6-.1.9.2-.1.2-.3.2-.5.1-.6.4-.4.6-.6.2-.1.2.2.2.4 0 .3.1.5.1.8s.2.3.4.2.1-.3.1-.5zm-1.2-1c.1-.4.2-.8.4-1.1.2.6.2.8-.4 1.1z" fill="#f8a353"/><path d="m73 44.1c-.2-.5-.9-.6-1.4 0 .4-.1.3.3.3.5 0 .6-.1 1.2-.1 1.7 0 .2 0 .3.1.2.4-.3.8-.8 1.1-1.6.1-.2.1-.5 0-.8zm-.3.6c0 .1 0 .3-.1.4-.1.4-.2.8-.5.9-.1 0 0-.5 0-.8s0-.6.1-.9c0-.1 0-.2.1-.3.2-.1.5.5.4.7z" fill="#f8a353"/><path d="m65.8 23.2c.1 5 2.5 8 5.6 6.5 3.2-1.5 5.9-7.1 6-12.6z" fill="#d9c7a8"/><path d="m73.4 25.9-3.6 1.7c-1.1.5-1.9-.5-1.9-2.3v-3.1l7.5-3.9v3.3c0 1.7-.9 3.7-2 4.3z" fill="#4e3d34"/><path d="m69 21.5-.2.3v.5l-.5.7-.1-1.2-1.7.9c.1.5.3.8.3 1.3.1.6.1 1.2.2 1.7s.4.8.6 1.2.4.7.7.9c.3.3.6.5.9.6s.7 0 1 0c.4 0 .7 0 1.1-.2s.7-.3 1.1-.6.8-.4 1.1-.9c.3-.4.7-1 1-1.6.3-.5.6-1.1.9-1.8.2-.6.5-1.3.6-2 .2-.7.3-1.4.3-2 .1-.7 0-1.2 0-1.9zm1.1 5-.6-.6.3-.6-.2-.6.4-.9.3.1.2 2.2zm3.3-2.5-.6-.2-.2-.5h-.3l.1-1.2.9-1.2.4.1.4 1.3z" fill="url(#r)"/><path d="m71.4 169.6c-3.1-1.4-5.6 1.7-5.6 6.9l11.7 6.1c-.1-5.7-2.9-11.5-6.1-13z" fill="#d9c7a8"/><path d="m73.3 174.3-3.6-1.7c-1.3-.6-2.3.6-2.3 2.8v2l8.4 4.4v-2.1c0-2.4-1.2-4.8-2.5-5.4z" fill="#4e3d34"/><path d="m68.3 177.8.3-.8.4.6.3.7 7.2 3.7c0-.5.1-1 0-1.6-.1-.7-.1-1.4-.2-2-.2-.7-.5-1.3-.7-1.9s-.5-1.2-.8-1.8c-.3-.5-.6-1.2-.9-1.7s-.7-.9-1.1-1.2-.8-.5-1.1-.7c-.4-.2-.7-.1-1.1-.1s-.8-.3-1.1-.2-.6.4-.9.6-.6.5-.8.8c-.2.4-.5.7-.6 1.2-.2.5-.1 1.2-.2 1.8-.1.5-.3 1-.3 1.6zm5.1-.7h.7l.5.6-.1 1.3-.8.3-.6-1.3zm-2.6-1.7.9-.1.3.9-.4.4-.3.9-.5-.7z" fill="url(#s)"/><path d="m100 5.4 49.5 25.8v137.6l-49.5 25.8z" fill="#c8b99c"/><path d="m118.5 108.2c-.2-1.6-.4-3.1-.8-4.5-.5-1.5-.9-2.9-1.5-4.2-.7-1.3-1.1-3.1-1.9-4.1-.8-1.1-1.9-1.8-3-2.6-1-.8-2.1-1.4-3.3-1.9-1.1-.4-2.4-.6-3.6-.7-1.3-.1-2.5.4-3.7.7-.2.1-.4.1-.6.3v47.2c.2 0 .3.1.5.1 1.2.1 2.5.3 3.8.1 1.2-.3 2.4-1.7 3.5-2.4 1.1-.6 2.5-.7 3.5-1.6s1.5-3 2.4-4.2c.8-1.2 1.8-2.1 2.5-3.5s1-3 1.4-4.5.8-3 1-4.6.4-3.1.4-4.8c-.1-1.9-.4-3.3-.6-4.8z" fill="url(#t)"/><path d="m149.5 48.8c-.2-.2-.4-.4-.6-.5-.7-.4-1.4-.2-2.1-.3s-1.4 0-2.1.2-1.5.2-2.1.8-1.3 1.3-1.8 2.1c-.5.9-.9 2-1.3 3.1s-.5 2.6-.7 3.9-.7 2.5-.8 3.9.1 2.9.2 4.4c.1 1.4.2 3 .5 4.4.3 1.3.6 2.9 1 4.2.5 1.3 1.3 2 1.9 3s1 2.5 1.6 3.3 1.5.5 2.2 1 1.3 1.2 2 1.4c.6.2 1.2-.1 1.9-.2v-34.7z" fill="url(#u)"/><path d="m147.7 53.9 1.1 1.9v3.2l-1.5.3-.7-2.3.3-2.4z" fill="#4e3d34"/><path d="m145.3 63 .8 2.2-.9 1-1.5-2.2.3-3.3 1.1.2z" fill="#4e3d34"/><path d="m146 73.5.2 2 .5.7v2l-1.6-1.5-.7-2 .8-.9z" fill="#4e3d34"/><path d="m105 102 2-3.2 2.9 1.6v3l-.7 1.4.3 1.4-2 1.1-2.5-3z" fill="#4e3d34"/><path d="m111.1 114.2 3.4-3.7 1 1.6-.6 3.4-1.2-.7-.9 1.7-1.7-.7z" fill="#4e3d34"/><path d="m107.2 123.7 1.6.9.9-.7 1.4 1.1-2.3 2.7-2 .3v-2.4z" fill="#4e3d34"/><path d="m112.4 70.3-8.5-1.5v-18.9l8.5 2.4z" fill="#e8e2d7"/><g fill="#37271d"><path d="m142.3 167.8v-.3l.9-.4v.3z"/><path d="m142.6 166.8c-.1-.1-.1-.1-.1-.3s.1-.4.2-.5l.4-.2v.3l-.4.2c-.1 0-.1.1-.1.3 0 .1.1.2.1.2l.4-.2v.3l-.6.3z"/><path d="m143.2 165.7v-.3s.1-.1.1-.3 0-.2-.1-.2h-.1s.1.1.1.3c0 .3-.1.6-.3.6-.2.1-.3-.1-.3-.4 0-.1 0-.3.1-.4h-.1v-.3l.6-.3h.2c0 .1.1.2.1.4-.1.5-.2.8-.3.9zm-.4-.7c-.1 0-.2.2-.2.4s.1.2.2.2c.1-.1.2-.2.2-.3 0-.3-.1-.3-.2-.3z"/><path d="m142.7 164.3c-.1 0-.1-.1-.1-.2v-.1l.1-.1c0 .2 0 .3.2.3l.3-.1v.3l-.6.3v-.3z"/><path d="m142.9 163.8c-.2.1-.3-.1-.3-.4 0-.4.2-.6.4-.7v.8c.1-.1.2-.2.2-.4 0-.1 0-.2-.1-.2v-.3c.1 0 .2.1.2.4-.1.5-.2.7-.4.8zm-.1-.3v-.5c-.1 0-.1.2-.1.3 0 .2 0 .3.1.2z"/><path d="m142.9 162.6c-.2.1-.3-.1-.3-.3s0-.3.1-.4l-.3.1v-.3l.9-.4v.3h-.1c.1 0 .1.1.1.3-.1.3-.2.6-.4.7zm0-.8c-.1.1-.2.2-.2.4s.1.2.2.2c.1-.1.2-.2.2-.3 0-.3-.1-.4-.2-.3z"/><path d="m142.3 161.5v-.3l.1-.1v.3zm.3-.1v-.3l.6-.3v.3z"/><path d="m142.9 160.8c-.2.1-.3-.1-.3-.4 0-.4.2-.6.4-.7v.8c.1-.1.2-.2.2-.4 0-.1 0-.2-.1-.2v-.3c.1 0 .2.1.2.4-.1.5-.2.7-.4.8zm-.1-.3v-.5c-.1 0-.1.2-.1.3 0 .2 0 .2.1.2z"/><path d="m142.6 159.3c-.1-.1-.1-.1-.1-.3s.1-.4.2-.5l.4-.2v.3l-.4.2c-.1 0-.1.1-.1.2s.1.2.1.2l.4-.2v.3l-.6.3z"/><path d="m142.6 158.5v-.2l-.2.1v-.3l.2-.1v-.2h.1v.2l.3-.1s.1-.1.1-.1v-.1l.1-.1v.2c0 .1 0 .3-.1.4l-.4.2v.2z"/><path d="m143 157.6v-.3c.1 0 .1-.2.1-.3s0-.2-.1-.2-.1.2-.1.3c0 .2-.1.4-.2.5s-.2-.1-.2-.4.1-.5.2-.6v.3c-.1 0-.1.1-.1.3 0 .1 0 .2.1.2s.1-.2.1-.3c0-.2.1-.4.2-.5s.2.1.2.4-.1.5-.2.6z"/><path d="m142.6 156.6v-.3l.2-.1v.3zm.4-.2v-.3l.2-.1v.3z"/><path d="m142.3 155.8v-1.2l.1-.1v.9l.2-.1v-.8l.1-.1v.8l.2-.1v-.9l.1-.1v1.2z"/><path d="m142.6 154c-.1-.1-.1-.2-.1-.3 0-.2.1-.4.2-.5l.4-.2v.3l-.4.1c-.1 0-.1.1-.1.2s.1.2.1.2l.4-.1v.3l-.6.2z"/><path d="m142.7 152.7c-.1 0-.1-.1-.1-.3v-.1l.1-.1c0 .2 0 .3.2.3l.3-.1v.3l-.6.2v-.3z"/><path d="m142.3 152.4v-.3l.1-.1v.3zm.3-.1v-.3l.6-.2v.3z"/><path d="m142.9 151.7c-.2.1-.3-.1-.3-.5 0-.3.1-.5.2-.6v.3c-.1 0-.1.1-.1.2 0 .2.1.3.2.2.1 0 .2-.2.2-.3s0-.2-.1-.2v-.3c.1 0 .2.1.2.4 0 .5-.1.7-.3.8z"/><path d="m142.6 150.2c-.1-.1-.1-.1-.1-.3s.1-.4.2-.5l.4-.1v.3l-.4.1c-.1 0-.1.1-.1.2s.1.2.1.2l.4-.1v.3l-.9.3v-.3z"/><path d="m142.9 149.3c-.2.1-.3-.1-.3-.5s.2-.6.4-.7v.8c.1-.1.2-.2.2-.3s0-.2-.1-.2v-.3c.1 0 .2.2.2.5-.1.3-.2.6-.4.7zm-.1-.3v-.5c-.1 0-.1.2-.1.3s0 .2.1.2z"/><path d="m142.9 148.1c-.2.1-.3-.1-.3-.4 0-.2 0-.3.1-.4l-.3.1v-.3l.9-.3v.3h-.1c.1 0 .1.1.1.3-.1.3-.2.6-.4.7zm0-.9c-.1 0-.2.1-.2.3s.1.2.2.2.2-.2.2-.3-.1-.2-.2-.2z"/><path d="m142.6 146.5v-.3l.3-.2c.1 0 .1-.1.1-.1h-.1-.3v-.3l.3-.2c.1 0 .1-.1.1-.1h-.1l-.3-.1v-.3l.6.1v.3l-.3.3s-.1.1-.1.1h.1l.3.1v.3z"/><path d="m142.6 144.4c-.1-.1-.1-.2-.1-.3 0-.2.1-.4.2-.5l.4-.1v.3l-.4.1c-.1 0-.1.1-.1.2s.1.2.1.2l.4-.1v.3l-.9.3v-.3z"/><path d="m142.9 143.5c-.2.1-.3-.1-.3-.5s.2-.6.4-.7v.8c.1-.1.2-.2.2-.3s0-.2-.1-.2v-.3c.1 0 .2.2.2.5-.1.4-.2.6-.4.7zm-.1-.3v-.5c-.1 0-.1.1-.1.3 0 .1 0 .2.1.2z"/><path d="m143.1 141.4s.1.1.1.3-.1.4-.2.5c-.1 0-.2-.2-.2-.4s0-.3-.1-.3c0 0-.1.1-.1.2s0 .2.1.2v.3c-.1 0-.2-.1-.2-.4s.1-.5.2-.6l.3-.1s.1 0 .1-.1zm-.1.1c-.1.1-.1.2-.1.2 0 .2 0 .2.1.2s.1-.1.1-.2c0-.2-.1-.2-.1-.2z"/><path d="m142.6 141.2v-.2l-.2.1v-.3l.2-.1v-.2h.1v.2l.3-.1s.1-.1.1-.1v-.1h.1v.2c0 .1 0 .3-.1.4l-.4.1v.2z"/><path d="m142.6 140.1v-.2h-.1c-.2 0-.2-.2-.2-.5h.1c0 .1 0 .2.1.2v-.2h.1v.2l.5-.1v.3l-.5.1zm-.3-.8v-.3l.9-.2v.3z"/><path d="m142.9 138.7c-.2.1-.3-.2-.3-.5 0-.4.1-.6.3-.7s.3.2.3.5c0 .4-.1.7-.3.7zm0-.9c-.1 0-.2.2-.2.3 0 .2.1.3.2.2.1 0 .2-.2.2-.3s-.1-.2-.2-.2z"/><path d="m143.2 136.6v.3c0 .3-.1.4-.2.5l-.4.1v-.3l.4-.1c.1 0 .1-.1.1-.2s-.1-.2-.1-.2l-.4.1v-.3l.6-.2z"/><path d="m142.7 135.9c-.1-.1-.1-.1-.1-.3v-.1h.1c0 .2 0 .3.2.3l.3-.1v.3l-.6.2v-.3z"/><path d="m143.3 135.4c0-.1-.1-.1-.1-.1v.2h-.2v-.3h.2c.1-.1.2 0 .1.2z"/><path d="m142.9 134.7v-.3c.1 0 .1-.2.1-.4s0-.3-.1-.3-.1.2-.1.4c0 .3-.1.6-.3.6s-.3-.2-.3-.6.1-.6.3-.7v.3c-.1 0-.1.2-.1.3 0 .2 0 .3.1.3s.1-.1.1-.4.1-.6.3-.7c.2 0 .3.2.3.6 0 .5-.1.8-.3.9z"/><path d="m143.2 132.4v.3c0 .3-.1.4-.2.5l-.4.1v-.3l.4-.1c.1 0 .1-.1.1-.2s-.1-.2-.1-.2l-.4.1v-.3l.6-.1z"/><path d="m143.2 131.9v-.3s.1-.1.1-.2c0-.2 0-.2-.1-.2h-.1c0 .1.1.1.1.3 0 .3-.1.5-.3.6-.2 0-.3-.1-.3-.4 0-.1 0-.3.1-.3h-.1v-.4l.6-.1c.1 0 .1 0 .2.1 0 .1.1.2.1.4-.1.2-.2.5-.3.5zm-.4-.7c-.1 0-.2.1-.2.3s.1.2.2.2.2-.1.2-.3-.1-.2-.2-.2z"/><path d="m143.1 130c0 .1.1.1.1.3s-.1.4-.2.4-.2-.2-.2-.4 0-.3-.1-.3c0 0-.1.1-.1.2s0 .2.1.2v.3c-.1 0-.2-.1-.2-.5 0-.3.1-.5.2-.5l.3-.1s.1 0 .1-.1v.5c.1-.1 0-.1 0 0zm-.1 0c-.1.1-.1.2-.1.2 0 .2 0 .2.1.2s.1-.1.1-.2-.1-.2-.1-.2z"/><path d="m142.7 129.3c-.1-.1-.1-.1-.1-.3v-.1h.1c0 .2 0 .3.2.3l.3-.1v.3l-.6.1v-.3z"/><path d="m143 128.8v-.3c.1 0 .1-.1.1-.3 0-.1 0-.2-.1-.2s-.1.2-.1.3c0 .2-.1.4-.2.4s-.2-.2-.2-.4c0-.3.1-.5.2-.5v.3c-.1 0-.1.1-.1.2s0 .2.1.2.1-.2.1-.3c0-.2.1-.4.2-.4s.2.2.2.4c0 .3-.1.5-.2.6z"/><path d="m142.8 127.2c-.2 0-.4-.1-.5-.2v-.3c.1.1.3.2.5.2s.4-.2.5-.4v.3c-.1.2-.3.4-.5.4z"/><path d="m143 126.5v-.3c.1 0 .1-.1.1-.3 0-.1 0-.2-.1-.2s-.1.2-.1.3c0 .2-.1.4-.2.4s-.2-.2-.2-.4c0-.3.1-.5.2-.5v.3c-.1 0-.1.1-.1.2s0 .2.1.2.1-.2.1-.3c0-.2.1-.4.2-.4s.2.2.2.4c0 .4-.1.6-.2.6z"/><path d="m143.2 124.6v.3c0 .3-.1.4-.2.4l-.4.1v-.3l.4-.1c.1 0 .1-.1.1-.2s-.1-.2-.1-.2l-.4.1v-.3l.6-.1z"/><path d="m143.2 124.2v-.3s.1-.1.1-.2c0-.2 0-.2-.1-.2h-.1c0 .1.1.1.1.3 0 .3-.1.5-.3.6-.2 0-.3-.2-.3-.4 0-.1 0-.3.1-.3h-.1v-.3l.6-.1c.1 0 .1 0 .2.1 0 .1.1.2.1.4-.1.1-.2.3-.3.4zm-.4-.8c-.1 0-.2.1-.2.3s.1.2.2.2.2-.1.2-.3c0-.1-.1-.2-.2-.2z"/><path d="m143.1 122.2c0 .1.1.1.1.3s-.1.4-.2.4-.2-.2-.2-.4 0-.3-.1-.3c0 0-.1.1-.1.2s0 .2.1.2v.3c-.1 0-.2-.1-.2-.5 0-.3.1-.5.2-.5l.3-.1s.1 0 .1-.1zm-.1 0c-.1.1-.1.1-.1.2 0 .2 0 .2.1.2s.1-.1.1-.2-.1-.2-.1-.2z"/><path d="m142.7 121.5c-.1-.1-.1-.1-.1-.3v-.1h.1c0 .2 0 .3.2.3h.3v.3l-.6.1v-.3z"/><path d="m142.3 120.6v-.2l.9.5v.2z"/><path d="m143.2 120.3v-.3s.1-.1.1-.2c0-.2 0-.2-.1-.2h-.1c0 .1.1.1.1.3 0 .3-.1.5-.3.6-.2 0-.3-.2-.3-.5 0-.1 0-.3.1-.3h-.1v-.3l.6-.1c.1 0 .1 0 .2.1 0 .1.1.2.1.4-.1.2-.2.4-.3.5zm-.4-.8c-.1 0-.2.1-.2.3s.1.2.2.2.2-.1.2-.3c0-.1-.1-.2-.2-.2z"/><path d="m142.3 119.1v-.3l.9-.1v.3z"/><path d="m143.2 117.7v.3c0 .3-.1.4-.2.4l-.4.1v-.3l.4-.1c.1 0 .1-.1.1-.2s-.1-.2-.1-.2h-.4v-.3l.6-.1z"/><path d="m142.9 117.3c-.2 0-.3-.2-.3-.5s.1-.5.2-.6v.3c-.1 0-.1.1-.1.2 0 .2.1.3.2.3s.2-.1.2-.3c0-.1 0-.2-.1-.2v-.3c.1 0 .2.2.2.5 0 .4-.1.6-.3.6z"/><path d="m142.9 116.1c-.2 0-.3-.2-.3-.6s.1-.6.3-.6.3.2.3.6-.1.6-.3.6zm0-.9c-.1 0-.2.1-.2.3s.1.3.2.3.2-.1.2-.3-.1-.3-.2-.3z"/><path d="m143 114.9v-.3c.1 0 .1-.1.1-.3 0-.1 0-.2-.1-.2s-.1.2-.1.3c0 .2-.1.4-.2.4s-.2-.2-.2-.5.1-.5.2-.5v.3c-.1 0-.1.1-.1.2s0 .2.1.2.1-.2.1-.3c0-.2.1-.4.2-.4s.2.2.2.5-.1.5-.2.6z"/><path d="m142.9 113.7c-.2 0-.3-.2-.3-.5 0-.4.2-.6.4-.6v.8c.1 0 .2-.1.2-.3 0-.1 0-.2-.1-.2v-.3c.1 0 .2.2.2.5-.1.4-.2.6-.4.6zm-.1-.3v-.5c-.1 0-.1.1-.1.3s0 .2.1.2z"/><path d="m142.8 112.5v-.6h.1v.6z"/><path d="m142.6 111.8v-.2h-.1c-.2 0-.2-.2-.2-.5h.1c0 .1 0 .2.1.2v-.2h.1v.2h.5v.3h-.5z"/><path d="m142.7 110.7c-.1-.1-.1-.1-.1-.3v-.1h.1c0 .2 0 .3.2.3h.3v.3h-.6v-.3z"/><path d="m143.2 109.4v.3c0 .3-.1.4-.2.4h-.4v-.3h.4c.1 0 .1-.1.1-.2s-.1-.2-.1-.2h-.4v-.3h.6z"/><path d="m142.9 109c-.2 0-.3-.2-.3-.6 0-.3.1-.5.2-.5v.3c-.1 0-.1.1-.1.2 0 .2.1.3.2.3s.2-.1.2-.3c0-.1 0-.2-.1-.2v-.3c.1 0 .2.2.2.5s-.1.6-.3.6z"/><path d="m142.6 107.8v-.2h-.2v-.3h.2v-.2h.1v.2h.3s.1-.1.1-.1v-.1h.1v.2c0 .1 0 .3-.1.3h-.4v.2z"/><path d="m142.9 107.1c-.2 0-.3-.2-.3-.6s.1-.6.3-.6.3.2.3.6c0 .3-.1.6-.3.6zm0-.9c-.1 0-.2.1-.2.3s.1.3.2.3.2-.1.2-.3-.1-.3-.2-.3z"/><path d="m143 105.8v-.3c.1 0 .1-.1.1-.3 0-.1 0-.2-.1-.2s-.1.1-.1.3-.1.4-.2.4-.2-.2-.2-.5.1-.5.2-.5v.3c-.1 0-.1.1-.1.2s0 .2.1.2.1-.2.1-.3c0-.2.1-.4.2-.4s.2.2.2.5c0 .4-.1.6-.2.6z"/><path d="m142.9 104.7c-.2 0-.3-.2-.3-.6s.2-.6.4-.6v.8c.1 0 .2-.1.2-.3 0-.1 0-.2-.1-.2v-.3c.1 0 .2.2.2.5-.1.4-.2.7-.4.7zm-.1-.3v-.5c-.1 0-.1.1-.1.2 0 .2 0 .2.1.3z"/><path d="m143.3 103.4c0-.1-.1-.2-.1-.2v.2h-.2v-.3h.2c.1 0 .2.1.1.3z"/><path d="m142.6 102.6v-.2h-.1c-.2 0-.2-.2-.2-.5h.1c0 .1 0 .2.1.2v-.2h.1v.2h.5v.3h-.5z"/><path d="m143.1 101.1c0 .1.1.1.1.3s-.1.4-.2.4-.2-.2-.2-.5c0-.2 0-.3-.1-.3 0 0-.1.1-.1.2s0 .2.1.2v.3c-.1 0-.2-.2-.2-.5s.1-.5.2-.5h.3.1zm-.1 0c-.1.1-.1.1-.1.2 0 .2 0 .2.1.2s.1-.1.1-.2-.1-.2-.1-.2z"/><path d="m142.6 100.3c-.1-.1-.1-.2-.1-.3 0-.2.1-.4.2-.4h.4v.3h-.4c-.1 0-.1.1-.1.2s.1.2.1.2h.4v.3h-.6z"/><path d="m142.9 99.5c-.2 0-.3-.2-.3-.6 0-.3.1-.5.2-.5v.3c-.1 0-.1.1-.1.2 0 .2.1.3.2.3s.2-.1.2-.3c0-.1 0-.2-.1-.2v-.3c.1 0 .2.2.2.5s-.1.6-.3.6z"/><path d="m143.3 98.2v-.1c0-.1 0-.2-.1-.2 0 0-.1 0-.2.1l-.4.3v-.3l.3-.2c.1 0 .1-.1.1-.1s-.1 0-.1-.1l-.3-.2v-.3l.6.4c.1.1.2.2.2.4v.2z"/><path d="m142.6 96.7v-.3h.1c-.1-.1-.1-.2-.1-.3s0-.3.1-.3c-.1-.1-.1-.2-.1-.4s.1-.4.2-.4h.4v.3h-.4c-.1 0-.1.1-.1.2s.1.2.1.2h.4v.3h-.4c-.1 0-.1.1-.1.2s.1.2.1.2h.4v.3z"/><path d="m142.9 94.9c-.2 0-.3-.3-.3-.6 0-.4.1-.6.3-.6s.3.3.3.6-.1.6-.3.6zm0-.9c-.1 0-.2.1-.2.3s.1.3.2.3.2-.1.2-.3-.1-.3-.2-.3z"/><path d="m142.3 93.5v-.3h.9v.3z"/><path d="m143.1 92.4c0 .1.1.2.1.3 0 .2-.1.4-.2.4s-.2-.2-.2-.5c0-.2 0-.3-.1-.3 0 0-.1.1-.1.2s0 .2.1.2v.3c-.1 0-.2-.2-.2-.5s.1-.5.2-.5h.3.1zm-.1 0c-.1 0-.1.1-.1.2 0 .2 0 .2.1.2s.1-.1.1-.2-.1-.2-.1-.2z"/><path d="m143 91.9v-.3c.1 0 .1-.1.1-.2s0-.2-.1-.2-.1.1-.1.3-.1.4-.2.4-.2-.2-.2-.5.1-.5.2-.5v.3c-.1 0-.1.1-.1.2s0 .2.1.2.1-.1.1-.3.1-.4.2-.4.2.2.2.5c0 .4-.1.5-.2.5z"/><path d="m143 90.9v-.3c.1 0 .1-.1.1-.2s0-.2-.1-.2-.1.1-.1.3-.1.4-.2.4-.2-.2-.2-.5.1-.5.2-.5v.3c-.1 0-.1.1-.1.2s0 .2.1.2.1-.1.1-.3.1-.4.2-.4.2.2.2.5-.1.4-.2.5z"/><path d="m142.9 89.7c-.2 0-.3-.3-.3-.6 0-.4.2-.6.4-.5v.8c.1 0 .2-.1.2-.3 0-.1 0-.2-.1-.2v-.3c.1.1.2.2.2.5-.1.4-.2.6-.4.6zm-.1-.3v-.5c-.1 0-.1.1-.1.2 0 .2 0 .3.1.3z"/><path d="m143 88.5v-.3c.1 0 .1-.1.1-.2s0-.2-.1-.2-.1.1-.1.3-.1.4-.2.4-.2-.2-.2-.5.1-.5.2-.5v.3c-.1 0-.1.1-.1.2s0 .2.1.2.1-.1.1-.3.1-.4.2-.4.2.2.2.5-.1.5-.2.5z"/><path d="m142.8 87.1c-.2 0-.4.1-.5.2v-.3c.1-.2.3-.3.5-.3s.4.2.5.4v.3c-.1-.1-.3-.2-.5-.3z"/><path d="m143.3 86.6c0-.1-.1-.2-.1-.2v.2h-.2v-.3h.2c.1 0 .2.2.1.3z"/><path d="m144.4 166.9v-.3c.1-.1.1-.2.1-.4s0-.3-.1-.3-.1.2-.1.5-.1.6-.3.7-.3-.1-.3-.5.1-.6.3-.7v.3c-.1.1-.1.2-.1.4s0 .3.1.2c.1 0 .1-.2.1-.4 0-.3.1-.6.3-.7s.3.1.3.5c0 .3-.1.6-.3.7z"/><path d="m144.4 165.5c-.2.1-.3-.1-.3-.4 0-.4.2-.6.4-.7v.8c.1-.1.2-.2.2-.4 0-.1 0-.2-.1-.2v-.3c.1 0 .2.1.2.4-.1.4-.2.7-.4.8zm-.1-.3v-.5c-.1 0-.1.2-.1.3 0 .2 0 .2.1.2z"/><path d="m144.1 164.4v-.3h.1c-.1 0-.1-.1-.1-.3 0-.1 0-.3.1-.4-.1 0-.1-.1-.1-.3s.1-.4.2-.5l.4-.2v.3l-.4.2c-.1 0-.1.1-.1.2s.1.2.1.1l.4-.2v.3l-.4.2c-.1 0-.1.1-.1.2s.1.2.1.1l.4-.2v.3z"/><path d="m143.8 162.6v-.3l.1-.1v.3zm.3-.1v-.3l.6-.3v.3z"/><path d="m144.3 161.9v-.6l.1-.1v.6z"/><path d="m144.5 161.1v-.3c.1-.1.1-.2.1-.3s0-.2-.1-.2-.1.2-.1.3c0 .2-.1.4-.2.5s-.2-.1-.2-.4.1-.5.2-.6v.3c-.1 0-.1.1-.1.3 0 .1 0 .2.1.2s.1-.2.1-.3c0-.2 0-.4.2-.5.1-.1.2.1.2.4s-.1.6-.2.6z"/><path d="m144.1 160.3v-.3l.3-.3c.1 0 .1-.1.1-.1h-.1-.3v-.3l.3-.3c.1 0 .1-.1.1-.1h-.1-.3v-.3l.6.1v.3l-.3.3s-.1.1-.1.1h.1.3v.3z"/><path d="m144.4 158.5c-.2.1-.3-.1-.3-.4 0-.4.2-.6.4-.7v.8c.1-.1.2-.2.2-.4 0-.1 0-.2-.1-.2v-.3c.1 0 .2.1.2.4-.1.4-.2.7-.4.8zm-.1-.3v-.5c-.1 0-.1.2-.1.3 0 .2 0 .2.1.2z"/><path d="m144.4 157.3c-.2.1-.3-.1-.3-.4 0-.4.2-.6.4-.7v.8c.1-.1.2-.2.2-.4 0-.1 0-.2-.1-.2v-.3c.1 0 .2.1.2.4-.1.4-.2.7-.4.8zm-.1-.3v-.5c-.1 0-.1.2-.1.3s0 .2.1.2z"/><path d="m144.1 156.2v-.2l-.2.1v-.3l.2-.1v-.2h.1v.2l.3-.1s.1-.1.1-.1v-.1h.1v.2c0 .1 0 .3-.1.4l-.4.1v.2z"/><path d="m144.4 155c-.2.1-.3-.1-.3-.4s.1-.5.2-.6v.3c-.1 0-.1.1-.1.2 0 .2.1.2.2.2s.2-.2.2-.3 0-.2-.1-.2v-.3c.1 0 .2.1.2.4s-.1.6-.3.7z"/><path d="m144.1 153.5c-.1-.1-.1-.1-.1-.3s.1-.4.2-.5l.4-.2v.3l-.4.1c-.1 0-.1.1-.1.2s.1.2.1.2l.3-.1v.3l-.9.3v-.3z"/><path d="m144.4 152.6c-.2.1-.3-.1-.3-.5s.1-.7.3-.7c.2-.1.3.1.3.5 0 .3-.1.6-.3.7zm0-.9c-.1 0-.2.2-.2.4s.1.3.2.2c.1 0 .2-.2.2-.4s-.1-.3-.2-.2z"/><path d="m144.4 151.3c-.2.1-.3-.1-.3-.5 0-.3.1-.5.2-.6v.3c-.1 0-.1.1-.1.2 0 .2.1.2.2.2s.2-.2.2-.3 0-.2-.1-.2v-.3c.1 0 .2.1.2.4 0 .4-.1.7-.3.8z"/><path d="m144.4 150.1c-.2.1-.3-.1-.3-.5s.1-.6.3-.7.3.1.3.5c0 .3-.1.6-.3.7zm0-.9c-.1 0-.2.2-.2.4s.1.3.2.2c.1 0 .2-.2.2-.4s-.1-.2-.2-.2z"/><path d="m143.8 149v-.3l.9-.3v.3z"/><path d="m144.6 147.5s.1.1.1.3-.1.4-.2.5c-.1 0-.2-.1-.2-.4 0-.2 0-.3-.1-.3 0 0-.1.1-.1.2s0 .2.1.2v.3c-.1 0-.2-.1-.2-.4s.1-.5.2-.6l.3-.1s.1 0 .1-.1zm-.1 0c-.1.1-.1.2-.1.2 0 .2 0 .2.1.2s.1-.1.1-.2-.1-.2-.1-.2z"/><path d="m144.1 147.3v-.2l-.2.1v-.3l.2-.1v-.2h.1v.2l.3-.1s.1-.1.1-.1v-.1h.1v.2c0 .1 0 .3-.1.4l-.4.1v.2z"/><path d="m144.4 146.4c-.2.1-.3-.1-.3-.5s.2-.6.4-.7v.8c.1-.1.2-.2.2-.3s0-.2-.1-.2v-.3c.1 0 .2.2.2.4-.1.5-.2.8-.4.8zm-.1-.2v-.5c-.1 0-.1.1-.1.3 0 .1 0 .2.1.2z"/><path d="m144.4 144.9c-.2.1-.3-.1-.3-.5 0-.3.1-.5.2-.6v.3c-.1 0-.1.1-.1.2 0 .2.1.3.2.2.1 0 .2-.1.2-.3 0-.1 0-.2-.1-.2v-.3c.1 0 .2.1.2.4 0 .4-.1.7-.3.8z"/><path d="m144.1 143.4c-.1-.1-.1-.2-.1-.3 0-.2.1-.4.2-.5l.4-.1v.3l-.4.1c-.1 0-.1.1-.1.2s.1.2.1.2l.3-.1v.3l-.9.3v-.3z"/><path d="m143.8 142.6v-.3h.1v.3zm.3-.1v-.3l.6-.2v.3z"/><path d="m144.1 142v-.3h.1c-.1-.1-.1-.2-.1-.3 0-.3.1-.5.3-.6s.3.1.3.4c0 .2 0 .3-.1.4l.3-.1v.3zm.3-.9c-.1 0-.2.1-.2.3s.1.2.2.2.2-.2.2-.3c0-.2-.1-.3-.2-.2z"/><path d="m144.5 140.7v-.3c.1 0 .1-.1.1-.3 0-.1 0-.2-.1-.2s-.1.2-.1.3c0 .2-.1.4-.2.5-.1 0-.2-.1-.2-.4s.1-.5.2-.6v.3c-.1 0-.1.1-.1.2s0 .2.1.2.1-.2.1-.3c0-.2 0-.4.2-.5.1 0 .2.1.2.4 0 .4-.1.6-.2.7z"/><path d="m144.3 139.1c-.2.1-.4 0-.5-.2v-.3c.1.1.3.2.5.1s.4-.2.5-.4v.3c-.1.3-.3.5-.5.5z"/><path d="m144.7 137.6v.3c0 .3-.1.4-.2.5l-.4.1v-.3l.4-.1c.1 0 .1-.1.1-.2s-.1-.2-.1-.2l-.4.1v-.3l.6-.2z"/><path d="m144.1 137c-.1-.1-.1-.2-.1-.3 0-.2.1-.4.2-.5l.4-.1v.3l-.4.1c-.1 0-.1.1-.1.2s.1.2.1.2l.3-.1v.3l-.6.2z"/><path d="m144.5 136v-.3c.1 0 .1-.1.1-.3 0-.1 0-.2-.1-.2s-.1.2-.1.3c0 .2-.1.4-.2.5-.1 0-.2-.2-.2-.4 0-.3.1-.5.2-.5v.3c-.1 0-.1.1-.1.2s0 .2.1.2.1-.2.1-.3c0-.2 0-.4.2-.5.1 0 .2.1.2.4 0 .4-.1.6-.2.6z"/><path d="m144.1 135.1v-.3l.3-.2c.1 0 .1-.1.1-.1h-.1l-.3-.1v-.3l.3-.2c.1 0 .1-.1.1-.1h-.1l-.3-.1v-.3l.6.2v.3l-.3.2s-.1.1-.1.1h.1l.3.1v.3z"/><path d="m144.4 133.4c-.2 0-.3-.2-.3-.5 0-.4.2-.6.4-.7v.8c.1 0 .2-.2.2-.3s0-.2-.1-.2v-.3c.1 0 .2.2.2.5-.1.4-.2.6-.4.7zm-.1-.3v-.5c-.1 0-.1.1-.1.3 0 .1 0 .2.1.2z"/><path d="m144.4 132.1c-.2 0-.3-.2-.3-.5 0-.4.2-.6.4-.6v.8c.1 0 .2-.2.2-.3s0-.2-.1-.2v-.3c.1 0 .2.2.2.5-.1.3-.2.6-.4.6zm-.1-.2v-.5c-.1 0-.1.1-.1.3 0 .1 0 .1.1.2z"/><path d="m144.1 131v-.2h-.2v-.3h.2v-.2h.1v.2l.3-.1s.1-.1.1-.1v-.1h.1v.2c0 .1 0 .3-.1.3l-.4.1v.2z"/><path d="m144.4 130.2c-.2 0-.3-.2-.3-.5 0-.4.2-.6.4-.6v.8c.1 0 .2-.2.2-.3s0-.2-.1-.2v-.3c.1 0 .2.2.2.5-.1.3-.2.6-.4.6zm-.1-.3v-.5c-.1 0-.1.1-.1.3s0 .2.1.2z"/><path d="m144.1 128.7c-.1-.1-.1-.2-.1-.3 0-.2.1-.4.2-.4l.4-.1v.3l-.4.1c-.1 0-.1.1-.1.2s.1.2.1.2l.3-.1v.3l-.6.1z"/><path d="m144.4 127.8c-.2 0-.3-.2-.3-.5 0-.4.2-.6.4-.6v.8c.1 0 .2-.2.2-.3s0-.2-.1-.2v-.3c.1 0 .2.2.2.5-.1.3-.2.5-.4.6zm-.1-.3v-.5c-.1 0-.1.1-.1.3 0 .1 0 .2.1.2z"/><path d="m144.4 126.6c-.2 0-.3-.1-.3-.4 0-.2 0-.3.1-.3l-.3.1v-.3l.9-.2v.3h-.1c.1.1.1.2.1.3-.1.2-.2.4-.4.5zm0-.9c-.1 0-.2.1-.2.3s.1.2.2.2.2-.1.2-.3c0-.1-.1-.2-.2-.2z"/><path d="m144.4 124.9c-.2 0-.3-.2-.3-.5s.1-.5.2-.6v.3c-.1 0-.1.1-.1.2 0 .2.1.3.2.2.1 0 .2-.1.2-.3 0-.1 0-.2-.1-.2v-.3c.1 0 .2.2.2.5 0 .5-.1.7-.3.7z"/><path d="m144.1 123.4c-.1-.1-.1-.2-.1-.3 0-.2.1-.4.2-.4l.4-.1v.3l-.4.1c-.1 0-.1.1-.1.2s.1.2.1.2l.3-.1v.3l-.9.1v-.3z"/><path d="m144.4 122.5c-.2 0-.3-.2-.3-.5 0-.4.1-.6.3-.6s.3.2.3.5-.1.6-.3.6zm0-.9c-.1 0-.2.1-.2.3s.1.3.2.3.2-.1.2-.3-.1-.3-.2-.3z"/><path d="m144.4 121.3c-.2 0-.3-.2-.3-.5s.1-.5.2-.6v.3c-.1 0-.1.1-.1.2 0 .2.1.3.2.2.1 0 .2-.1.2-.3 0-.1 0-.2-.1-.2v-.3c.1 0 .2.2.2.5 0 .4-.1.6-.3.7z"/><path d="m144.4 120.1c-.2 0-.3-.2-.3-.6s.1-.6.3-.6.3.2.3.6c0 .3-.1.6-.3.6zm0-.9c-.1 0-.2.1-.2.3s.1.3.2.3.2-.1.2-.3-.1-.3-.2-.3z"/><path d="m143.8 118.8v-.3l.9-.1v.3z"/><path d="m144.6 117.5c0 .1.1.1.1.3s-.1.4-.2.4-.2-.2-.2-.4 0-.3-.1-.3c0 0-.1.1-.1.2s0 .2.1.2v.3c-.1 0-.2-.1-.2-.5 0-.3.1-.5.2-.5h.3s.1 0 .1-.1zm-.1 0c-.1.1-.1.1-.1.2 0 .2 0 .2.1.2s.1-.1.1-.2-.1-.2-.1-.2z"/><path d="m144.1 117.2v-.2h-.2v-.3h.2v-.2h.1v.2h.3s.1-.1.1-.1v-.1h.1v.2c0 .1 0 .3-.1.3h-.4v.2z"/><path d="m144.4 116.4c-.2 0-.3-.2-.3-.5 0-.4.2-.6.4-.6v.8c.1 0 .2-.1.2-.3 0-.1 0-.2-.1-.2v-.3c.1 0 .2.2.2.5-.1.4-.2.6-.4.6zm-.1-.3v-.5c-.1 0-.1.1-.1.3 0 .1 0 .2.1.2z"/><path d="m144.8 115.1c0-.1-.1-.2-.1-.1v.2h-.2v-.3h.2c.1-.1.2.1.1.2z"/><path d="m144.5 114.4v-.3c.1 0 .1-.1.1-.3 0-.1 0-.2-.1-.2s-.1.2-.1.3c0 .2-.1.4-.2.4s-.2-.2-.2-.4c0-.3.1-.5.2-.5v.3c-.1 0-.1.1-.1.2s0 .2.1.2.1-.2.1-.3c0-.2 0-.4.2-.4.1 0 .2.2.2.5 0 .2-.1.4-.2.5z"/><path d="m144.7 112.5v.3c0 .3-.1.4-.2.4h-.4v-.2h.4c.1 0 .1-.1.1-.2s-.1-.2-.1-.2h-.4v-.3l.6-.1z"/><path d="m144.7 112v-.3s.1-.1.1-.2c0-.2 0-.2-.1-.2h-.1c0 .1.1.1.1.3 0 .3-.1.5-.3.5s-.3-.2-.3-.5c0-.1 0-.3.1-.3h-.1v-.3h.6c.1 0 .1 0 .2.1 0 .1.1.2.1.4-.1.3-.2.5-.3.5zm-.4-.8c-.1 0-.2.1-.2.3s.1.3.2.2c.1 0 .2-.1.2-.3 0-.1-.1-.2-.2-.2z"/><path d="m144.6 110.1c0 .1.1.1.1.3s-.1.4-.2.4-.2-.2-.2-.4 0-.3-.1-.3c0 0-.1.1-.1.2s0 .2.1.2v.3c-.1 0-.2-.1-.2-.5 0-.3.1-.5.2-.5h.3.1v.3c.1-.1 0 0 0 0zm-.1 0c-.1.1-.1.1-.1.2 0 .2 0 .2.1.2s.1-.1.1-.2-.1-.2-.1-.2z"/><path d="m144.2 109.3c-.1-.1-.1-.1-.1-.3v-.1h.1c0 .2 0 .3.2.3h.3v.3h-.6z"/><path d="m144.8 108.9c0-.1-.1-.2-.1-.2v.2h-.2v-.3h.2c.1 0 .2.2.1.3z"/><path d="m144.4 108.1c-.2 0-.3-.2-.3-.5 0-.2 0-.3.1-.3h-.3v-.3h.9v.3h-.1c.1.1.1.2.1.3-.1.3-.2.5-.4.5zm0-.8c-.1 0-.2.1-.2.3s.1.2.2.2.2-.1.2-.3c0-.1-.1-.2-.2-.2z"/><path d="m144.4 106.9c-.2 0-.3-.2-.3-.5 0-.4.2-.6.4-.6v.8c.1 0 .2-.1.2-.3 0-.1 0-.2-.1-.2v-.3c.1 0 .2.2.2.5-.1.4-.2.6-.4.6zm-.1-.3v-.5c-.1 0-.1.1-.1.2 0 .2 0 .3.1.3z"/><path d="m144.4 105.3-.3.4v-.3l.2-.2-.2-.2v-.3l.3.3.3-.4v.4l-.2.2.2.2v.3z"/><path d="m144.1 104.6v-.2h-.2v-.3h.2v-.1h.1v.2h.3s.1 0 .1-.1v-.1h.1v.2c0 .1 0 .3-.1.3h-.4v.2z"/><path d="m144.2 103.5c-.1-.1-.1-.2-.1-.3v-.1h.1c0 .2 0 .3.2.3h.3v.3h-.6z"/><path d="m144.4 103.1c-.2 0-.3-.2-.3-.6s.1-.6.3-.6.3.2.3.6-.1.6-.3.6zm0-.9c-.1 0-.2.1-.2.3s.1.3.2.3.2-.1.2-.3-.1-.3-.2-.3z"/><path d="m144.5 101.8v-.3c.1 0 .1-.1.1-.3 0-.1 0-.2-.1-.2s-.1.1-.1.3-.1.4-.2.4-.2-.2-.2-.5.1-.5.2-.5v.3c-.1 0-.1.1-.1.2s0 .2.1.2.1-.2.1-.3c0-.2 0-.4.2-.4.1 0 .2.2.2.5 0 .4-.1.6-.2.6z"/><path d="m144.4 100.7c-.2 0-.3-.2-.3-.6s.2-.6.4-.6v.8c.1 0 .2-.1.2-.3 0-.1 0-.2-.1-.2v-.3c.1 0 .2.2.2.5-.1.5-.2.7-.4.7zm-.1-.3v-.5c-.1 0-.1.1-.1.2 0 .2 0 .3.1.3z"/><path d="m144.8 99.5c0-.1-.1-.2-.1-.2v.2h-.2v-.3h.2c.1 0 .2.1.1.3z"/><path d="m144.4 98.7c-.2 0-.3-.2-.3-.6 0-.3.1-.5.2-.5v.3c-.1 0-.1.1-.1.2 0 .2.1.3.2.3s.2-.1.2-.3c0-.1 0-.2-.1-.2v-.3c.1 0 .2.2.2.5s-.1.6-.3.6z"/><path d="m144.4 97.5c-.2 0-.3-.2-.3-.6s.1-.6.3-.6.3.3.3.6-.1.6-.3.6zm0-.9c-.1 0-.2.1-.2.3s.1.3.2.3.2-.1.2-.3-.1-.3-.2-.3z"/><path d="m144.4 96.2c-.2 0-.3-.2-.3-.6 0-.3.1-.5.2-.5v.3c-.1 0-.1.1-.1.2 0 .2.1.3.2.3s.2-.1.2-.3c0-.1 0-.2-.1-.2v-.3c.1 0 .2.2.2.5 0 .4-.1.6-.3.6z"/><path d="m144.4 95c-.2 0-.3-.3-.3-.6 0-.4.1-.6.3-.6s.3.3.3.6c0 .4-.1.6-.3.6zm0-.8c-.1 0-.2.1-.2.3s.1.3.2.3.2-.1.2-.3-.1-.3-.2-.3z"/><path d="m144.6 93c0 .1.1.1.1.3s-.1.4-.2.4-.2-.2-.2-.5c0-.2 0-.3-.1-.3 0 0-.1.1-.1.2s0 .2.1.2v.3c-.1 0-.2-.2-.2-.5s.1-.5.2-.5h.3.1zm-.1 0c-.1 0-.1.1-.1.2 0 .2 0 .2.1.2s.1-.1.1-.2-.1-.2-.1-.2z"/><path d="m144.6 91.9.1.3h-.9v-.3h.3c-.1-.1-.1-.2-.1-.3 0-.3.1-.5.3-.5s.3.2.3.5c.1.1.1.2 0 .3zm-.2-.5c-.1 0-.2.1-.2.2 0 .2.1.3.2.3s.2-.1.2-.3c0-.1-.1-.2-.2-.2z"/><path d="m144.7 90.2v.3c0 .3-.1.4-.2.4h-.4v-.3h.4c.1 0 .1-.1.1-.2s-.1-.2-.1-.2h-.4v-.3h.6z"/><path d="m144.1 89.7v-.2h-.2v-.3h.2v-.2h.1v.2h.3s.1 0 .1-.1v-.1h.1v.2c0 .1 0 .3-.1.3h-.4v.2z"/><path d="m144.1 89v-.2h-.2v-.3h.2v-.2h.1v.2h.3s.1 0 .1-.1v-.1h.1v.2c0 .1 0 .3-.1.3h-.4v.2z"/><path d="m144.4 88.3c-.2 0-.3-.3-.3-.6 0-.4.2-.6.4-.5v.8c.1 0 .2-.1.2-.3 0-.1 0-.2-.1-.2v-.3c.1.1.2.2.2.5-.1.4-.2.6-.4.6zm-.1-.3v-.5c-.1 0-.1.1-.1.2 0 .2 0 .3.1.3z"/><path d="m144.2 86.7c-.1-.1-.1-.2-.1-.3v-.1h.1c0 .2 0 .3.2.4h.3v.3l-.6-.1z"/><path d="m144.8 86.4c0-.1-.1-.2-.1-.2v.2h-.2v-.3h.2c.1 0 .2.2.1.3z"/><path d="m145.9 166.2v-.3c.1-.1.1-.2.1-.3s0-.2-.1-.2-.1.2-.1.3c0 .2-.1.4-.2.5s-.2-.1-.2-.4.1-.5.2-.6v.3c-.1 0-.1.1-.1.3 0 .1 0 .2.1.2s.1-.2.1-.3c0-.2 0-.4.2-.5.1-.1.2.1.2.4.1.3 0 .5-.2.6z"/><path d="m145.8 165.1c-.2.1-.3-.1-.3-.4 0-.4.1-.7.3-.7.2-.1.3.1.3.4.1.3-.1.6-.3.7zm0-.9c-.1.1-.2.2-.2.4s.1.2.2.2c.1-.1.2-.2.2-.4 0-.1 0-.2-.2-.2z"/><path d="m146.2 163.6v-.1c0-.1 0-.2-.1-.1 0 0-.1.1-.2.2l-.4.5v-.3l.3-.3c.1-.1.1-.1.1-.1h-.1-.3v-.4l.6.1c.1 0 .2.1.2.3v.2z"/><path d="m145.3 162.6v-.3l.8-.4v.3z"/><path d="m145.8 161.9c-.2.1-.3-.1-.3-.4 0-.4.1-.6.4-.7v.8c.1-.1.1-.2.1-.4 0-.1 0-.2-.1-.2v-.3c.1 0 .2.1.2.4.1.5-.1.7-.3.8zm0-.3v-.5c-.1 0-.1.2-.1.3-.1.2 0 .3.1.2z"/><path d="m145.8 160.7c-.2.1-.3-.1-.3-.4s.1-.5.2-.6v.3c-.1 0-.1.1-.1.2 0 .2.1.2.2.2.1-.1.2-.2.2-.4 0-.1 0-.2-.1-.2v-.3c.1 0 .2.1.2.4.1.5-.1.7-.3.8z"/><path d="m145.3 159.7v-.3l.1-.1v.3zm.2-.1v-.3l.6-.3v.3z"/><path d="m145.5 159.2v-.2l-.2.1v-.3l.2-.1v-.2h.1v.2l.3-.1s.1-.1.1-.1v-.1h.1v.2c0 .1 0 .3-.1.4l-.4.2v.2z"/><path d="m145.6 158.1c-.1-.1-.1-.1-.1-.3s.1-.4.2-.5l.4-.2v.3l-.4.2c-.1 0-.1.1-.1.2s.1.2.1.2l.3-.1v.3l-.8.4v-.3z"/><path d="m145.3 157.3v-.3l.1-.1v.3zm.2-.1v-.3l.6-.3v.3z"/><path d="m145.6 156.4c-.1-.1-.1-.1-.1-.3s.1-.4.2-.5l.4-.2v.3l-.4.2c-.1 0-.1.1-.1.2s.1.2.1.2l.3-.1v.3l-.6.2z"/><path d="m146.3 155.2c0-.1-.1-.1-.1-.1v.2l-.2.1v-.4l.2-.1s.1.1.1.3z"/><path d="m145.6 154.3c-.1-.1-.1-.1-.1-.3s.1-.4.2-.5l.4-.2v.3l-.4.1c-.1 0-.1.1-.1.2s.1.2.1.2l.3-.1v.3l-.6.2z"/><path d="m146.1 152.5s.1.1.1.3-.1.4-.2.5-.2-.1-.2-.4c0-.2 0-.3-.1-.2 0 0-.1.1-.1.2s0 .2.1.2v.3c-.1 0-.2-.1-.2-.4s.1-.5.2-.6l.3-.1s.1 0 .1-.1zm-.2.1c-.1.1-.1.2-.1.2 0 .1 0 .2.1.2s.1-.1.1-.2c0-.2 0-.2-.1-.2z"/><path d="m145.5 152.3v-.2l-.2.1v-.2l.2-.1v-.2h.1v.2l.3-.1s.1-.1.1-.1v-.1h.1v.2c0 .1 0 .3-.1.4l-.4.1v.2z"/><path d="m146.1 150.6v.3c0 .3-.1.4-.2.5l-.4.2v-.3l.4-.1c.1 0 .1-.1.1-.2s-.1-.2-.1-.2l-.3.1v-.3l.6-.2v.2z"/><path d="m145.6 150c-.1-.1-.1-.1-.1-.2v-.1l.1-.1c0 .2 0 .3.2.3l.3-.1v.3l-.6.2z"/><path d="m146.1 148.7s.1.1.1.3-.1.4-.2.5c-.1 0-.2-.1-.2-.4 0-.2 0-.3-.1-.2 0 0-.1.1-.1.2s0 .2.1.2v.3c-.1 0-.2-.1-.2-.4s.1-.5.2-.6l.3-.1s.1 0 .1-.1zm-.2.1c-.1.1-.1.2-.1.2 0 .1 0 .2.1.2s.1-.1.1-.2c0-.2 0-.2-.1-.2z"/><path d="m145.3 148.5v-.3l.8-.3v.3z"/><path d="m145.5 147.6v-.2h-.1c-.1.1-.2-.1-.2-.4h.1c0 .1 0 .2.1.2v-.2h.1v.2l.5-.2v.3l-.5.2v.2zm-.2-.7v-.3l.8-.3v.3z"/><path d="m146.1 145.5s.1.1.1.3-.1.4-.2.5c-.1 0-.2-.1-.2-.4 0-.2 0-.3-.1-.3 0 0-.1.1-.1.2s0 .2.1.2v.3c-.1 0-.2-.1-.2-.4s.1-.5.2-.6l.3-.1s.1 0 .1-.1zm-.2 0c-.1.1-.1.2-.1.2 0 .2 0 .2.1.2s.1-.1.1-.2 0-.2-.1-.2z"/><path d="m145.5 145.3v-.3l.3-.3c.1-.1.1-.1.1-.1s0 0-.1 0l-.3-.1v-.3l.6.2v.3z"/><path d="m145.8 144.1c-.2.1-.3-.1-.3-.5s.1-.6.3-.7.3.1.3.5c.1.4-.1.7-.3.7zm0-.9c-.1 0-.2.2-.2.3 0 .2.1.3.2.2.1 0 .2-.2.2-.3s0-.2-.2-.2z"/><path d="m146.1 142v.3c0 .3-.1.4-.2.5l-.4.1v-.3l.4-.1c.1 0 .1-.1.1-.2s-.1-.2-.1-.2l-.3.1v-.3l.6-.2v.3z"/><path d="m145.6 141.4c-.1-.1-.1-.1-.1-.3v-.1h.1c0 .2 0 .3.2.3l.3-.1v.3l-.6.2z"/><path d="m145.8 140.6c-.2.1-.4.2-.5.4v-.3c.1-.2.3-.4.5-.5s.4 0 .5.2v.3c-.1 0-.3-.1-.5-.1z"/><path d="m146.3 140c0-.1-.1-.1-.1-.1v.2h-.2v-.3h.2c0-.2.1 0 .1.2z"/><path d="m145.3 139.4v-.7c0-.2 0-.3.1-.4 0-.1.1-.2.2-.2s.1.1.2.2c0-.2.1-.3.2-.4.1 0 .1 0 .2.1 0 .1.1.2.1.4v.7zm.3-.8c0-.1 0-.2-.1-.2s-.1.1-.1.3v.4l.2-.1zm.4.2v-.4c0-.2 0-.2-.1-.2s-.1.1-.1.3v.4z"/><path d="m146.1 137v.3c0 .3-.1.4-.2.5l-.4.1v-.3l.4-.1c.1 0 .1-.1.1-.2s-.1-.2-.1-.2l-.3.1v-.3l.6-.2v.3z"/><path d="m145.5 136.7v-.2l-.2.1v-.3l.2-.1v-.2h.1v.2l.3-.1s.1-.1.1-.1v-.1h.1v.2c0 .1 0 .3-.1.3l-.4.1v.2z"/><path d="m145.5 136v-.2h-.2v-.3h.2v-.2h.1v.2l.3-.1s.1-.1.1-.1v-.1h.1v.2c0 .1 0 .3-.1.3l-.4.1v.2z"/><path d="m145.8 135.2c-.2 0-.3-.1-.3-.5s.1-.6.4-.6v.8c.1 0 .1-.2.1-.3s0-.2-.1-.2v-.3c.1 0 .2.2.2.5.1.3-.1.6-.3.6zm0-.3v-.5c-.1 0-.1.1-.1.3-.1.1 0 .2.1.2z"/><path d="m145.6 133.7c-.1-.1-.1-.1-.1-.3v-.1h.1c0 .2 0 .3.2.3l.3-.1v.3l-.6.1z"/><path d="m145.8 132.8c-.2.1-.4-.1-.5-.2v-.3c.1.1.3.2.5.2.2-.1.4-.2.5-.4v.3c-.1.1-.3.3-.5.4z"/><path d="m145.5 132.1v-.3h.1c-.1 0-.1-.1-.1-.3 0-.1 0-.3.1-.3-.1-.1-.1-.2-.1-.3 0-.2.1-.4.2-.4l.4-.1v.3l-.4.1c-.1 0-.1.1-.1.2s.1.2.1.2l.3-.1v.3l-.4.1c-.1 0-.1.1-.1.2s.1.2.1.2l.3-.1v.3z"/><path d="m145.3 130.3v-.3h.1v.3zm.2 0v-.3l.6-.1v.3z"/><path d="m145.3 129.8v-.3l.8-.2v.3z"/><path d="m145.9 128.8.1.1h.2v.3l-.8.2v-.4l.5-.1-.2-.4v-.4l.2.4.4-.5v.4z"/><path d="m145.8 127.8c-.2 0-.4.2-.5.4v-.3c.1-.2.3-.4.5-.4s.4.1.5.2v.3c-.1-.1-.3-.2-.5-.2z"/><path d="m146.3 127.2c0-.1-.1-.1-.1-.1v.2h-.2v-.3h.2c0-.1.1 0 .1.2z"/><path d="m145.9 126.4v-.3c.1 0 .1-.2.1-.4s0-.3-.1-.3-.1.2-.1.4c0 .3-.1.6-.2.6-.2 0-.3-.2-.3-.6s.1-.6.3-.7v.3c-.1 0-.1.2-.1.3 0 .2 0 .3.1.3s.1-.1.1-.4.1-.6.3-.6.3.2.3.6c-.1.5-.2.8-.4.8z"/><path d="m145.8 125c-.2 0-.3-.2-.3-.5 0-.4.1-.6.3-.6s.3.2.3.5c.1.3-.1.6-.3.6zm0-.9c-.1 0-.2.1-.2.3s.1.3.2.3.2-.1.2-.3 0-.3-.2-.3z"/><path d="m146.2 123.6v-.1c0-.1 0-.2-.1-.2 0 0-.1 0-.2.1l-.4.4v-.3l.3-.2c.1 0 .1-.1.1-.1h-.1l-.3-.1v-.3l.6.3c.1.1.2.1.2.4v.2z"/><path d="m146.1 122.3.1.3-.8.1v-.3l.3-.1c-.1-.1-.1-.1-.1-.3 0-.3.1-.5.3-.5s.3.1.3.4c0 .2-.1.3-.1.4zm-.3-.5c-.1 0-.2.1-.2.3s.1.2.2.2.2-.1.2-.3c0-.1 0-.2-.2-.2z"/><path d="m145.8 121.4c-.2 0-.3-.2-.3-.5 0-.4.1-.6.4-.6v.8c.1 0 .1-.1.1-.3 0-.1 0-.2-.1-.2v-.3c.1 0 .2.2.2.5.1.4-.1.6-.3.6zm0-.2v-.5c-.1 0-.1.1-.1.3-.1.1 0 .1.1.2z"/><path d="m146.1 119.5c0 .1.1.1.1.3s-.1.4-.2.4-.2-.2-.2-.4 0-.3-.1-.3c0 0-.1.1-.1.2s0 .2.1.2v.3c-.1 0-.2-.1-.2-.5 0-.3.1-.5.2-.5h.3s.1 0 .1-.1zm-.2 0c-.1.1-.1.1-.1.2 0 .2 0 .2.1.2s.1-.1.1-.2 0-.2-.1-.2z"/><path d="m145.6 118.8c-.1-.1-.1-.2-.1-.3 0-.2.1-.4.2-.4l.4-.1v.3h-.4c-.1 0-.1.1-.1.2s.1.2.1.2h.3v.3l-.6.1z"/><path d="m146.1 116.8c0 .1.1.1.1.3s-.1.4-.2.4-.2-.2-.2-.4 0-.3-.1-.3c0 0-.1.1-.1.2s0 .2.1.2v.3c-.1 0-.2-.1-.2-.5 0-.3.1-.5.2-.5h.3.1v.3c0-.1 0-.1 0 0zm-.2 0c-.1.1-.1.1-.1.2 0 .2 0 .2.1.2s.1-.1.1-.2 0-.2-.1-.2z"/><path d="m145.6 116c-.1-.1-.1-.2-.1-.3 0-.2.1-.4.2-.4h.4v.3h-.4c-.1 0-.1.1-.1.2s.1.2.1.2h.3v.3l-.6.1z"/><path d="m145.8 115.2c-.2 0-.3-.2-.3-.4s0-.3.1-.3h-.3v-.3l.8-.1v.3h-.1c.1.1.1.2.1.3.1.2-.1.4-.3.5zm0-.9c-.1 0-.2.1-.2.3s.1.2.2.2.2-.1.2-.3c0-.1 0-.2-.2-.2z"/><path d="m145.3 113.4v-.2l.8.5v.2z"/><path d="m145.8 113.2c-.2 0-.3-.2-.3-.6s.1-.6.3-.6.3.2.3.6c.1.3-.1.6-.3.6zm0-.9c-.1 0-.2.1-.2.3s.1.3.2.3.2-.1.2-.3 0-.3-.2-.3z"/><path d="m145.6 111.6c-.1-.1-.1-.1-.1-.3v-.1h.1c0 .2 0 .3.2.3h.3v.3l-.6.1z"/><path d="m145.8 110.8c-.2 0-.3-.2-.3-.5s.1-.5.2-.5v.3c-.1 0-.1.1-.1.2 0 .2.1.3.2.3s.2-.1.2-.3c0-.1 0-.2-.1-.2v-.3c.1 0 .2.2.2.5.1.2-.1.4-.3.5z"/><path d="m146.1 108.8c0 .1.1.1.1.3s-.1.4-.2.4-.2-.2-.2-.4 0-.3-.1-.3c0 0-.1.1-.1.2s0 .2.1.2v.3c-.1 0-.2-.1-.2-.5 0-.3.1-.5.2-.5h.3.1zm-.2 0c-.1.1-.1.1-.1.2 0 .2 0 .2.1.2s.1-.1.1-.2 0-.2-.1-.2z"/><path d="m145.6 108.1c-.1-.1-.1-.2-.1-.3 0-.2.1-.4.2-.4h.4v.3h-.4c-.1 0-.1.1-.1.2s.1.2.1.2h.3v.3h-.6z"/><path d="m145.8 107.2c-.2 0-.3-.2-.3-.6s.1-.6.3-.6.3.2.3.6c.1.4-.1.6-.3.6zm0-.9c-.1 0-.2.1-.2.3s.1.3.2.3.2-.1.2-.3 0-.3-.2-.3z"/><path d="m145.3 105.9v-.3h.8v.3z"/><path d="m146.1 104.7c0 .1.1.1.1.3s-.1.4-.2.4-.2-.2-.2-.4 0-.3-.1-.3c0 0-.1.1-.1.2s0 .2.1.2v.3c-.1 0-.2-.1-.2-.5 0-.3.1-.5.2-.5h.3.1zm-.2 0c-.1.1-.1.1-.1.2 0 .2 0 .2.1.2s.1-.1.1-.2 0-.2-.1-.2z"/><path d="m145.8 103.9c-.2 0-.3-.2-.3-.6s.1-.6.3-.6.3.2.3.6c.1.4-.1.6-.3.6zm0-.9c-.1 0-.2.1-.2.3s.1.3.2.3.2-.1.2-.3 0-.3-.2-.3z"/><path d="m145.3 102.6v-.3h.1v.3zm.2 0v-.3h.6v.3z"/><path d="m145.3 102.1v-.3h.8v.3z"/><path d="m146.3 101.6c0-.1-.1-.2-.1-.2v.2h-.2v-.3h.2s.1.1.1.3z"/><path d="m145.3 100.7v-.3h.7v-.7h.1v1.1z"/><path d="m145.3 99.5v-.3h.1v.3zm.2 0v-.3h.6v.3z"/><path d="m146.1 98.3c0 .1.1.2.1.3 0 .3-.1.5-.3.5s-.3-.2-.3-.5c0-.2 0-.2.1-.3h-.1v-.3h.8v.3zm-.3-.1c-.1 0-.2.1-.2.3s.1.3.2.3.2-.1.2-.2c0-.3 0-.3-.2-.4z"/><path d="m146.1 97.1v.3c0 .3-.1.4-.2.4h-.4v-.3h.4c.1 0 .1-.1.1-.2s-.1-.2-.1-.2h-.3v-.3h.6v.3z"/><path d="m145.3 96.6v-.3h.1v.3zm.2 0v-.3h.6v.3z"/><path d="m145.8 96.1c-.2 0-.3-.2-.3-.5 0-.2 0-.3.1-.3h-.3v-.3h.8v.3h-.1c.1.1.1.2.1.3.1.3-.1.5-.3.5zm0-.8c-.1 0-.2.1-.2.3s.1.3.2.3.2-.1.2-.2c0-.3 0-.4-.2-.4z"/><path d="m145.5 94.5v-.3l.3-.1h.1s-.1 0-.1-.1l-.3-.2v-.3l.3-.1h.1s-.1 0-.1-.1l-.3-.2v-.3l.6.4v.3l-.3.1h-.1s.1 0 .1.1l.3.2v.3z"/><path d="m145.6 92.5c-.1-.1-.1-.2-.1-.3 0-.2.1-.4.2-.4h.4v.3h-.4c-.1 0-.1.1-.1.2s.1.2.1.2h.3v.3h-.8v-.3z"/><path d="m145.8 91.7c-.2 0-.3-.3-.3-.6s.1-.6.3-.6.3.3.3.6-.1.6-.3.6zm0-.9c-.1 0-.2.1-.2.3s.1.3.2.3.2-.1.2-.3 0-.3-.2-.3z"/><path d="m145.3 90.3v-.3l.8.1v.3z"/><path d="m145.8 89.9c-.2 0-.3-.3-.3-.6 0-.4.1-.5.4-.5v.8c.1 0 .1-.1.1-.3 0-.1 0-.2-.1-.2v-.3c.1.1.2.2.2.5.1.4-.1.6-.3.6zm0-.3v-.5c-.1 0-.1.1-.1.2-.1.2 0 .2.1.3z"/><path d="m147.3 165.5c-.2.1-.3-.1-.3-.4 0-.4.1-.6.4-.7v.8c.1-.1.1-.2.1-.4 0-.1 0-.2-.1-.2v-.3c.1 0 .2.1.2.4 0 .4-.1.7-.3.8zm-.1-.3v-.5c-.1 0-.1.2-.1.3 0 .2 0 .2.1.2z"/><path d="m147.6 164.1v-.3s.1-.1.1-.3 0-.2-.1-.2h-.1s.1.1.1.3-.1.5-.3.6-.3-.1-.3-.3c0-.1 0-.3.1-.3h-.1v-.3l.5-.3h.2c0 .1.1.2.1.4 0 .4-.1.7-.2.7zm-.3-.6c-.1 0-.2.2-.2.3 0 .2.1.2.2.2s.2-.2.2-.3c-.1-.2-.2-.2-.2-.2z"/><path d="m147.6 162.9v-.3s.1-.1.1-.3 0-.2-.1-.2h-.1s.1.1.1.3-.1.5-.3.6-.3-.1-.3-.3c0-.1 0-.3.1-.3h-.1v-.3l.5-.2c.1 0 .1 0 .2.1 0 .1.1.2.1.4s-.1.4-.2.5zm-.3-.6c-.1 0-.2.2-.2.3 0 .2.1.2.2.2s.2-.2.2-.3c-.1-.2-.2-.2-.2-.2z"/><path d="m147.7 161.6c0-.1-.1-.1-.1-.1v.2l-.2.1v-.3l.2-.1c.1-.1.1 0 .1.2z"/><path d="m147.3 161v-.3c.1-.1.1-.2.1-.4s0-.3-.1-.3-.1.2-.1.4c0 .3-.1.6-.2.6-.2.1-.2-.1-.2-.5s.1-.6.3-.7v.3c-.1.1-.1.2-.1.4s0 .3.1.2c.1 0 .1-.1.1-.4s.1-.6.3-.7.3.1.3.5c-.2.5-.3.8-.5.9z"/><path d="m147.5 158.8s.1.1.1.3-.1.4-.2.5-.2-.1-.2-.4c0-.2 0-.3-.1-.2 0 0-.1.1-.1.2s0 .2.1.2v.3c-.1 0-.2-.1-.2-.4s.1-.5.2-.6l.3-.1s.1 0 .1-.1zm-.1.1c-.1.1-.1.2-.1.2 0 .1 0 .2.1.2s.1-.1.1-.2c0-.2-.1-.3-.1-.2z"/><path d="m146.8 158.7v-.3l.8-.4v.3z"/><path d="m147 158.1v-.1l-.2.1v-.3l.2-.1v-.2h.1v.2l.3-.1s.1-.1.1-.1v-.1h.1v.2c0 .1 0 .3-.1.4l-.3.1v.2z"/><path d="m147.7 157c0-.1-.1-.1-.1-.1v.2l-.2.1v-.3l.2-.1c.1-.1.1 0 .1.2z"/><path d="m147.3 156.4v-.3c.1-.1.1-.2.1-.4s0-.3-.1-.3-.1.2-.1.4c0 .3-.1.6-.2.6-.2.1-.2-.1-.2-.5s.1-.6.3-.7v.3c-.1.1-.1.2-.1.4s0 .3.1.2c.1 0 .1-.1.1-.4s.1-.6.3-.7.3.1.3.5c-.2.5-.3.8-.5.9z"/><path d="m147.3 155c-.2.1-.3-.1-.3-.5 0-.3.1-.6.3-.7s.3.1.3.5c0 .3-.1.6-.3.7zm0-.9c-.1 0-.2.2-.2.4s.1.3.2.2c.1 0 .2-.2.2-.4 0-.1-.1-.2-.2-.2z"/><path d="m147.6 153.6v-.1c0-.1 0-.2-.1-.1 0 0-.1 0-.2.1l-.4.5v-.3l.3-.3c.1-.1.1-.1.1-.1h-.1l-.3-.1v-.3l.6.2c.1 0 .2.1.2.3v.2z"/><path d="m146.8 152.5v-.3l.8-.3v.3z"/><path d="m147.3 151.8c-.2.1-.3-.1-.3-.4 0-.4.1-.6.4-.7v.8c.1-.1.1-.2.1-.3s0-.2-.1-.2v-.3c.1 0 .2.1.2.4 0 .4-.1.7-.3.7zm-.1-.2v-.5c-.1 0-.1.2-.1.3s0 .2.1.2z"/><path d="m147.3 150.6c-.2.1-.3-.1-.3-.4s.1-.5.2-.6v.3c-.1 0-.1.1-.1.2 0 .2.1.2.2.2s.2-.2.2-.3 0-.2-.1-.2v-.3c.1 0 .2.1.2.4 0 .4-.1.7-.3.7z"/><path d="m146.8 149.6v-.3l.1-.1v.3zm.2-.1v-.3l.6-.2v.3z"/><path d="m147 149.1v-.1l-.2.1v-.3l.2-.1v-.2h.1v.2l.3-.1s.1-.1.1-.1v-.1h.1v.2c0 .1 0 .3-.1.4l-.3.1v.2z"/><path d="m147.1 148c-.1-.1-.1-.1-.1-.3s.1-.4.2-.5l.4-.1v.3l-.4.1c-.1 0-.1.1-.1.2s.1.2.1.2l.3-.1v.3l-.8.3v-.3z"/><path d="m146.8 147.2v-.3h.1v.3zm.2-.1v-.3l.6-.2v.3z"/><path d="m147.1 146.3c-.1-.1-.1-.2-.1-.3 0-.2.1-.4.2-.5l.4-.1v.3l-.4.1c-.1 0-.1.1-.1.2s.1.2.1.2l.3-.1v.3l-.6.2z"/><path d="m147.7 145.2c0-.1-.1-.1-.1-.1v.2l-.2.1v-.4l.2-.1c.1 0 .1.1.1.3z"/><path d="m146.8 144.6v-.7c0-.2 0-.3.1-.4 0-.1.1-.2.2-.2s.1.1.2.2c0-.2.1-.3.2-.4.1 0 .1 0 .2.1 0 .1.1.2.1.4v.7zm.3-.7c0-.1 0-.2-.1-.2s-.1.1-.1.3v.3l.2-.1zm.3.2v-.4c0-.2 0-.2-.1-.2s-.1.1-.1.3v.4z"/><path d="m147.5 142.3s.1.1.1.3-.1.4-.2.4-.2-.1-.2-.4c0-.2 0-.3-.1-.2 0 0-.1.1-.1.2s0 .2.1.2v.3c-.1 0-.2-.1-.2-.4s.1-.5.2-.5l.3-.1s.1 0 .1-.1zm-.1.1c-.1.1-.1.2-.1.2 0 .1 0 .2.1.2s.1-.1.1-.2c0-.2-.1-.2-.1-.2z"/><path d="m147.3 141.5.1.1.2-.1v.3l-.8.3v-.3l.5-.1-.2-.3v-.4l.2.3.4-.6v.4z"/><path d="m146.8 140.9v-.3h.1v.3zm.2-.1v-.3l.6-.2v.3z"/><path d="m147.1 140c-.1-.1-.1-.2-.1-.3 0-.2.1-.4.2-.5l.4-.1v.3l-.4.1c-.1 0-.1.1-.1.2s.1.2.1.2l.3-.1v.3l-.6.2z"/><path d="m147.6 139v-.3s.1-.1.1-.2c0-.2 0-.2-.1-.2h-.1c0 .1.1.1.1.3s-.1.5-.3.6-.3-.1-.3-.4c0-.1 0-.3.1-.3h-.1v-.3l.5-.2c.1 0 .1 0 .2.1 0 .1.1.2.1.4s-.1.4-.2.5zm-.3-.7c-.1 0-.2.1-.2.3s.1.2.2.2.2-.1.2-.3c-.1-.2-.2-.2-.2-.2z"/><path d="m147.4 137.5v-.3c.1 0 .1-.1.1-.3 0-.1 0-.2-.1-.2s-.1.2-.1.3c0 .2 0 .4-.2.4-.1 0-.2-.1-.2-.4s.1-.5.2-.5v.3c-.1 0-.1.1-.1.2s0 .2.1.2.1-.2.1-.3c0-.2 0-.4.2-.4.1 0 .2.1.2.4s-.1.6-.2.6z"/><path d="m147.3 136.4c-.2 0-.3-.2-.3-.5s.1-.6.3-.7c.2 0 .3.2.3.5 0 .4-.1.7-.3.7zm0-.8c-.1 0-.2.2-.2.3 0 .2.1.3.2.2.1 0 .2-.2.2-.3 0-.2-.1-.2-.2-.2z"/><path d="m147.3 135.2c-.2 0-.3-.1-.3-.4 0-.2 0-.3.1-.3l-.3.1v-.3l.8-.2v.3h-.1c.1.1.1.2.1.3 0 .2-.1.4-.3.5zm0-.8c-.1 0-.2.1-.2.3s.1.2.2.2.2-.1.2-.3-.1-.2-.2-.2z"/><path d="m147.5 133.2c0 .1.1.1.1.3s-.1.4-.2.4-.2-.2-.2-.4 0-.3-.1-.3c0 0-.1.1-.1.2s0 .2.1.2v.3c-.1 0-.2-.1-.2-.4s.1-.5.2-.5l.3-.1s.1 0 .1-.1zm-.1 0c-.1.1-.1.1-.1.2 0 .2 0 .2.1.2s.1-.1.1-.2-.1-.2-.1-.2z"/><path d="m147.7 132.7c0-.1-.1-.1-.1-.1v.2h-.2v-.3h.2c.1-.1.1 0 .1.2z"/><path d="m147.1 131.7c-.1-.1-.1-.2-.1-.3 0-.2.1-.4.2-.4l.4-.1v.3l-.4.1c-.1 0-.1.1-.1.2s.1.2.1.2l.3-.1v.3l-.5.1z"/><path d="m147.5 130c0 .1.1.1.1.3s-.1.4-.2.4-.2-.2-.2-.4 0-.3-.1-.3c0 0-.1.1-.1.2s0 .2.1.2v.3c-.1 0-.2-.1-.2-.4s.1-.5.2-.5l.3-.1s.1 0 .1-.1zm-.1 0c-.1.1-.1.1-.1.2 0 .2 0 .2.1.2s.1-.1.1-.2-.1-.2-.1-.2z"/><path d="m147 129.7v-.2h-.2v-.3h.2v-.2h.1v.2l.3-.1s.1-.1.1-.1v-.1h.1v.2c0 .1 0 .3-.1.3l-.3.1v.2z"/><path d="m147.6 128.1v.3c0 .2-.1.4-.2.4l-.4.2v-.3l.4-.1c.1 0 .1-.1.1-.2s-.1-.2-.1-.2l-.3.1v-.3l.6-.1v.2z"/><path d="m147.1 127.4c-.1-.1-.1-.1-.1-.3v-.1h.1c0 .2 0 .3.2.3l.3-.1v.3l-.6.1z"/><path d="m147.5 126.2c0 .1.1.1.1.3s-.1.4-.2.4-.2-.2-.2-.4 0-.3-.1-.3c0 0-.1.1-.1.2s0 .2.1.2v.3c-.1 0-.2-.1-.2-.4s.1-.5.2-.5l.3-.1s.1 0 .1-.1zm-.1.1c-.1.1-.1.1-.1.2 0 .2 0 .2.1.2s.1-.1.1-.2c0-.2-.1-.2-.1-.2z"/><path d="m146.8 125.9v-.3l.8-.2v.3z"/><path d="m147 125.1v-.2h-.1c-.1 0-.2-.2-.2-.5h.1c0 .1 0 .2.1.2v-.2h.1v.2l.5-.1v.3l-.5.1zm-.2-.8v-.3l.8-.1v.3z"/><path d="m147.5 123c0 .1.1.1.1.3s-.1.4-.2.4-.2-.2-.2-.4 0-.3-.1-.3c0 0-.1.1-.1.2s0 .2.1.2v.3c-.1 0-.2-.1-.2-.4s.1-.5.2-.5l.3-.1s.1 0 .1-.1zm-.1.1c-.1.1-.1.1-.1.2 0 .2 0 .2.1.2s.1-.1.1-.2c0-.2-.1-.2-.1-.2z"/><path d="m147 122.8v-.3l.3-.2c.1 0 .1-.1.1-.1s0 0-.1 0l-.3-.2v-.3l.6.3v.3z"/><path d="m147.3 121.6c-.2 0-.3-.2-.3-.5s.1-.6.3-.6.3.2.3.5-.1.6-.3.6zm0-.8c-.1 0-.2.1-.2.3s.1.3.2.3.2-.1.2-.3c0-.3-.1-.3-.2-.3z"/><path d="m147.6 119.6v.3c0 .2-.1.4-.2.4l-.4.1v-.3l.4-.1c.1 0 .1-.1.1-.2s-.1-.2-.1-.2h-.3v-.3l.6-.1v.4z"/><path d="m147.1 118.9c-.1-.1-.1-.1-.1-.3v-.1h.1c0 .2 0 .3.2.3h.3v.3l-.6.1z"/><path d="m147.4 118.5v-.3h.2v.3z"/><path d="m146.8 117.7v-.4l.4-.3c.1-.1.2-.1.2-.1s-.1 0-.2-.1l-.4-.2v-.5l.8-.1v.3l-.5.1c-.1 0-.2 0-.2 0h.2l.5.2v.3l-.5.3c-.1 0-.2.1-.2.1h.2l.5-.1v.3z"/><path d="m147.5 115.2c0 .1.1.1.1.3s-.1.4-.2.4-.2-.2-.2-.4 0-.3-.1-.3c0 0-.1.1-.1.2s0 .2.1.2v.3c-.1 0-.2-.1-.2-.5 0-.3.1-.5.2-.5h.3.1zm-.1 0c-.1.1-.1.1-.1.2 0 .2 0 .2.1.2s.1-.1.1-.2-.1-.2-.1-.2z"/><path d="m147.6 114.7v-.1c0-.1 0-.2-.1-.2 0 0-.1 0-.2.1l-.4.3v-.3l.3-.2c.1 0 .1-.1.1-.1s-.1 0-.1-.1l-.3-.1v-.3l.6.3c.1.1.2.1.2.4v.2z"/><path d="m147.3 113.4c-.2 0-.3-.2-.3-.5s.1-.5.2-.5v.3c-.1 0-.1.1-.1.2 0 .2.1.3.2.3s.2-.1.2-.3c0-.1 0-.2-.1-.2v-.3c.1 0 .2.2.2.5 0 .2-.1.5-.3.5z"/><path d="m147.3 112.2c-.2 0-.3-.2-.3-.6 0-.3.1-.6.3-.6s.3.2.3.6-.1.6-.3.6zm0-.9c-.1 0-.2.1-.2.3s.1.3.2.3.2-.1.2-.3-.1-.3-.2-.3z"/><path d="m147.1 110.6c-.1-.1-.1-.2-.1-.3 0-.2.1-.4.2-.4h.4v.3h-.4c-.1 0-.1.1-.1.2s.1.2.1.2h.3v.3h-.6z"/><path d="m147 109.8v-.2h-.2v-.3h.2v-.2h.1v.2h.3s.1 0 .1-.1v-.1h.1v.2c0 .1 0 .3-.1.3h-.3v.2z"/><path d="m147.5 108.3c0 .1.1.1.1.3s-.1.4-.2.4-.2-.2-.2-.4 0-.3-.1-.3c0 0-.1.1-.1.2s0 .2.1.2v.3c-.1 0-.2-.1-.2-.5 0-.3.1-.5.2-.5h.3.1zm-.1 0c-.1.1-.1.1-.1.2 0 .2 0 .2.1.2s.1-.1.1-.2-.1-.2-.1-.2z"/><path d="m146.8 107.9v-.3h.1v.3zm.2 0v-.3h.6v.3z"/><path d="m147.1 107.1c-.1-.1-.1-.2-.1-.3 0-.2.1-.4.2-.4h.4v.3h-.4c-.1 0-.1.1-.1.2s.1.2.1.2h.3v.3h-.6z"/><path d="m147.1 106.2v-.3h.2v.3zm.3 0v-.3h.2v.3z"/><path d="m146.8 105.3v-.7c0-.2 0-.3.1-.4 0-.1.1-.1.2-.1.2 0 .3.2.3.5v.4h.3v.3zm.3-.3v-.3c0-.2 0-.3-.1-.2-.1 0-.1.1-.1.3v.3z"/><path d="m147.3 104c-.2 0-.3-.2-.3-.5 0-.4.1-.6.4-.6v.8c.1 0 .1-.1.1-.3 0-.1 0-.2-.1-.2v-.3c.1 0 .2.2.2.5 0 .4-.1.6-.3.6zm-.1-.3v-.5c-.1 0-.1.1-.1.2 0 .2 0 .3.1.3z"/><path d="m147.5 102.1c0 .1.1.1.1.3s-.1.4-.2.4-.2-.2-.2-.4 0-.3-.1-.3c0 0-.1.1-.1.2s0 .2.1.2v.3c-.1 0-.2-.2-.2-.5s.1-.5.2-.5h.3.1zm-.1 0c-.1.1-.1.1-.1.2 0 .2 0 .2.1.2s.1-.1.1-.2-.1-.2-.1-.2z"/><path d="m147.1 101.3c-.1-.1-.1-.2-.1-.3 0-.2.1-.4.2-.4h.4v.3h-.4c-.1 0-.1.1-.1.2s.1.2.1.2h.3v.3h-.6z"/><path d="m147.6 99.7v.3c0 .2-.1.4-.2.4h-.4v-.3h.4c.1 0 .1-.1.1-.2s-.1-.2-.1-.2h-.3v-.3h.6v.3z"/><path d="m147 99.3v-.2h-.2v-.3h.2v-.2h.1v.2h.3s.1 0 .1-.1v-.1h.1v.2c0 .1 0 .3-.1.3h-.3v.2z"/><path d="m147.4 98.6v-.3c.1 0 .1-.1.1-.2s0-.2-.1-.2-.1.1-.1.3 0 .4-.2.4c-.1 0-.2-.2-.2-.5s.1-.5.2-.5v.3c-.1 0-.1.1-.1.2s0 .2.1.2.1-.1.1-.3 0-.4.2-.4c.1 0 .2.2.2.5s-.1.5-.2.5z"/><path d="m147.7 97.5c0-.1-.1-.2-.1-.2v.2h-.2v-.3h.2c.1 0 .1.1.1.3z"/><path d="m146.8 96.7v-1.3h.1v.5h.7v.3h-.7v.5z"/><path d="m147.1 95.1c-.1-.1-.1-.2-.1-.3v-.1h.1c0 .2 0 .3.2.3h.3v.3h-.6z"/><path d="m147.3 94.8c-.2 0-.3-.2-.3-.6s.1-.5.4-.5v.8c.1 0 .1-.1.1-.3 0-.1 0-.2-.1-.2v-.3c.1 0 .2.2.2.5 0 .4-.1.6-.3.6zm-.1-.3v-.5c-.1 0-.1.1-.1.2 0 .2 0 .2.1.3z"/><path d="m147.3 93.6c-.2 0-.3-.2-.3-.6s.1-.5.4-.5v.8c.1 0 .1-.1.1-.3 0-.1 0-.2-.1-.2v-.3c.1 0 .2.2.2.5 0 .4-.1.6-.3.6zm-.1-.3v-.5c-.1 0-.1.1-.1.2 0 .2 0 .2.1.3z"/><path d="m147.1 91.7c-.1-.1-.1-.2-.1-.3 0-.2.1-.4.2-.4h.4v.3h-.4c-.1 0-.1.1-.1.2s.1.2.1.2h.3v.3h-.6z"/><path d="m147.6 90.1v.3c0 .2-.1.4-.2.4h-.4v-.3h.4c.1 0 .1-.1.1-.2s-.1-.2-.1-.2h-.3v-.3h.6v.3z"/><path d="m147 89.6v-.2h-.2v-.3h.2v-.1h.1v.2h.3s.1 0 .1-.1v-.1h.1v.2c0 .1 0 .3-.1.3h-.3v.2z"/><path d="m147.4 88.9v-.3c.1 0 .1-.1.1-.2s0-.2-.1-.2-.1.1-.1.3 0 .4-.2.4c-.1 0-.2-.2-.2-.5s.1-.5.2-.5v.3c-.1 0-.1.1-.1.2s0 .2.1.2.1-.1.1-.3 0-.4.2-.4c.1 0 .2.2.2.5s-.1.5-.2.5z"/><path d="m147.4 87.8v-.3h.2v.3z"/><path d="m105 66v-1.5h.2v1.1l.3.1v-1h.2v1l.4.1v-1.1h.2v1.5z"/><path d="m105 64.2v-.4l.8-.5c.1 0 .2-.1.2-.1s-.1 0-.2 0l-.8-.2v-.4l1.4.3v.4l-.8.5c-.1.1-.2.1-.2.1h.2l.7.1v.4z"/><path d="m106 62.6h-.1v-.4h.1c.1 0 .2-.1.2-.2 0-.2-.1-.3-.2-.3l-1-.2v-.5l1 .2c.2.1.4.3.4.7 0 .5-.1.7-.4.7z"/><path d="m105.7 61c-.4-.1-.7-.5-.7-1.2 0-.6.3-.9.7-.8s.7.5.7 1.1c.1.7-.3 1-.7.9zm0-1.5c-.3-.1-.5.1-.5.4 0 .4.2.6.5.7s.5-.1.5-.5-.2-.6-.5-.6z"/><path d="m105.9 58.5-.9.5v-.5l.4-.2c.1 0 .2-.1.2-.1s-.1-.1-.2-.2l-.4-.4v-.4l.9.9.5.1v.4z"/><path d="m105 56.5v-.9c0-.2 0-.4.1-.5s.2-.1.3-.1.2.2.3.4c0-.2.2-.3.3-.3s.2.1.3.3c.1.1.1.3.1.5v.9zm.6-.7c0-.2-.1-.3-.2-.3s-.2.1-.2.3v.5l.3.1v-.6zm.6.6v-.5c0-.2-.1-.3-.2-.4-.1 0-.2.1-.2.3v.5z"/><path d="m105.9 54.4-.9.5v-.5l.4-.2c.1 0 .2-.1.2-.1s-.1-.1-.2-.2l-.4-.4v-.4l.9.9.5.1v.4z"/></g><path d="m100.2 122.9-.2-.1v4.4l2.5-1.9v-2.7z" fill="#4e3d34"/><path d="m149.5 59.5-49.5-15.2v-25.9l49.5 22.2z" fill="#224150"/><path d="m95.4 172.6-42.3-17.3v-49.2l42.3 1.8z" fill="#fff" opacity=".4" stroke="#58595b" stroke-miterlimit="10" stroke-width=".3781"/></svg>