<svg enable-background="new 0 0 450 468" viewBox="0 0 450 468" xmlns="http://www.w3.org/2000/svg" xmlns:xlink="http://www.w3.org/1999/xlink"><linearGradient id="a"><stop offset=".2738" stop-color="#c7aa81"/><stop offset=".629" stop-color="#c5a87f"/><stop offset=".8036" stop-color="#bda17a"/><stop offset=".9384" stop-color="#b09570"/><stop offset="1" stop-color="#a78d6a"/></linearGradient><radialGradient id="b" cx="70.4407" cy="188.4108" gradientUnits="userSpaceOnUse" r="29.056" xlink:href="#a"/><radialGradient id="c" cx="51.6102" cy="205.7932" gradientUnits="userSpaceOnUse" r="29.056" xlink:href="#a"/><radialGradient id="d" cx="-888.3641" cy="553.0607" gradientTransform="matrix(.7233 -.6905 .6905 .7233 336.8615 -775.4821)" gradientUnits="userSpaceOnUse" r="29.056" xlink:href="#a"/><radialGradient id="e" cx="113.4515" cy="211.8419" gradientUnits="userSpaceOnUse" r="26.282" xlink:href="#a"/><radialGradient id="f" cx="116.6542" cy="262.8506" gradientUnits="userSpaceOnUse" r="26.224" xlink:href="#a"/><radialGradient id="g" cx="97.8331" cy="166.274" gradientUnits="userSpaceOnUse" r="28.2442" xlink:href="#a"/><radialGradient id="h" cx="47.332" cy="155.4412" gradientUnits="userSpaceOnUse" r="25.4376" xlink:href="#a"/><radialGradient id="i" cx="13.0541" cy="183.0436" gradientUnits="userSpaceOnUse" r="24.5962" xlink:href="#a"/><radialGradient id="j" cx="12.8924" cy="233.5918" gradientUnits="userSpaceOnUse" r="23.5565" xlink:href="#a"/><radialGradient id="k" cx="41.7066" cy="257.4905" gradientUnits="userSpaceOnUse" r="26.7805" xlink:href="#a"/><radialGradient id="l" cx="14.6967" cy="292.5583" gradientUnits="userSpaceOnUse" r="24.8467" xlink:href="#a"/><radialGradient id="m" cx="51.5344" cy="313.9368" gradientUnits="userSpaceOnUse" r="27.2079" xlink:href="#a"/><linearGradient id="n"><stop offset=".2294" stop-color="#c7aa81"/><stop offset=".6063" stop-color="#c5a87f"/><stop offset=".7916" stop-color="#bda17a"/><stop offset=".9347" stop-color="#b09570"/><stop offset="1" stop-color="#a78d6a"/></linearGradient><radialGradient id="o" cx="78.2731" cy="292.0036" gradientUnits="userSpaceOnUse" r="28.6146" xlink:href="#n"/><radialGradient id="p" cx="108.594" cy="312.2494" gradientUnits="userSpaceOnUse" r="22.6426" xlink:href="#a"/><radialGradient id="q" cx="885.006" cy="188.4108" gradientTransform="matrix(-1 0 0 1 1276.9392 0)" gradientUnits="userSpaceOnUse" r="29.056" xlink:href="#a"/><radialGradient id="r" cx="865.9774" cy="205.1836" gradientTransform="matrix(-1 0 0 1 1276.9392 0)" gradientUnits="userSpaceOnUse" r="29.1517" xlink:href="#a"/><radialGradient id="s" cx="-299.1962" cy="1115.5532" gradientTransform="matrix(-.7233 -.6905 -.6905 .7233 940.0777 -775.4821)" gradientUnits="userSpaceOnUse" r="29.056" xlink:href="#a"/><radialGradient id="t" cx="928.0168" cy="211.8419" gradientTransform="matrix(-1 0 0 1 1276.9392 0)" gradientUnits="userSpaceOnUse" r="26.282" xlink:href="#a"/><radialGradient id="u" cx="931.2195" cy="262.8506" gradientTransform="matrix(-1 0 0 1 1276.9392 0)" gradientUnits="userSpaceOnUse" r="26.224" xlink:href="#a"/><radialGradient id="v" cx="912.3984" cy="166.274" gradientTransform="matrix(-1 0 0 1 1276.9392 0)" gradientUnits="userSpaceOnUse" r="28.2442" xlink:href="#a"/><radialGradient id="w" cx="861.8973" cy="155.4412" gradientTransform="matrix(-1 0 0 1 1276.9392 0)" gradientUnits="userSpaceOnUse" r="25.4376" xlink:href="#a"/><radialGradient id="x" cx="827.6194" cy="183.0436" gradientTransform="matrix(-1 0 0 1 1276.9392 0)" gradientUnits="userSpaceOnUse" r="24.5962" xlink:href="#a"/><radialGradient id="y" cx="827.4577" cy="233.5918" gradientTransform="matrix(-1 0 0 1 1276.9392 0)" gradientUnits="userSpaceOnUse" r="23.5565" xlink:href="#a"/><radialGradient id="z" cx="856.2719" cy="257.4905" gradientTransform="matrix(-1 0 0 1 1276.9392 0)" gradientUnits="userSpaceOnUse" r="26.7805" xlink:href="#a"/><radialGradient id="A" cx="829.262" cy="292.5583" gradientTransform="matrix(-1 0 0 1 1276.9392 0)" gradientUnits="userSpaceOnUse" r="24.8467" xlink:href="#a"/><radialGradient id="B" cx="866.0997" cy="313.9368" gradientTransform="matrix(-1 0 0 1 1276.9392 0)" gradientUnits="userSpaceOnUse" r="27.2079" xlink:href="#a"/><radialGradient id="C" cx="892.8384" cy="292.0036" gradientTransform="matrix(-1 0 0 1 1276.9392 0)" gradientUnits="userSpaceOnUse" r="28.6146" xlink:href="#n"/><radialGradient id="D" cx="923.1593" cy="312.2494" gradientTransform="matrix(-1 0 0 1 1276.9392 0)" gradientUnits="userSpaceOnUse" r="22.6426" xlink:href="#a"/><path d="m98.8 188.3c0 1.5-.2 3-.4 4.4-.2 1.5-.6 2.9-1.1 4.3s-.5 3-1.2 4.3-2.1 2.2-3 3.4-.7 3.4-1.7 4.5c-1.1 1.1-2.9 1.3-4.2 2.2-1.2.9-1.9 2.8-3.2 3.5s-3 1-4.4 1.5-3.1.4-4.6.7c-1.5.2-3 .7-4.5.7s-3-1.1-4.5-1.3-3.2.1-4.6-.3c-1.4-.5-3-.9-4.3-1.6s-2.7-1.6-3.9-2.5-1.9-2.4-3-3.5-1.9-2.3-2.8-3.5-2.2-2.2-2.8-3.6c-.7-1.3-.5-3-1-4.5-.5-1.4-.2-2.9-.5-4.4-.2-1.5-1.4-2.8-1.4-4.3s-.2-3.1 0-4.5c.2-1.5.5-3 1-4.5.5-1.4 1.1-2.9 1.8-4.2s1.2-2.9 2.1-4.1 2.7-1.7 3.7-2.8c1.1-1.1 2.3-1.8 3.6-2.7 1.2-.9 2.6-1.3 3.9-2s2.2-2.5 3.6-3 3.2.8 4.7.6 2.8-1.1 4.3-1.1 3.1-1.1 4.6-.8c1.5.2 3 .9 4.4 1.3 1.4.5 2.8 1.4 4.1 2 1.3.7 2.3 1.9 3.6 2.8 1.2.9 3.3.8 4.4 1.9s.9 3.2 1.8 4.4 2.1 2.2 2.8 3.6c.7 1.3 1.2 2.7 1.7 4.2.5 1.4 1.2 2.8 1.5 4.3.1 1.5-.5 3-.5 4.6z" fill="url(#b)"/><path d="m79.9 205.6c0 1.5-.2 3-.4 4.4-.2 1.5-.6 2.9-1.1 4.3s-.5 3-1.2 4.3-2.1 2.2-3 3.4-.7 3.4-1.7 4.5c-1.1 1.1-2.9 1.3-4.2 2.2-1.2.9-1.9 2.8-3.2 3.5s-3 1-4.4 1.5-3.1.4-4.6.7c-1.5.2-3 .7-4.5.7s-3-1.1-4.5-1.3-3.2.1-4.6-.3c-1.4-.5-3-.9-4.3-1.6s-2.7-1.6-3.9-2.5-1.9-2.4-3-3.5-1.9-2.3-2.8-3.5-2.2-2.2-2.8-3.6c-.7-1.3-.5-3-1-4.5-.5-1.4-.2-2.9-.5-4.4-.2-1.5-1.4-2.8-1.4-4.3s-.2-3.1 0-4.5c.2-1.5.5-3 1-4.5.5-1.4 1.1-2.9 1.8-4.2s1.2-2.9 2.1-4.1 2.7-1.7 3.7-2.8c1.1-1.1 2.3-1.8 3.6-2.7 1.2-.9 2.6-1.3 3.9-2s2.2-2.5 3.6-3 3.2.8 4.7.6 2.8-1.1 4.3-1.1 3.1-1.1 4.6-.8c1.5.2 3 .9 4.4 1.3 1.4.5 2.8 1.4 4.1 2 1.3.7 2.3 1.9 3.6 2.8 1.2.9 3.3.8 4.4 1.9s.9 3.2 1.8 4.4 2.1 2.2 2.8 3.6c.7 1.3 1.2 2.7 1.7 4.2.5 1.4 1.2 2.8 1.5 4.3.2 1.6-.5 3.1-.5 4.6z" fill="url(#c)"/><path d="m96.6 218.3c1.1 1.1 1.9 2.3 2.7 3.5.9 1.2 1.6 2.5 2.2 3.8.7 1.4 1.7 2.5 2.1 4 .4 1.4 0 3 .2 4.5s1.9 2.9 1.9 4.4-1.2 3-1.5 4.4c-.3 1.5.6 3.3.1 4.8-.5 1.4-1.5 2.8-2.2 4.1s-1.9 2.4-2.8 3.6-1.7 2.6-2.8 3.7-2.9 1.3-4.1 2.2-2.2 2.3-3.5 2.9c-1.4.7-2.8 1.4-4.2 1.9-1.4.4-3.1.6-4.5.8-1.5.2-3.1-.4-4.6-.5-1.5 0-3-.3-4.4-.6-1.5-.3-3.1-.1-4.5-.6s-2.5-1.8-3.8-2.6c-1.3-.7-2.2-1.9-3.4-2.9-1.2-.9-2.9-1.1-4-2.2s-2.3-2.1-3.1-3.3c-.9-1.2-1.7-2.6-2.4-3.9-.7-1.4-1.2-2.8-1.6-4.3-.4-1.4-1.1-2.9-1.3-4.4s.8-3.1.8-4.6.5-2.9.7-4.4c.3-1.5 1-2.7 1.5-4.2.5-1.4-.2-3.3.5-4.7.7-1.3 2.9-1.6 3.8-2.9.9-1.2 1.3-2.7 2.4-3.7 1.1-1.1 1.5-2.9 2.8-3.8 1.2-.9 2.8-1.4 4.1-2.1 1.4-.7 2.9-.9 4.4-1.3 1.4-.4 3-.2 4.5-.4s3-1.7 4.5-1.7 2.9 1.7 4.4 2 3 .2 4.4.7 2.8 1.1 4.1 1.8 2.8 1.2 4 2.1c1 1.2 1.6 2.8 2.6 3.9z" fill="url(#d)"/><path d="m109.5 183.9c-.4.1-.9.2-1.3.3-1.5.3-3.4-.8-4.8-.3s-2.3 2.4-3.6 3.2c-1.3.7-2.8 1.1-4 2s-2.6 1.7-3.6 2.8-2.2 2.2-3.1 3.4c-.8 1.2-.6 3.1-1.2 4.5-.7 1.4-.5 2.9-.9 4.4s-2.3 2.6-2.5 4c-.2 1.5 1.1 3 1.2 4.5 0 1.5-.1 2.9.1 4.4.3 1.5.4 2.9.9 4.4.5 1.4.2 3.3.9 4.6s1.9 2.5 2.8 3.7 2 2.4 3.1 3.4 2.4 1.9 3.6 2.8c1.2.8 2.7 1.3 4.1 1.9 1.4.7 3.1.2 4.5.6 1.3.4 2.5 1.1 3.8 1.4z" fill="url(#e)"/><path d="m109.5 234.1c-.2.1-.4.1-.6.2-1.4.5-2.7 1.4-4.1 2.1s-2 2.3-3.2 3.2-2.7 1.3-3.7 2.4c-1.1 1.1-2.7 1.7-3.5 2.9-.9 1.2-1.2 2.8-1.9 4.1s-1.4 2.7-1.8 4.1c-.5 1.4-1.5 2.8-1.8 4.2-.2 1.5-.5 3.1-.5 4.6s.3 3.1.6 4.6c.2 1.5 1.3 2.8 1.8 4.2s.2 3.2.9 4.6 1.8 2.5 2.7 3.7 1.6 2.7 2.7 3.8 2.1 2.4 3.3 3.3 3.2.6 4.6 1.3c1.3.7 2.4 2.3 3.8 2.7.3.1.6.1.9.1v-56.1z" fill="url(#f)"/><path d="m73.7 148.9c-.2.2-.4.4-.5.6-.9 1.2-1.4 2.8-2.1 4.1s-1.3 2.8-1.8 4.2-.7 3-1 4.5c-.2 1.5 0 3 0 4.5s1.1 2.9 1.4 4.3c.2 1.5 0 3 .5 4.4s.3 3.1 1 4.5c.7 1.3 2 2.3 2.8 3.6.9 1.2 1.8 2.4 2.8 3.5 1.1 1.1 1.8 2.6 3 3.5s2.5 1.8 3.9 2.5c1.3.7 2.9 1.1 4.3 1.6s3.1.1 4.6.3 2.9 1.3 4.5 1.3c1.5 0 3.1-.5 4.5-.7 1.5-.2 3.2-.2 4.6-.7 1.1-.3 2.2-.6 3.3-1v-45z" fill="url(#g)"/><path d="m75.1 149-52.5-.1v20.6c.2.3.4.5.6.8.9 1.2 1.8 2.4 2.8 3.5 1.1 1.1 1.8 2.6 3 3.5s2.5 1.8 3.9 2.5c1.3.7 2.9 1.1 4.3 1.6s3.1.1 4.6.3 2.9 1.3 4.5 1.3c1.5 0 3.1-.5 4.5-.7 1.5-.2 3.2-.2 4.6-.7s3.1-.8 4.4-1.5 2-2.6 3.2-3.5 3.1-1.1 4.2-2.2.8-3.3 1.7-4.5 2.3-2.1 3-3.4.8-2.9 1.2-4.3c.5-1.4.8-2.8 1.1-4.3.2-1.5.4-2.9.4-4.4.1-1.5.8-3.1.5-4.5z" fill="url(#h)"/><path d="m38.7 178.7c-.2-1.5-1-2.9-1.5-4.3s-1-2.8-1.7-4.2c-.7-1.3-1.9-2.3-2.8-3.6-.9-1.2-.7-3.4-1.8-4.4-1.1-1.1-3.2-1-4.4-1.9s-2.2-2.1-3.6-2.8c-.1-.1-.2-.1-.4-.2v52.9c.3-.1.6-.2.8-.4 1.3-.7 2-2.6 3.2-3.5s3.1-1.1 4.2-2.2.8-3.3 1.7-4.5 2.3-2.1 3-3.4.8-2.9 1.2-4.3c.5-1.4.8-2.8 1.1-4.3.2-1.5.4-2.9.4-4.4.2-1.5.8-3.1.6-4.5z" fill="url(#i)"/><path d="m37.4 228.7c-.2-1.5-1-2.9-1.5-4.3s-1-2.8-1.7-4.2c-.7-1.3-1.9-2.3-2.8-3.6-.9-1.2-.7-3.4-1.8-4.4s-3.2-1-4.4-1.9c-.9-.7-1.8-1.6-2.7-2.2v51.5c1.1-.8 1.7-2.4 2.8-3.2 1.2-.9 3.1-1.1 4.2-2.2s.8-3.3 1.7-4.5 2.3-2.1 3-3.4.8-2.9 1.2-4.3c.5-1.4.8-2.8 1.1-4.3.2-1.5.4-2.9.4-4.4.1-1.6.8-3.1.5-4.6z" fill="url(#j)"/><path d="m70.5 252.8c-.2-1.5-1-2.9-1.5-4.3s-1-2.8-1.7-4.2c-.7-1.3-1.9-2.3-2.8-3.6-.9-1.2-.7-3.4-1.8-4.4-1.1-1.1-3.2-1-4.4-1.9s-2.2-2.1-3.6-2.8c-1.3-.7-2.6-1.6-4.1-2-1.4-.5-2.9-1.1-4.4-1.3s-3.1.8-4.6.8-2.9.8-4.3 1.1c-1.5.2-3.3-1-4.7-.6-1.4.5-2.3 2.3-3.6 3s-2.7 1.1-3.9 2c-.9.6-1.7 1.2-2.6 1.8v42.6c.6.8 1.1 1.6 1.9 2.1 1.2.9 2.5 1.8 3.9 2.5 1.3.7 2.9 1.1 4.3 1.6s3.1.1 4.6.3 2.9 1.3 4.5 1.3c1.5 0 3.1-.5 4.5-.7 1.5-.2 3.2-.2 4.6-.7s3.1-.8 4.4-1.5 2-2.6 3.2-3.5 3.1-1.1 4.2-2.2.8-3.3 1.7-4.5 2.3-2.1 3-3.4.8-2.9 1.2-4.3c.5-1.4.8-2.8 1.1-4.3.2-1.5.4-2.9.4-4.4.1-1.5.8-3 .5-4.5z" fill="url(#k)"/><path d="m41.4 296c.2-1.5 1.3-3 1.3-4.5-.1-1.5-1.8-2.8-2.1-4.3s0-3.1-.5-4.5-1.6-2.5-2.3-3.8-1.5-2.5-2.4-3.7-1.8-2.3-2.9-3.3-1.8-2.6-3-3.4c-1.3-.9-2.8-1.2-4.2-1.9-.8-.4-1.7-.7-2.5-1v51.4h6c.6-.7 1.2-1.4 2-2 1.2-.9 2.9-1.3 4-2.4 1-1.1 1.7-2.6 2.6-3.8.9-1.3 2-2.4 2.6-3.8s1.5-2.8 1.9-4.2c.2-1.5-.7-3.3-.5-4.8z" fill="url(#l)"/><path d="m23.6 316.7v.3h57.2c.2-.5.3-1 .3-1.6.2-1.5-1-3.1-1-4.6s.9-3.2.6-4.7-2.2-2.5-2.7-4c-.5-1.4-.4-3-1.1-4.4-.7-1.3-1.9-2.3-2.9-3.5-.9-1.2-1.8-2.3-2.9-3.3s-2.1-2-3.4-2.9-2.2-2.3-3.5-3c-1.4-.7-3-.8-4.4-1.2-1.5-.4-2.9-.8-4.4-1s-3 .2-4.5.3c-1.5 0-3.2-1.3-4.7-1s-2.6 2-4 2.5-3 .6-4.3 1.3-2.8 1.3-4 2.2-2.6 1.8-3.6 2.9-1.1 3-1.9 4.3c-.9 1.3-.9 2.8-1.6 4.2s-2.7 2.1-3.1 3.6.6 3.2.4 4.7-.6 2.9-.6 4.4-.2 3 .1 4.5z" fill="url(#m)"/><path d="m106.3 286.6c-.2-1.5.4-3.2-.1-4.6-.5-1.5-1.4-2.8-2-4.1-.7-1.4-1.1-3-2-4.2s-1.7-2.7-2.7-3.8c-1.1-1.1-3.1-1.2-4.3-2.1s-2-2.6-3.3-3.3-3.4.2-4.8-.3-2.6-1.6-4.1-1.8c-1.5-.3-3 .1-4.5.1s-2.9 0-4.4.3c-1.5.2-2.9.4-4.4.9s-3.2.3-4.5.9c-1.4.7-2.5 1.8-3.7 2.7s-2.4 1.8-3.5 2.9-1.7 2.5-2.6 3.7-3 1.7-3.7 3 0 3.3-.5 4.7-1.3 2.7-1.6 4.2-.7 3-.7 4.5-.2 3.1 0 4.6 1.7 2.7 2.2 4.2 1.6 2.5 2.3 3.8c.7 1.4 0 3.5.9 4.7s2.9 1.5 3.9 2.5c1.1 1.1 1.9 2.3 3.1 3.1 1.2.9 2.3 1.9 3.6 2.6.5.3 1 .7 1.5 1.1h22c.6-.6 1.3-1.2 2-1.5 1.4-.7 2.9-.9 4.1-1.7 1.2-.9 2.9-1.2 4-2.3s1.7-2.6 2.5-3.8c.9-1.2 1.8-2.4 2.5-3.7s2-2.5 2.5-3.9 1-3 1.3-4.4c.3-1.5.2-3.1.2-4.6-.1-1.4-1-2.9-1.2-4.4z" fill="url(#o)"/><g fill="#4e3d34"><path d="m25.9 174.7 4.2-1.5 4.2 2.9-1.6 4.6h-4l-2.8-3.2z"/><path d="m33.1 154.5 3.5-4 5.3 2v3.7l-1.2 1.8.5 1.8-3.7 1.3-4.4-3.8z"/><path d="m67.7 223.1 3.6-4 5.3 2v3.7l-1.2 1.8.4 1.8-3.6 1.2-4.5-3.7z"/><path d="m57.5 158.4 6.5-4.3 2.1 2.2-1.3 4.2-2.3-1.1-1.7 2.2-3.3-1.1z"/><path d="m97.9 251.6 6.5-4.3 2.1 2.2-1.3 4.3-2.3-1.1-1.7 2.1-3.3-1z"/><path d="m99 166.5 6.5-4.3 2 2.1-1.2 4.3-2.4-1.1-1.7 2.2-3.2-1.1z"/><path d="m62.8 203 2.9 1.4 1.7-.7 2.7 1.7-4.4 2.9h-3.7v-2.9z"/><path d="m95.6 181.2 3 1.3 1.7-.7 2.7 1.7-4.4 2.9h-3.7v-2.9z"/><path d="m46.9 241.3-.7 4.4-4.7 2.2-3.1-3.6 2-3.5 4.1-.9z"/><path d="m103.5 203.1-.7 4.4-4.7 2.1-3.1-3.6 2-3.5 4.1-.8z"/><path d="m59.3 187.7-.8 4.4-4.6 2.2-3.2-3.6 2-3.5 4.1-.9z"/><path d="m88.7 170-.8 4.4-4.6 2.2-3.1-3.6 2-3.5 4.1-.9z"/><path d="m98.3 285.3 1.7 5.1-4.3 3.6-3.3-1.9-.9-2-1.8-.4.7-3.8 5.5-2z"/><path d="m84 306.5-2 3.5-2.9-1.7.7-5.2 5.2-1.5 1.4 2.8z"/><path d="m44.7 297.3-2.7 1.8-.3 1.9-2.8 1.5-.3-5.3 1.9-3.2 2.5 1.4z"/><path d="m30.6 253.5-2.7 1.9-.3 1.8-2.8 1.6-.3-5.3 1.9-3.3 2.5 1.5z"/><path d="m74.5 282.2-2.2-3.9 2.4-4.6 4.6.9.6 4-2.6 3.2z"/><path d="m42 275.1-4.5-3 1.2-5.5 3.7-.6 1.9 1 1.8-.7 1.7 3.4-3 4.9z"/><path d="m63 297.1-5.2-5.9 1.9-2.3 4.4.6-.8 2.5 2.4 1.4-.6 3.4z"/><path d="m73.4 248.4-5.2-5.8 1.9-2.3 4.4.6-.8 2.4 2.4 1.4-.6 3.4z"/><path d="m42.9 215.9-5.2-5.8 1.8-2.3 4.4.6-.7 2.4 2.4 1.4-.6 3.4z"/><path d="m52.3 257.9 1-3.1-1-1.6 1.3-3 3.5 4 .6 3.7-2.9.4z"/><path d="m90.8 241.2 1-3.1-1-1.6 1.3-3 3.5 4 .6 3.7-2.9.4z"/><path d="m100.9 228 .9-3.2-.9-1.6 1.2-2.9 3.6 4 .5 3.7-2.9.4z"/><path d="m25 194.3-2.4-2.7v6.8h.1l2.9-.4z"/><path d="m24.8 221.5-1.7.7-.5-.3v4.2h.5l4.4-3z"/><path d="m27.9 278.9-5.3-2v9.9l.8.7 3.7-1.2-.5-1.8 1.3-1.8z"/><path d="m57.1 317v-.1l-3.5-3.9-1.3 2.9.7 1.1z"/><path d="m109.5 266.2-3 .4.6 4-.7 3.1 2.9 1.3.2-.2z"/><path d="m83.6 148.9-.4 2.3 1.8.5.9 2 3.2 1.8 4.4-3.5-1-3.1z"/></g><path d="m109.5 282.9c-.5.1-1.1.2-1.6.3-1.5.2-2.7 1.6-4.1 2-1.4.5-2.9.5-4.3 1.1-1.4.7-3 .8-4.3 1.7-1.2.9-2 2.3-3.1 3.4s-2.1 2.1-3 3.3-2.3 2.1-3 3.5c-.7 1.3-1.4 2.8-1.9 4.2s-.6 3-.9 4.5c-.2 1.5.4 3.1.4 4.6s-.8 3.1-.6 4.6c0 .3.1.6.2.9h26v-34.1z" fill="url(#p)"/><path d="m109.5 304h-.1l-3.7.5-1.3 5.5 4.6 3 .5-.1z" fill="#4e3d34"/><path d="m363.6 188.3c0 1.5.2 3 .4 4.4.2 1.5.6 2.9 1.1 4.3s.5 3 1.2 4.3 2.1 2.2 3 3.4.7 3.4 1.7 4.5c1.1 1.1 2.9 1.3 4.2 2.2 1.2.9 1.9 2.8 3.2 3.5s3 1 4.4 1.5 3.1.4 4.6.7c1.5.2 3 .7 4.5.7s3-1.1 4.5-1.3 3.2.1 4.6-.3c1.4-.5 3-.9 4.3-1.6s2.7-1.6 3.9-2.5 1.9-2.4 3-3.5 1.9-2.3 2.8-3.5 2.2-2.2 2.8-3.6c.7-1.3.5-3 1-4.5.5-1.4.2-2.9.5-4.4.2-1.5 1.4-2.8 1.4-4.3s.2-3.1 0-4.5c-.2-1.5-.5-3-1-4.5-.5-1.4-1.1-2.9-1.8-4.2s-1.2-2.9-2.1-4.1-2.7-1.7-3.7-2.8c-1.1-1.1-2.3-1.8-3.6-2.7-1.2-.9-2.6-1.3-3.9-2s-2.2-2.5-3.6-3-3.2.8-4.7.6-2.8-1.1-4.3-1.1-3.1-1.1-4.6-.8c-1.5.2-3 .9-4.4 1.3-1.4.5-2.8 1.4-4.1 2-1.3.7-2.3 1.9-3.6 2.8-1.2.9-3.3.8-4.4 1.9s-.9 3.2-1.8 4.4-2.1 2.2-2.8 3.6c-.7 1.3-1.2 2.7-1.7 4.2-.5 1.4-1.2 2.8-1.5 4.3-.2 1.5.5 3 .5 4.6z" fill="url(#q)"/><path d="m381.7 205.6c0 1.5 0 3.1.3 4.6.2 1.5.6 3 1 4.5.5 1.4 1.5 2.7 2.2 4s.9 3.1 1.8 4.3 3.1 1.3 4.1 2.4c1.1 1.1 1.5 2.8 2.7 3.7s3.1.6 4.4 1.2c1.3.7 2.5 1.5 3.9 2s2.7 1.2 4.2 1.4 2.9 0 4.4 0 3.1.8 4.5.6c1.5-.2 2.8-1.3 4.2-1.8s2.7-1.2 4-1.9 2.6-1.3 3.8-2.2 2.8-1.3 3.9-2.3c1.1-1.1 2.1-2.2 3-3.4s1.2-2.8 1.9-4.1 2-2.4 2.5-3.9c.5-1.4 1.4-2.9 1.6-4.4s-.7-3.1-.7-4.7c0-1.5-.5-3-.7-4.4-.2-1.5-.7-2.9-1.1-4.3-.5-1.4-1-2.8-1.7-4.1s-1.7-2.4-2.6-3.6-1-3-2.1-4.1-2.1-2.3-3.3-3.2-2.4-2-3.8-2.7c-1.3-.7-3.3 0-4.7-.4-1.4-.5-2.5-2.4-4-2.6s-3.1.4-4.7.4-2.9 1.3-4.4 1.5-2.9.3-4.4.7c-1.4.5-2.9.7-4.2 1.4s-2.9 1-4.1 1.9-1.4 2.9-2.5 4-3.2 1.2-4 2.4c-.9 1.2-1.3 2.8-2 4.1s-1.3 2.7-1.8 4.1-.4 2.9-.6 4.4c-.1 1.6-1 3-1 4.5z" fill="url(#r)"/><path d="m365.8 218.3c-1.1 1.1-1.9 2.3-2.7 3.5-.9 1.2-1.6 2.5-2.2 3.8-.7 1.4-1.7 2.5-2.1 4-.4 1.4 0 3-.2 4.5s-1.9 2.9-1.9 4.4 1.2 3 1.5 4.4c.3 1.5-.6 3.3-.1 4.8.5 1.4 1.5 2.8 2.2 4.1s1.9 2.4 2.8 3.6 1.7 2.6 2.8 3.7 2.9 1.3 4.1 2.2 2.2 2.3 3.5 2.9c1.4.7 2.8 1.4 4.2 1.9 1.4.4 3.1.6 4.5.8 1.5.2 3.1-.4 4.6-.5s3-.3 4.4-.6c1.5-.3 3.1-.1 4.5-.6s2.5-1.8 3.8-2.6c1.3-.7 2.2-1.9 3.4-2.9 1.2-.9 2.9-1.1 4-2.2s2.3-2.1 3.1-3.3c.9-1.2 1.7-2.6 2.4-3.9.7-1.4 1.2-2.8 1.6-4.3.4-1.4 1.1-2.9 1.3-4.4s-.8-3.1-.8-4.6-.5-2.9-.7-4.4c-.3-1.5-1-2.7-1.5-4.2-.5-1.4.2-3.3-.5-4.7-.7-1.3-2.9-1.6-3.8-2.9-.9-1.2-1.3-2.7-2.4-3.7-1.1-1.1-1.5-2.9-2.8-3.8-1.2-.9-2.8-1.4-4.1-2.1-1.4-.7-2.9-.9-4.4-1.3-1.4-.4-3-.2-4.5-.4s-3-1.7-4.5-1.7-2.9 1.7-4.4 2-3 .2-4.4.7-2.8 1.1-4.1 1.8-2.8 1.2-4 2.1c-1 1.2-1.6 2.8-2.6 3.9z" fill="url(#s)"/><path d="m352.9 183.9c.4.1.9.2 1.3.3 1.5.3 3.4-.8 4.8-.3s2.3 2.4 3.6 3.2c1.3.7 2.8 1.1 4 2s2.6 1.7 3.6 2.8 2.2 2.2 3.1 3.4c.8 1.2.6 3.1 1.2 4.5.7 1.4.5 2.9.9 4.4s2.3 2.6 2.5 4c.2 1.5-1.1 3-1.2 4.5 0 1.5.1 2.9-.1 4.4-.3 1.5-.4 2.9-.9 4.4-.5 1.4-.2 3.3-.9 4.6s-1.9 2.5-2.8 3.7-2 2.4-3.1 3.4-2.4 1.9-3.6 2.8c-1.2.8-2.7 1.3-4.1 1.9-1.4.7-3.1.2-4.5.6-1.3.4-2.5 1.1-3.8 1.4z" fill="url(#t)"/><path d="m352.9 234.1c.2.1.4.1.6.2 1.4.5 2.7 1.4 4.1 2.1s2 2.3 3.2 3.2 2.7 1.3 3.7 2.4c1.1 1.1 2.7 1.7 3.5 2.9.9 1.2 1.2 2.8 1.9 4.1s1.4 2.7 1.8 4.1c.5 1.4 1.5 2.8 1.8 4.2.2 1.5.5 3.1.5 4.6s-.3 3.1-.6 4.6c-.2 1.5-1.3 2.8-1.8 4.2s-.2 3.2-.9 4.6-1.8 2.5-2.7 3.7-1.6 2.7-2.7 3.8-2.1 2.4-3.3 3.3-3.2.6-4.6 1.3c-1.3.7-2.4 2.3-3.8 2.7-.3.1-.6.1-.9.1v-56.1z" fill="url(#u)"/><path d="m388.7 148.9c.2.2.4.4.5.6.9 1.2 1.4 2.8 2.1 4.1s1.3 2.8 1.8 4.2.7 3 1 4.5c.2 1.5 0 3 0 4.5s-1.1 2.9-1.4 4.3c-.2 1.5 0 3-.5 4.4s-.3 3.1-1 4.5c-.7 1.3-2 2.3-2.8 3.6-.9 1.2-1.8 2.4-2.8 3.5-1.1 1.1-1.8 2.6-3 3.5s-2.5 1.8-3.9 2.5c-1.3.7-2.9 1.1-4.3 1.6s-3.1.1-4.6.3-2.9 1.3-4.5 1.3-3.1-.5-4.5-.7c-1.5-.2-3.2-.2-4.6-.7-1.1-.3-2.2-.6-3.3-1v-45z" fill="url(#v)"/><path d="m387.2 149s.1-.1 0 0l52.5-.1v20.6c-.2.3-.4.5-.6.8-.9 1.2-1.8 2.4-2.8 3.5-1.1 1.1-1.8 2.6-3 3.5s-2.5 1.8-3.9 2.5c-1.3.7-2.9 1.1-4.3 1.6s-3.1.1-4.6.3-2.9 1.3-4.5 1.3c-1.5 0-3.1-.5-4.5-.7-1.5-.2-3.2-.2-4.6-.7s-3.1-.8-4.4-1.5-2-2.6-3.2-3.5-3.1-1.1-4.2-2.2-.8-3.3-1.7-4.5-2.3-2.1-3-3.4-.8-2.9-1.2-4.3c-.5-1.4-.8-2.8-1.1-4.3-.2-1.5-.4-2.9-.4-4.4s-.7-3.1-.5-4.5z" fill="url(#w)"/><path d="m423.7 178.7c.2-1.5 1-2.9 1.5-4.3s1-2.8 1.7-4.2c.7-1.3 1.9-2.3 2.8-3.6.9-1.2.7-3.4 1.8-4.4 1.1-1.1 3.2-1 4.4-1.9s2.2-2.1 3.6-2.8c.1-.1.2-.1.4-.2v52.9c-.3-.1-.6-.2-.8-.4-1.3-.7-2-2.6-3.2-3.5s-3.1-1.1-4.2-2.2-.8-3.3-1.7-4.5-2.3-2.1-3-3.4-.8-2.9-1.2-4.3c-.5-1.4-.8-2.8-1.1-4.3-.2-1.5-.4-2.9-.4-4.4-.2-1.5-.9-3.1-.6-4.5z" fill="url(#x)"/><path d="m424.9 228.7c.2-1.5 1-2.9 1.5-4.3s1-2.8 1.7-4.2c.7-1.3 1.9-2.3 2.8-3.6.9-1.2.7-3.4 1.8-4.4s3.2-1 4.4-1.9c.9-.7 1.8-1.6 2.7-2.2v51.5c-1.1-.8-1.7-2.4-2.8-3.2-1.2-.9-3.1-1.1-4.2-2.2s-.8-3.3-1.7-4.5-2.3-2.1-3-3.4-.8-2.9-1.2-4.3c-.5-1.4-.8-2.8-1.1-4.3-.2-1.5-.4-2.9-.4-4.4 0-1.6-.7-3.1-.5-4.6z" fill="url(#y)"/><path d="m391.9 252.8c.2-1.5 1-2.9 1.5-4.3s1-2.8 1.7-4.2c.7-1.3 1.9-2.3 2.8-3.6.9-1.2.7-3.4 1.8-4.4 1.1-1.1 3.2-1 4.4-1.9s2.2-2.1 3.6-2.8c1.3-.7 2.6-1.6 4.1-2 1.4-.5 2.9-1.1 4.4-1.3s3.1.8 4.6.8 2.9.8 4.3 1.1c1.5.2 3.3-1 4.7-.6 1.4.5 2.3 2.3 3.6 3s2.7 1.1 3.9 2c.9.6 1.7 1.2 2.6 1.8v42.6c-.6.8-1.1 1.6-1.9 2.1-1.2.9-2.5 1.8-3.9 2.5-1.3.7-2.9 1.1-4.3 1.6s-3.1.1-4.6.3-2.9 1.3-4.5 1.3-3.1-.5-4.5-.7c-1.5-.2-3.2-.2-4.6-.7s-3.1-.8-4.4-1.5-2-2.6-3.2-3.5-3.1-1.1-4.2-2.2-.8-3.3-1.7-4.5-2.3-2.1-3-3.4-.8-2.9-1.2-4.3c-.5-1.4-.8-2.8-1.1-4.3-.2-1.5-.4-2.9-.4-4.4-.1-1.5-.8-3-.5-4.5z" fill="url(#z)"/><path d="m421 296c-.2-1.5-1.3-3-1.3-4.5s1.8-2.8 2.1-4.3 0-3.1.5-4.5 1.6-2.5 2.3-3.8 1.5-2.5 2.4-3.7 1.8-2.3 2.9-3.3 1.8-2.6 3-3.4c1.3-.9 2.8-1.2 4.2-1.9.8-.4 1.7-.7 2.5-1v51.4h-6c-.6-.7-1.2-1.4-2-2-1.2-.9-2.9-1.3-4-2.4-1-1.1-1.7-2.6-2.6-3.8-.9-1.3-2-2.4-2.6-3.8s-1.5-2.8-1.9-4.2c-.3-1.5.7-3.3.5-4.8z" fill="url(#A)"/><path d="m438.8 316.7v.3h-57.2c-.2-.5-.3-1-.3-1.6-.2-1.5 1-3.1 1-4.6s-.9-3.2-.6-4.7 2.2-2.5 2.7-4c.5-1.4.4-3 1.1-4.4.7-1.3 1.9-2.3 2.9-3.5.9-1.2 1.8-2.3 2.9-3.3s2.1-2 3.4-2.9 2.2-2.3 3.5-3c1.4-.7 3-.8 4.4-1.2 1.5-.4 2.9-.8 4.4-1s3 .2 4.5.3c1.5 0 3.2-1.3 4.7-1s2.6 2 4 2.5 3 .6 4.3 1.3 2.8 1.3 4 2.2 2.6 1.8 3.6 2.9 1.1 3 1.9 4.3c.9 1.3.9 2.8 1.6 4.2s2.7 2.1 3.1 3.6-.6 3.2-.4 4.7.6 2.9.6 4.4.1 3-.1 4.5z" fill="url(#B)"/><path d="m356.1 286.6c.2-1.5-.4-3.2.1-4.6.5-1.5 1.4-2.8 2-4.1.7-1.4 1.1-3 2-4.2s1.7-2.7 2.7-3.8c1.1-1.1 3.1-1.2 4.3-2.1s2-2.6 3.3-3.3 3.4.2 4.8-.3 2.6-1.6 4.1-1.8c1.5-.3 3 .1 4.5.1s2.9 0 4.4.3c1.5.2 2.9.4 4.4.9s3.2.3 4.5.9c1.4.7 2.5 1.8 3.7 2.7s2.4 1.8 3.5 2.9 1.7 2.5 2.6 3.7 3 1.7 3.7 3 0 3.3.5 4.7 1.3 2.7 1.6 4.2.7 3 .7 4.5.2 3.1 0 4.6-1.7 2.7-2.2 4.2-1.6 2.5-2.3 3.8c-.7 1.4 0 3.5-.9 4.7s-2.9 1.5-3.9 2.5c-1.1 1.1-1.9 2.3-3.1 3.1-1.2.9-2.3 1.9-3.6 2.6-.5.3-1 .7-1.5 1.1h-22c-.6-.6-1.3-1.2-2-1.5-1.4-.7-2.9-.9-4.1-1.7-1.2-.9-2.9-1.2-4-2.3s-1.7-2.6-2.5-3.8c-.9-1.2-1.8-2.4-2.5-3.7s-2-2.5-2.5-3.9-1-3-1.3-4.4c-.3-1.5-.2-3.1-.2-4.6.1-1.4.9-2.9 1.2-4.4z" fill="url(#C)"/><path d="m436.5 174.7-4.2-1.5-4.2 2.9 1.6 4.6h4l2.8-3.2z" fill="#4e3d34"/><path d="m429.3 154.5-3.6-4-5.3 2v3.7l1.3 1.8-.5 1.8 3.7 1.3 4.4-3.8z" fill="#4e3d34"/><path d="m394.6 223.1-3.5-4-5.3 2v3.7l1.2 1.8-.5 1.8 3.7 1.2 4.4-3.7z" fill="#4e3d34"/><path d="m404.9 158.4-6.6-4.3-2 2.2 1.3 4.2 2.3-1.1 1.7 2.2 3.3-1.1z" fill="#4e3d34"/><path d="m364.5 251.6-6.6-4.3-2 2.2 1.3 4.3 2.3-1.1 1.7 2.1 3.3-1z" fill="#4e3d34"/><path d="m363.4 166.5-6.5-4.3-2 2.1 1.2 4.3 2.3-1.1 1.8 2.2 3.2-1.1z" fill="#4e3d34"/><path d="m399.6 203-2.9 1.4-1.7-.7-2.8 1.7 4.5 2.9h3.7v-2.9z" fill="#4e3d34"/><path d="m366.7 181.2-2.9 1.3-1.7-.7-2.8 1.7 4.5 2.9h3.7v-2.9z" fill="#4e3d34"/><path d="m415.5 241.3.7 4.4 4.7 2.2 3.1-3.6-2-3.5-4.1-.9z" fill="#4e3d34"/><path d="m358.9 203.1.7 4.4 4.6 2.1 3.2-3.6-2-3.5-4.1-.8z" fill="#4e3d34"/><path d="m403.1 187.7.8 4.4 4.6 2.2 3.1-3.6-2-3.5-4.1-.9z" fill="#4e3d34"/><path d="m373.7 170 .7 4.4 4.7 2.2 3.1-3.6-2-3.5-4.1-.9z" fill="#4e3d34"/><path d="m364.1 285.3-1.8 5.1 4.4 3.6 3.3-1.9.9-2 1.8-.4-.8-3.8-5.4-2z" fill="#4e3d34"/><path d="m378.4 306.5 2 3.5 2.8-1.7-.6-5.2-5.2-1.5-1.5 2.8z" fill="#4e3d34"/><path d="m417.7 297.3 2.7 1.8.3 1.9 2.8 1.5.3-5.3-1.9-3.2-2.5 1.4z" fill="#4e3d34"/><path d="m431.8 253.5 2.7 1.9.3 1.8 2.8 1.6.3-5.3-1.9-3.3-2.5 1.5z" fill="#4e3d34"/><path d="m387.9 282.2 2.1-3.9-2.3-4.6-4.7.9-.6 4 2.7 3.2z" fill="#4e3d34"/><path d="m420.4 275.1 4.5-3-1.2-5.5-3.7-.6-2 1-1.7-.7-1.7 3.4 3 4.9z" fill="#4e3d34"/><path d="m399.3 297.1 5.3-5.9-1.9-2.3-4.4.6.7 2.5-2.4 1.4.6 3.4z" fill="#4e3d34"/><path d="m388.9 248.4 5.3-5.8-1.9-2.3-4.4.6.7 2.4-2.4 1.4.6 3.4z" fill="#4e3d34"/><path d="m419.5 215.9 5.2-5.8-1.8-2.3-4.5.6.8 2.4-2.4 1.4.6 3.4z" fill="#4e3d34"/><path d="m410.1 257.9-1-3.1.9-1.6-1.2-3-3.6 4-.5 3.7 2.9.4z" fill="#4e3d34"/><path d="m371.5 241.2-.9-3.1.9-1.6-1.2-3-3.6 4-.5 3.7 2.9.4z" fill="#4e3d34"/><path d="m361.5 228-.9-3.2.9-1.6-1.3-2.9-3.5 4-.5 3.7 2.9.4z" fill="#4e3d34"/><path d="m437.3 194.3 2.4-2.7v6.8l-2.9-.4z" fill="#4e3d34"/><path d="m437.6 221.5 1.7.7.4-.3v4.2h-.4l-4.4-3z" fill="#4e3d34"/><path d="m434.5 278.9 5.2-2v9.9l-.8.7-3.6-1.2.4-1.8-1.2-1.8z" fill="#4e3d34"/><path d="m405.2 317v-.1l3.6-3.9 1.2 2.9-.6 1.1z" fill="#4e3d34"/><path d="m352.9 266.2 2.9.4-.6 4 .7 3.1-2.9 1.3-.1-.2z" fill="#4e3d34"/><path d="m378.8 148.9.4 2.3-1.8.5-.9 2-3.2 1.8-4.4-3.5 1-3.1z" fill="#4e3d34"/><path d="m352.9 282.9c.5.1 1.1.2 1.6.3 1.5.2 2.7 1.6 4.1 2 1.4.5 2.9.5 4.3 1.1 1.4.7 3 .8 4.3 1.7 1.2.9 2 2.3 3.1 3.4s2.1 2.1 3 3.3 2.3 2.1 3 3.5c.7 1.3 1.4 2.8 1.9 4.2s.6 3 .9 4.5c.2 1.5-.4 3.1-.4 4.6s.8 3.1.6 4.6c0 .3-.1.6-.2.9h-26v-34.1z" fill="url(#D)"/><path d="m352.9 304h.1l3.7.5 1.2 5.5-4.5 3-.5-.1z" fill="#4e3d34"/><path d="m190.6 67.8v84.1h81.2v-84.1zm40.6 28.9c-4.8 0-8.7-3.9-8.7-8.7s3.9-8.7 8.7-8.7 8.7 3.9 8.7 8.7-3.9 8.7-8.7 8.7z" fill="#d9c7a8"/><path d="m190.6 398.2v-84.1h81.2v84.1zm40.6-29c-4.8 0-8.7 3.9-8.7 8.7s3.9 8.7 8.7 8.7 8.7-3.9 8.7-8.7-3.9-8.7-8.7-8.7z" fill="#d9c7a8"/><path d="m190.6 105.7h81.2v16.9h-81.2z" fill="#2c4e5f"/><path d="m241 109.5c-.3.5-.7.8-1 1.1-.1.1-.2.2-.3.1s-.1-.2 0-.3c0-.2.1-.4.1-.7.1-.2 0-.4-.2-.4-.2-.1-.2.2-.3.3s-.1.2-.1.3c-.2.9-.1 1.9-.2 2.8 0 .1 0 .4.2.3.2 0 .2-.2.2-.3 0-.2 0-.5 0-.7s.1-.6.3-.6.2.3.3.5c.1.5.3.9.6 1.3.4.4.7.5 1.1.1.2-.2.5-.4.5-.7.1-.5.3-.3.5-.2s.2.2.2.4c.1.4.3.7.6.8.2.1.3.1.3-.2s0-.5-.3-.8c.4 0 .7 0 .8.4.1.3.3.6.7.7.1 0 .3.1.3-.1.1-.1.1-.2 0-.4s-.3-.4-.4-.6c.3-.1.5-.1.7.1s.6.3.9.3c.1 0 .2 0 .3-.2 0-.1-.1-.2-.1-.3-.1-.2-.3-.2-.5-.3 0-.1.1-.1.1-.1.2-.2.5-.2.6-.6s-.1-.8-.5-.9c-.5-.2-.9-.1-1.2.3-.1.2-.1.3 0 .5.2.2.3.4.6.3.2-.1.4-.2.4-.4 0-.1 0-.2-.2-.3-.1 0-.3-.1-.4 0s0 .2.1.2c.1.1 0 .1 0 .2-.1.1-.2 0-.3-.1s-.2-.2-.1-.3c.2-.2.4-.4.7-.3s.5.2.6.5c0 .3-.1.5-.4.6-.2.1-.3.1-.5.2-1.3.3-2.5.2-3.7-.4-.2-.1-.3-.2-.5-.2s-.4.1-.5.3-.1.4.1.5c.1.1.1.1.2.1.1-.1.1-.1 0-.2s-.1-.3 0-.4.2-.1.3 0 .2.2.2.3c0 .3-.2.6-.4.9-.3.3-.5.3-.7-.1-.2-.3-.3-.6-.5-1-.4-1.1-.4-1.1.3-2 .3.2.5.1.5-.3z" fill="#fdea00"/><path d="m232.2 109.7c-.1-.3-.1-.5-.3-.5s-.3.1-.5.3c-.1.1-.1.1-.2.2 0 .1-.2.1-.1.2s.2 0 .3 0c.1-.1.1-.2.2-.1s0 .2.1.3v.3c0 1-.2 2.1-.3 3.1 0 .1-.1.3.1.3s.3-.1.3-.3c.2-.8.5-1.7.3-2.6 0-.3 0-.7.2-1 .1-.1.1-.2.2-.2s.1.1.1.2c.1.8.1 1.6 0 2.4 0 .4-.1.7-.1 1.1 0 .1-.1.3.1.3.1 0 .3 0 .3-.2 0-.1.1-.2.1-.3.1-1 .4-2 .7-3 0-.1.1-.3.2-.3s.1.2.2.3c.1.3.1.7.1 1-.1.7-.2 1.3-.4 1.9 0 .1-.2.3.1.4.2 0 .4 0 .4-.3.2-1 .3-1.9.2-2.9 0-.3-.1-.6-.2-.8-.2-.4-.3-.4-.6 0s-.4.8-.6 1.2c-.1-.4-.1-.8-.2-1.1-.2-.3-.4-.4-.7-.1.1 0 .1 0 0 .2z" fill="#fdea00"/><path d="m235.8 115.5c.2 0 .3-.1.4-.2.2-.1.3-.1.3.1v.7c0 .8-.1 1.6-.2 2.4 0 .1-.1.3.2.4.2 0 .3-.1.3-.3.1-.7.1-1.4.2-2.1 0-.3.1-.6.3-.9 0-.1.1-.2.2-.2s.1.1.1.2c.1.9.1 1.8 0 2.7 0 .1-.1.4.2.4.2 0 .3-.1.3-.3.1-.5 0-1.1 0-1.6 0-.4 0-.9.2-1.3 0-.1.1-.2.2-.2s.1.1.2.2c.1.4.2.7.2 1.1 0 .6 0 1.2.1 1.8 0 .3.2.6.5.7.2.1.4.1.6-.1.3-.3.4-.6.3-1-.1-.2-.1-.4-.3-.4s-.3.2-.4.4c0 .1-.1.2.1.3.1 0 .1-.1.1-.2 0-.2.1-.4.3-.2s.1.4 0 .6-.3.4-.6.4c-.2 0-.4-.1-.4-.3-.1-.2-.1-.4-.1-.6.1-.7.1-1.3.2-2 0-.3 0-.6-.1-.9-.1-.2-.2-.3-.5-.4-.4 0-.5.3-.7.5 0-.4-.2-.6-.5-.6s-.4.3-.6.5c-.1-.2-.1-.5-.4-.4-.3.3-.5.6-.7.8z" fill="#f8a353"/><path d="m217.3 108.9c-.2.2-.3.2-.5.3-.7.2-1.4.3-2.1.6-.6.3-1.1.7-1.3 1.3-.1.3.1.7.4.9.2.1.6 0 .8-.2.1-.3.1-.7-.2-.8-.1-.1-.2-.1-.2 0v.1c.2.2 0 .3-.1.5-.1.1-.2.1-.3 0-.1-.2-.2-.3-.1-.5.2-.4.6-.6 1-.8.5-.2.5-.2.5.3 0 1.2-.1 2.3-.1 3.5 0 .1 0 .3.2.3s.3-.2.3-.3c0-.5 0-1.1.1-1.6 0-.2 0-.5.1-.7s.4 0 .7-.1h.1c0-.1 0-.1-.1-.2-.1 0-.2-.1-.2-.1-.5-.2-.5-.1-.5-.7.1-.7.1-.7.8-1 .5-.2.5-.2.6.3v.1c0 .1.1.2.2.1.1 0 .1-.1.1-.2-.2-.4-.2-.7-.2-1.1z" fill="#fdea00"/><path d="m222.2 113.1c.2-.8.3-1.5.6-2.3.1.1.1.2.1.3 0 .6.1 1.2.1 1.8 0 .1 0 .4.2.2.2-.1.3-.3.3-.6-.1-.7-.1-1.5-.2-2.2 0-.2 0-.3-.2-.3s-.2.1-.3.2c-.2.5-.5 1-.6 1.5-.1-.5-.3-.9-.3-1.4 0-.2 0-.3-.2-.3s-.3.1-.3.3c0 .1-.1.2-.1.3-.1.7-.1 1.4-.3 2 0 .2 0 .3.2.5 0-.7.1-1.3.3-1.9.1.6.3 1.3.7 1.9z" fill="#fdea00"/><path d="m230.5 114.8c-.2.3-.2.3-.5.2-.5-.1-.9.2-1.1.5s-.1.7.3 1.1c.1.1.3.2.4.4.1.1.3.3.4.4.2.3.2.7.1 1.1-.1.3-.4.4-.7.3-.3 0-.5-.2-.6-.5s0-.6.3-.7c.2-.1.3-.1.4.1.1.1.1.2 0 .4-.1.1-.2.1-.2.2.4 0 .5-.1.5-.4 0-.2-.1-.4-.4-.4-.4 0-.8.2-.8.6 0 .6.2 1 .8 1.1.7.1 1.3-.3 1.4-.9.1-.5-.1-.8-.5-1.2-.3-.3-.6-.6-.9-.9-.2-.2-.1-.4 0-.6s.3-.3.5-.3.2.2.2.3 0 .2.1.1c.1 0 .1-.1.1-.1.1-.3.2-.5.2-.8z" fill="#f8a353"/><path d="m246.2 115.1c.2.1.3.2.2.4-.1.3-.2.7-.2 1s-.3.2-.4.2c-.2 0-.2-.2-.2-.3 0-.4.1-.8.2-1.2 0-.1 0-.3-.1-.3s-.3 0-.3.1c-.1.1-.1.3-.1.4-.1 1-.2 2-.2 3 0 .1-.1.3.1.3s.3-.1.3-.3c0-.4.1-.7.1-1.1 0-.1 0-.3.2-.3s.4.1.4.4v.4c0 .1 0 .3.2.3s.1-.2.1-.3c.1-.9.1-1.8.3-2.7 0-.2-.1-.3-.3-.2 0 .1-.1.2-.3.2z" fill="#f8a353"/><path d="m230.3 109.4c-.3.2-.5.1-.7.1s-.4 0-.6.1c-.5.2-.6.7-.1 1.1.3.2.5.4.6.8.1.3-.1.6-.3.7-.3 0-.7-.2-.7-.5 0-.2.1-.2.2-.3s.2 0 .2 0c.1.1.1.2 0 .3v.1h.1c.1-.1.2-.2.1-.4-.1-.3-.4-.3-.7-.2-.2 0-.4.2-.4.4 0 .4.3.6.7.8.3.1.6.2.9-.1s.4-.6.2-1.1c-.2-.3-.5-.6-.7-.8s0-.4.1-.5c.2-.1.3-.1.4.1 0 .1.1.2.2.2s.2-.1.2-.3c.2-.2.3-.3.3-.5z" fill="#fdea00"/><path d="m225.2 117.2c0 .4.1.8.3 1 .3.3.8.3 1.1.1.1-.1.2-.2.1-.3s-.2 0-.2.1c-.3.2-.5.2-.6-.1-.3-.6 0-1.2.1-1.8.1-.3.2-.5.4-.7.1-.1.2-.2.3 0 0 .1 0 .2.2.2.2-.1.1-.2.1-.3s0-.2 0-.3 0-.2-.1-.2c-.5.2-1 .2-1.2.8-.3.5-.4 1-.5 1.5z" fill="#f8a353"/><path d="m224 111.2v1.1c0 .4.1.7.2 1 .1.2.2.2.3.1.2-.2.4-.3.6-.4.1 0 .1-.1.1-.1s-.1-.1-.1-.1c-.1 0-.2 0-.3 0-.2.1-.3 0-.3-.2 0-.1 0-.2 0-.2 0-.2-.1-.4 0-.6.1-.3.4-.1.6-.2.1 0 .2 0 .2-.2 0-.1-.1-.1-.2 0-.1 0-.2 0-.3.1-.1 0-.2 0-.2-.1-.1-.3-.1-.7 0-1s.4-.1.5-.1.2 0 .1-.1c0-.1-.1-.1-.2-.1-.2 0-.4 0-.6 0-.3-.1-.4 0-.5.3.1.1.1.4.1.8z" fill="#fdea00"/><path d="m222.6 117.7c-.2-.3-.7.3-.7-.2-.1-.4 0-.8.6-.8-.1-.3-.5 0-.5-.4 0-.2 0-.5.1-.6.3-.3.5 0 .7.2.1-.3 0-.5-.1-.8-.1.4-.3.4-.5.4s-.4 0-.6 0c-.1 0-.4 0-.2.3.1.1 0 .3 0 .5 0 .4-.1.8 0 1.2 0 .2 0 .4-.2.6.5-.1.9-.3 1.4-.4z" fill="#f8a353"/><path d="m223.1 119c.3-.2.7-.3 1.2-.3.4 0 .7-.3.5-.7 0-.1-.1-.1-.2 0-.1.4-.5.3-.8.5-.3.1-.3 0-.3-.3.1-.7 0-1.4.1-2.1 0-.1 0-.3-.2-.3-.1 0-.4 0-.3.3v.3z" fill="#f8a353"/><path d="m242.6 109c-.3-.1-.6.1-.8.1-.4-.1-.4.2-.5.4-.1.6-.1 1.2.1 1.7.1.3.3.4.5.2s.4-.3.7-.3c.1 0 .2-.1.1-.2 0-.1-.1-.1-.2-.1s-.1 0-.2.1c-.3.1-.4 0-.4-.3 0-.2.1-.2.3-.2.1 0 .3 0 .3-.2s-.2-.2-.3-.2c-.3 0-.3-.1-.3-.3s.1-.3.3-.4c.1-.1.3-.2.4-.3z" fill="#fdea00"/><path d="m244.9 115.6c-.2.1-.3.2-.5.2-.2-.1-.4.1-.6.2-.4.3-.7 1.2-.6 1.7.1.4.4.7.7.7s.5-.2.6-.5c-.2 0-.5.1-.6-.2-.4-.6 0-1.5.6-1.7.1.1-.1.4.2.4.1-.3.2-.5.2-.8z" fill="#f8a353"/><path d="m248.4 116.6c-.2-.1-.3-.1-.4 0-.1 0-.2.1-.2-.1-.1-.3 0-.5.3-.6h.3c.1 0 .2 0 .2-.1s-.1-.1-.2-.1c-.2 0-.4.1-.6.1-.4 0-.5.2-.5.5-.1.6 0 1.2 0 1.8 0 .1 0 .3.2.3.4.1.8-.1 1.2-.3-.2 0-.4 0-.6.1-.2 0-.3 0-.3-.2 0-.3 0-.6.1-.9-.1-.4.3-.3.5-.5z" fill="#f8a353"/><path d="m242.7 109.7c.1.1.2.1.3.1.3 0 .4.1.3.4-.1.4-.2.7-.2 1.1 0 .2 0 .3.2.4.2 0 .2-.1.3-.3 0-.2.1-.4.1-.6.1-.4 0-1 .7-1 0 0 .1 0 .1-.1.1-.1.2-.1.1-.2 0-.1-.1-.1-.2-.1-.4 0-.7 0-1.1 0-.2 0-.4.1-.6.3z" fill="#fdea00"/><path d="m228.1 117.9c-.2-.2-.5 0-.6-.2-.2-.4 0-.8.5-.8.2 0 .4 0 .4-.2s-.3-.1-.4-.1-.3.1-.3-.1.1-.4.1-.7c0-.1.2-.1.3-.1.2 0 .1.2.3.2.1-.4.1-.5-.3-.4-.2 0-.4 0-.6 0-.1 0-.2 0-.2.2-.1.5-.2.9-.2 1.4-.1.8.1 1 .9.8z" fill="#f8a353"/><path d="m233.8 115.5c-.2.1-.4.1-.3.2.1.3-.1.7-.1 1 0 .4.3.6.7.5.2-.1.2-.1.3.1 0 .1.2.1.3.1s.1-.1.1-.2c0-.5.1-1 .1-1.5 0-.1 0-.2-.2-.2-.1 0-.2 0-.2.2v.4c0 .3-.1.6-.3.9-.1.1-.2.2-.3.1-.1 0-.1-.2-.1-.3-.1-.5-.1-.9 0-1.3z" fill="#f8a353"/><path d="m224.1 117v.3c.1.2.2.2.4.2.1 0 .2-.1.2-.2.1-.5.1-1 .2-1.5 0-.1 0-.3-.2-.4-.2 0-.3.1-.3.3-.1.5-.2.9-.3 1.3z" fill="#f8a353"/><path d="m233.5 117.8c-.6 0-1.1.1-1.7.1-.1 0-.1.1-.2.1-.1.1 0 .2 0 .2.1.1.1 0 .2 0 .3 0 .5-.1.8-.1h1.7c.2 0 .3 0 .4-.1s.1-.1.1-.2-.1 0-.2 0c-.3-.1-.7 0-1.1 0z" fill="#f8a353"/><path d="m227.7 109.8c0 .1 0 .2.1.2s.2-.1.2-.1c.2-.2.2-.5.3-.7 0-.1.1-.2 0-.2s-.3 0-.3.1c-.1.2-.2.4-.3.7z" fill="#fdea00"/><path d="m244.7 111.5c-.3.1-.5.2-.6.5v.2c.1.1.2.1.3 0 .2-.1.4-.4.4-.6 0 0 0-.1-.1-.1z" fill="#fdea00"/><path d="m224.5 114.5c-.1 0-.3.1-.3.3s.2.3.3.3c.2 0 .3-.2.3-.3 0-.2-.1-.2-.3-.3z" fill="#f8a353"/><path d="m247.5 115.3s0 .1.1.1c.4-.2.7-.4 1.1-.6 0 0 0-.1-.1-.1-.4.1-.7.3-1.1.6z" fill="#f8a353"/><path d="m221.7 115.1c.3-.1.5-.2.8-.4.1 0 .1-.1 0-.2h-.1c-.3.2-.6.3-.7.6z" fill="#f8a353"/><path d="m248.1 112.4c.1.4.1.4.8 0-.3-.1-.6.2-.8 0z" fill="#fdea00"/><path d="m247.4 112.4c.1.1.1.3.3.2.1-.1.2-.2.1-.3s-.1.2-.2.1c-.1-.2-.2-.1-.4-.1v.4c.1 0 0-.2.2-.3z" fill="#fdea00"/><path d="m220.4 115.5c-1-1-2-.9-3.1-.4-.3.2-.5.4-.4.8.1.3.5.6.7.5.3-.1.3-.3.3-.6-.1.1-.1.2-.1.2-.1.1-.1.3-.3.2-.2 0-.2-.2-.2-.3-.1-.4.3-.8.7-.9.1 0 .3-.1.4 0s.1.2 0 .3 0 .2 0 .3c.1 1 0 1.9 0 2.9 0 .4-.3.3-.5.3-.3 0-.2-.2-.1-.3.1-.4-.1-.7-.4-.9-.2-.2-.3-.1-.4.1-.1.4 0 .7.3 1.1-.6-.2-1.2-.3-1.4-1-.1-.3-.3-.5-.6-.6-.3 0-.4.1-.4.3-.1.4.3.8.7.8.3 0 .5.2.8.4-.2.1-.4.1-.6.3-.1.1-.2 0-.2.2 0 .1.1.2.2.2.3.1.6.1.9 0 .3-.2.6-.2 1-.2h.3c.2 0 .4-.2.5.2 0 .1.2.1.3.1.4-.2.9-.3 1.2-.7.1-.2.2-.4.4-.5.6-.9.6-2.1 0-2.8zm-4.9 2.6c-.2 0-.5-.4-.4-.5 0-.1 0-.1.1-.1s.5.4.5.5c-.1.1-.1.1-.2.1zm1.1.9c-.1.2-.3.1-.4.2-.1 0-.3 0-.3-.1.1-.2.3-.2.5-.2.1 0 .3 0 .2.1zm.8-.4c-.1 0-.3-.3-.3-.6 0-.1 0-.2.1-.2.2.1.3.3.3.5.1.1.1.3-.1.3zm1.8.2c-.1.1-.2.3-.3-.1-.1-.6 0-1.2 0-1.7 0-.6.1-1.1 0-1.6 0-.3.1-.3.3-.2.5.3.9.7 1 1.3.3.9-.2 1.9-1 2.3z" fill="#f8a353"/><path d="m228.2 112.4c-.1-.3-.3-.4-.6-.3s-.3.3-.2.5c0 .1 0 .2.1.2s.1-.1.1-.2-.1-.2.1-.2.2.1.2.3c0 .3-.2.5-.4.7-.2.1-.3.1-.4-.1-.1-.3-.1-.6-.3-.9-.2-.4-.1-.8.1-1.2.4-.9.5-1.6-.7-1.8-.3-.1-.4 0-.4.3-.1 1.2-.2 2.4-.3 3.6 0 .2 0 .4.1.7.2-.1.3-.3.4-.5.1-.4.1-.8.1-1.2 0-.1.1-.3.2-.3.2 0 .1.2.1.3.1.4.2.9.4 1.3s.7.5 1 .1c.4-.4.5-.8.4-1.3zm-1.9-.7c-.1 0-.1 0 0 0 0-.6.1-1.2.1-1.8 0-.1 0-.2.1-.2s.1.1.2.1c.3.4.4 1 0 1.4-.1.2-.3.4-.4.5z" fill="#fdea00"/><path d="m212.8 118.8c0-.8.1-1.6 0-2.4-.1-1.5 0-3 0-4.4 0-.9.1-1.8 0-2.6-.2.1-.4.1-.6 0-.3 0-.4.1-.4.4v1.1c-.2.8-.1 1.6-.1 2.4.1 1.4.2 2.8 0 4.1-.1.5-.1 1.1 0 1.6 0 .1 0 .3.2.3.3.1.6.1.9 0 .2-.2 0-.3 0-.5zm-.1-7.2c-.1 2.3-.2 4.6 0 6.9v.4c0 .1 0 .3-.2.3s-.2-.1-.2-.3c0-.3 0-.6 0-.9.1-2.3 0-4.5-.1-6.7 0 2.7.2 5.3-.1 8-.2-.1-.1-.2-.1-.4 0-.6 0-1.3.1-1.9.1-1.3 0-2.6-.1-3.9 0-.7-.1-1.4.2-2.1.1-.3 0-.7 0-1.1 0-.2 0-.3.3-.3.2 0 .3 0 .4.3-.2.5-.2 1.1-.2 1.7z" fill="#fff"/><path d="m221.4 113.6c0-.1-.1-.1-.2-.1-.2 0-.2-.1-.3-.2-.2-.4-.3-.9-.5-1.3-.1-.2-.1-.3 0-.5.5-1.1.3-2.1-1.2-2.3-.2 0-.4 0-.4.3v.8c.1 1.1.3 2.1.4 3.2 0 .3.1.5.4.7.1-.3 0-.6 0-.9s0-.6-.1-.9c0-.2.1-.3.2-.3.2-.1.2.1.3.2.2.4.4.8.6 1.3v.3c-.2.3 0 .3.2.3s.3-.1.4-.2c.1-.3.2-.3.2-.4zm-1.8-1.7h-.1c-.1-.7-.1-1.4-.2-2.1 0-.3.1-.2.3-.2.3.1.4.3.4.6.2.6 0 1.1-.4 1.7z" fill="#fdea00"/><path d="m250.5 110c0-.6-.1-.6-.6-.5-.3 0-.2.4-.3.6-.2 2.1 0 4.3-.1 6.6v2.1.2c.3.1.5.2.8.1s.2-.3.2-.5c0-1.7 0-3.4.1-5.1.2-1.1 0-2.3-.1-3.5zm-.4 8.9c-.3.1-.4 0-.4-.3 0-1.2.1-2.3 0-3.5-.1-1.4-.1-2.7-.1-4.1 0-.4 0-.7 0-1.1 0-.2.2-.3.3-.3.3 0 .1.2.1.3-.1 1 .1 2.1 0 2.7-.1 1.6 0 2.7-.1 3.9 0 .6.1 1.3.2 1.9.1.3.2.4 0 .5zm.3.2c-.3-3-.1-6.1-.1-9.2.3.6.4 8.9.1 9.2z" fill="#fff"/><path d="m243.2 118.7c-.1-.2-.1-.4-.2-.7-.2-.4-.4-.8-.1-1.4.4-.8-.2-1.7-1.1-1.6-.1 0-.4 0-.3.2.2.2.1.4.1.6 0 .6-.1 1.2-.1 1.8v.8c0 .1-.1.3.2.3.2 0 .3-.1.3-.3 0-.3 0-.5.1-.7 0-.1 0-.2.1-.2s.1.1.1.2c.2.4.4.8.6 1.1 0 .1.1.2.2.1.1 0 .2-.1.1-.2zm-1.1-1.6c0-.5 0-.9 0-1.4 0-.1 0-.3.1-.3s.2.1.3.2c.3.5.1 1.1-.4 1.5z" fill="#f8a353"/><path d="m239 113.4c-.1-.3-.2-.6-.4-.8-.4-.4-.4-.8-.2-1.3.3-.8 0-1.2-.8-1.4-.4-.1-.6 0-.6.4v.5c0 .7.2 1.3.2 2v.8c0 .2.1.3.3.3s.2-.2.2-.3c0-.2 0-.5 0-.7 0-.1-.1-.3.1-.4s.3.1.4.2c.3.2.5.6.7.9 0 .1.1.2.2.1 0-.1-.1-.2-.1-.3zm-1.1-1.7s-.1.1-.2.1-.1-.1-.1-.2c0-.3-.1-.6-.1-1 .1-.1-.1-.4.1-.4s.4.2.4.4c.2.3.1.7-.1 1.1z" fill="#fdea00"/><path d="m218.8 113.5c0-.4-.1-.9-.2-1.3-.2-.6-.4-1.2-.4-1.9 0-.1 0-.3-.2-.3s-.3.1-.3.3c-.2.6-.5 1.2-.8 1.9-.2.5-.4 1-.4 1.6.2-.1.2-.2.3-.3 0-.3.2-.5.3-.8.1-.4.5-.2.7-.3.3 0 .2.2.3.4.1.4.1.7.5.9.1 0 .1.1.2.1.1-.2 0-.3 0-.3zm-1.3-1.5c-.1 0-.1-.1-.1-.2.1-.3.2-.5.4-.8.1.3.1.5.1.6 0 .2-.1.4-.4.4z" fill="#fdea00"/><path d="m236.8 112.4c-.1-.9-.3-1.7-.6-2.5-.1-.2-.1-.5-.4-.4-.2 0-.4.2-.5.5-.1.6-.3 1.1-.4 1.7-.1.4-.2.8-.1 1.3.3-.1.2-.3.2-.4.1-.7.1-.8.7-.9.2-.1.3 0 .4.2 0 .3 0 .6.2.8.1.1.2.3.4.3.2-.2.1-.4.1-.6zm-1.3-1.1c-.1 0-.2-.1-.1-.2.1-.3.2-.6.2-.9h.1c.1.2.1.4.2.6 0 .3-.1.5-.4.5z" fill="#fdea00"/><path d="m241.1 117.8c-.1-.6-.3-1.2-.3-1.8 0-.1 0-.3-.2-.3s-.3 0-.5.1c-.2.4-.5.8-.6 1.2-.1.2-.2.3-.1.6.2 0 .2-.2.2-.3.1-.4.4-.2.7-.2.2 0 .2.2.2.3 0 .2.1.4.1.5.1.2.2.3.4.2s.1-.2.1-.3zm-1.3-1c.1-.3.2-.5.4-.7.3.5.3.7-.4.7z" fill="#f8a353"/><path d="m233.1 115.9c-.3-.4-1-.6-1.7-.4.4.1.3.3.3.4-.1.4-.1.8-.1 1.2 0 .1 0 .2.2.2.5-.1 1-.4 1.2-.8.2-.2.2-.4.1-.6zm-.3.4c0 .1 0 .2-.1.2-.1.2-.3.5-.5.5s-.1-.4 0-.6c0-.2.1-.4.1-.6 0-.1 0-.1.1-.2.1.1.4.5.4.7z" fill="#f8a353"/><path d="m190.6 343.3h81.2v16.9h-81.2z" fill="#2c4e5f"/><path d="m221.4 356.4c.3-.5.7-.8 1-1.1.1-.1.2-.2.3-.1s.1.2 0 .3c0 .2-.1.4-.1.7-.1.2 0 .4.2.4.2.1.2-.2.3-.3s.1-.2.1-.3c.2-.9.1-1.9.2-2.8 0-.1 0-.4-.2-.3-.2 0-.2.2-.2.3v.7c0 .2-.1.6-.3.6s-.2-.3-.3-.5c-.1-.5-.3-.9-.6-1.3-.4-.4-.7-.5-1.1-.1-.2.2-.5.4-.5.7-.1.5-.3.3-.5.2s-.2-.2-.2-.4c-.1-.4-.3-.7-.6-.8-.2-.1-.3-.1-.3.2s0 .5.3.8c-.4 0-.7 0-.8-.4-.1-.3-.3-.6-.7-.7-.1 0-.3-.1-.3.1-.1.1-.1.2 0 .4s.3.4.4.6c-.3.1-.5.1-.7-.1s-.6-.3-.9-.3c-.1 0-.2 0-.3.2 0 .1.1.2.1.3.1.2.3.2.5.3 0 .1-.1.1-.1.1-.2.2-.5.2-.6.6s.1.8.5.9c.5.2.9.1 1.2-.3.1-.2.1-.3 0-.5-.2-.2-.3-.4-.6-.3-.2.1-.4.2-.4.4 0 .1 0 .2.2.3.1 0 .3.1.4 0s0-.2-.1-.2c-.1-.1 0-.1 0-.2.1-.1.2 0 .3.1s.2.2.1.3c-.2.2-.4.4-.7.3s-.5-.2-.6-.5c0-.3.1-.5.4-.6.2-.1.3-.1.5-.2 1.3-.3 2.5-.2 3.7.4.2.1.3.2.5.2s.4-.1.5-.3.1-.4-.1-.5c-.1-.1-.1-.1-.2-.1-.1.1-.1.1 0 .2s.1.3 0 .4-.2.1-.3 0-.2-.2-.2-.3c0-.3.2-.6.4-.9.3-.3.5-.3.7.1.2.3.3.6.5 1 .4 1.1.4 1.1-.3 2-.3-.2-.5 0-.5.3z" fill="#fdea00"/><path d="m230.2 356.2c.1.3.1.5.3.5s.3-.1.5-.3l.2-.2c0-.1.2-.1.1-.2s-.2 0-.3 0c-.1.1-.1.2-.2.1s0-.2-.1-.3c0-.1 0-.2 0-.3 0-1 .2-2.1.3-3.1 0-.1.1-.3-.1-.3s-.3.1-.3.3c-.2.8-.5 1.7-.3 2.6 0 .3 0 .7-.2 1-.1.1-.1.2-.2.2s-.1-.1-.1-.2c-.1-.8-.1-1.6 0-2.4 0-.4.1-.7.1-1.1 0-.1.1-.3-.1-.3-.1 0-.3 0-.3.2 0 .1-.1.2-.1.3-.1 1-.4 2-.7 3 0 .1-.1.3-.2.3s-.1-.2-.2-.3c-.1-.3-.1-.7-.1-1 .1-.7.2-1.3.4-1.9 0-.1.2-.3-.1-.4-.2 0-.4 0-.4.3-.2 1-.3 1.9-.2 2.9 0 .3.1.6.2.8.2.4.3.4.6 0s.4-.8.6-1.2c.1.4.1.8.2 1.1.2.3.4.4.7.1-.1.1-.1 0 0-.2z" fill="#fdea00"/><path d="m226.6 350.4c-.2 0-.3.1-.4.2-.2.1-.3.1-.3-.1s0-.5 0-.7c0-.8.1-1.6.2-2.4 0-.1.1-.3-.2-.4-.2 0-.3.1-.3.3-.1.7-.1 1.4-.2 2.1 0 .3-.1.6-.3.9 0 .1-.1.2-.2.2s-.1-.1-.1-.2c-.1-.9-.1-1.8 0-2.7 0-.1.1-.4-.2-.4-.2 0-.3.1-.3.3-.1.5 0 1.1 0 1.6 0 .4 0 .9-.2 1.3 0 .1-.1.2-.2.2s-.1-.1-.2-.2c-.1-.4-.2-.7-.2-1.1 0-.6 0-1.2-.1-1.8 0-.3-.2-.6-.5-.7-.2-.1-.4-.1-.6.1-.3.3-.4.6-.3 1 .1.2.1.4.3.4s.3-.2.4-.4c0-.1.1-.2-.1-.3-.1 0-.1.1-.1.2 0 .2-.1.4-.3.2s-.1-.4 0-.6.3-.4.6-.4c.2 0 .4.1.4.3.1.2.1.4.1.6-.1.7-.1 1.3-.2 2 0 .3 0 .6.1.9.1.2.2.3.5.4.4 0 .5-.3.7-.5 0 .4.2.6.5.6s.4-.3.6-.5c.1.2.1.5.4.4.3-.3.5-.6.7-.8z" fill="#f8a353"/><path d="m245.1 357.1c.2-.2.3-.2.5-.3.7-.2 1.4-.3 2.1-.6.6-.3 1.1-.7 1.3-1.3.1-.3-.1-.7-.4-.9-.2-.1-.6 0-.8.2-.1.3-.1.7.2.8.1.1.2.1.2 0v-.1c-.2-.2 0-.3.1-.5.1-.1.2-.1.3 0 .1.2.2.3.1.5-.2.4-.6.6-1 .8-.5.2-.5.2-.5-.3 0-1.2.1-2.3.1-3.5 0-.1 0-.3-.2-.3s-.3.2-.3.3c0 .5 0 1.1-.1 1.6 0 .2 0 .5-.1.7s-.4 0-.7.1h-.1c0 .1 0 .1.1.2.1 0 .2.1.2.1.5.2.5.1.5.7-.1.7-.1.7-.8 1-.5.2-.5.2-.6-.3 0 0 0 0 0-.1s-.1-.2-.2-.1c-.1 0-.1.1-.1.2.2.3.2.7.2 1.1z" fill="#fdea00"/><path d="m240.2 352.8c-.2.8-.3 1.5-.6 2.3-.1-.1-.1-.2-.1-.3 0-.6-.1-1.2-.1-1.8 0-.1 0-.4-.2-.2-.2.1-.3.3-.3.6.1.7.1 1.5.2 2.2 0 .2 0 .3.2.3s.2-.1.3-.2c.2-.5.5-1 .6-1.5.1.5.3.9.3 1.4 0 .2 0 .3.2.3s.3-.1.3-.3c0-.1.1-.2.1-.3.1-.7.1-1.4.3-2 0-.2 0-.3-.2-.5 0 .7-.1 1.3-.3 1.9-.1-.6-.3-1.3-.7-1.9z" fill="#fdea00"/><path d="m231.9 351.1c.2-.3.2-.3.5-.2.5.1.9-.2 1.1-.5s.1-.7-.3-1.1c-.1-.1-.3-.2-.4-.4-.1-.1-.3-.3-.4-.4-.2-.3-.2-.7-.1-1.1.1-.3.4-.4.7-.3.3 0 .5.2.6.5s0 .6-.3.7c-.2.1-.3.1-.4-.1-.1-.1-.1-.2 0-.4.1-.1.2-.1.2-.2-.4 0-.5.1-.5.4 0 .2.1.4.4.4.4 0 .8-.2.8-.6 0-.6-.2-1-.8-1.1-.7-.1-1.3.3-1.4.9-.1.5.1.8.5 1.2.3.3.6.6.9.9.2.2.1.4 0 .6s-.3.3-.5.3-.2-.2-.2-.3 0-.2-.1-.1c-.1 0-.1.1-.1.1-.2.3-.2.5-.2.8z" fill="#f8a353"/><path d="m216.1 350.8c-.2-.1-.3-.2-.2-.4.1-.3.2-.7.2-1s.3-.2.4-.2c.2 0 .2.2.2.3 0 .4-.1.8-.2 1.2 0 .1 0 .3.1.3s.3 0 .3-.1c.1-.1.1-.3.1-.4.1-1 .2-2 .2-3 0-.1.1-.3-.1-.3s-.3.1-.3.3c0 .4-.1.7-.1 1.1 0 .1 0 .3-.2.3s-.4-.1-.4-.4c0-.1 0-.3 0-.4s0-.3-.2-.3-.1.2-.1.3c-.1.9-.1 1.8-.3 2.7 0 .2.1.3.3.2.1-.1.2-.2.3-.2z" fill="#f8a353"/><path d="m232.1 356.5c.3-.2.5-.1.7-.1s.4 0 .6-.1c.5-.2.6-.7.1-1.1-.3-.2-.5-.4-.6-.8-.1-.3.1-.6.3-.7.3 0 .7.2.7.5 0 .2-.1.2-.2.3s-.2 0-.2 0c-.1-.1-.1-.2 0-.3v-.1h-.1c-.1.1-.2.2-.1.4.1.3.4.3.7.2.2 0 .4-.2.4-.4 0-.4-.3-.6-.7-.8-.3-.1-.6-.2-.9.1s-.4.6-.2 1.1c.2.3.5.6.7.8s0 .4-.1.5c-.2.1-.3.1-.4-.1 0-.1-.1-.2-.2-.2s-.2.1-.2.3c-.3.2-.3.3-.3.5z" fill="#fdea00"/><path d="m237.1 348.7c0-.4-.1-.8-.3-1-.3-.3-.8-.3-1.1-.1-.1.1-.2.2-.1.3s.2 0 .2-.1c.3-.2.5-.2.6.1.3.6 0 1.2-.1 1.8-.1.3-.2.5-.4.7-.1.1-.2.2-.3 0 0-.1 0-.2-.2-.2-.2.1-.1.2-.1.3v.3c0 .1 0 .2.1.2.5-.2 1-.2 1.2-.8.3-.5.5-1 .5-1.5z" fill="#f8a353"/><path d="m238.4 354.7c-.1 0-.1 0 0 0 0-.4 0-.7 0-1.1s-.1-.7-.2-1c-.1-.2-.2-.2-.3-.1-.2.2-.4.3-.6.4-.1 0-.1.1-.1.1s.1.1.1.1h.3c.2-.1.3 0 .3.2v.2c0 .2.1.4 0 .6-.1.3-.4.1-.6.2-.1 0-.2 0-.2.2 0 .1.1.1.2 0 .1 0 .2 0 .3-.1.1 0 .2 0 .2.1.1.3.1.7 0 1s-.4.1-.5.1-.2 0-.1.1c0 .1.1.1.2.1h.6c.3.1.4 0 .5-.3-.1-.1-.1-.4-.1-.8z" fill="#fdea00"/><path d="m239.8 348.3c.2.3.7-.3.7.2.1.4 0 .8-.6.8.1.3.5 0 .5.4 0 .2 0 .5-.1.6-.3.3-.5 0-.7-.2-.1.3 0 .5.1.8.1-.4.3-.4.5-.4h.6c.1 0 .4 0 .2-.3-.1-.1 0-.3 0-.5 0-.4.1-.8 0-1.2 0-.2 0-.4.2-.6-.5 0-1 .2-1.4.4z" fill="#f8a353"/><path d="m239.3 346.9c-.3.2-.7.3-1.2.3-.4 0-.7.3-.5.7 0 .1.1.1.2 0 .1-.4.5-.3.8-.5.3-.1.3 0 .3.3-.1.7 0 1.4-.1 2.1 0 .1 0 .3.2.3.1 0 .4 0 .3-.3 0-.1 0-.2 0-.3 0-.9 0-1.7 0-2.6z" fill="#f8a353"/><path d="m219.8 357c.3.1.6-.1.8-.1.4.1.4-.2.5-.4.1-.6.1-1.2-.1-1.7-.1-.3-.3-.4-.5-.2s-.4.3-.7.3c-.1 0-.2.1-.1.2 0 .1.1.1.2.1s.1 0 .2-.1c.3-.1.4 0 .4.3 0 .2-.1.2-.3.2-.1 0-.3 0-.3.2s.2.2.3.2c.3 0 .3.1.3.3s-.1.3-.3.4c-.1.1-.3.1-.4.3z" fill="#fdea00"/><path d="m217.4 350.4c.2-.1.3-.2.5-.2.2.1.4-.1.6-.2.4-.3.7-1.2.6-1.7-.1-.4-.4-.7-.7-.7s-.5.2-.6.5c.2 0 .5-.1.6.2.4.6 0 1.5-.6 1.7-.1-.1.1-.4-.2-.4 0 .2-.1.4-.2.8z" fill="#f8a353"/><path d="m214 349.4c.2.1.3.1.4 0 .1 0 .2-.1.2.1.1.3 0 .5-.3.6-.1 0-.2 0-.3 0s-.2 0-.2.1.1.1.2.1c.2 0 .4-.1.6-.1.4 0 .5-.2.5-.5.1-.6 0-1.2 0-1.8 0-.1 0-.3-.2-.3-.4-.1-.8.1-1.2.3.2 0 .4 0 .6-.1.2 0 .3 0 .3.2 0 .3 0 .6-.1.9 0 .4-.3.3-.5.5 0-.1 0-.1 0 0z" fill="#f8a353"/><path d="m219.7 356.2c-.1-.1-.2-.1-.3-.1-.3 0-.4-.1-.3-.4.1-.4.2-.7.2-1.1 0-.2 0-.3-.2-.4-.2 0-.2.1-.3.3 0 .2-.1.4-.1.6-.1.4 0 1-.7 1 0 0-.1 0-.1.1-.1.1-.2.1-.1.2 0 .1.1.1.2.1h1.1c.2 0 .4-.1.6-.3z" fill="#fdea00"/><path d="m234.2 348.1c.2.2.5 0 .6.2.2.4 0 .8-.5.8-.2 0-.4 0-.4.2s.3.1.4.1.3-.1.3.1-.1.4-.1.7c0 .1-.2.1-.3.1-.2 0-.1-.2-.3-.2-.1.4-.1.5.3.4h.6c.1 0 .2 0 .2-.2.1-.5.2-.9.2-1.4.1-.8-.1-1-.9-.8.1-.1 0-.1-.1 0z" fill="#f8a353"/><path d="m228.5 350.4c.2 0 .4-.1.3-.2-.1-.3.1-.7.1-1 0-.4-.3-.6-.7-.5-.2.1-.2.1-.3-.1 0-.1-.2-.1-.3-.1s-.1.1-.1.2c0 .5-.1 1-.1 1.5 0 .1 0 .2.2.2.1 0 .2 0 .2-.2 0-.1 0-.2 0-.4 0-.3.1-.6.3-.9.1-.1.2-.2.3-.1.1 0 .1.2.1.3.2.5.2.9 0 1.3z" fill="#f8a353"/><path d="m238.3 348.9c0-.1 0-.2 0-.3-.1-.2-.2-.2-.4-.2-.1 0-.2.1-.2.2-.1.5-.1 1-.2 1.5 0 .1 0 .3.2.4.2 0 .3-.1.3-.3.1-.4.2-.9.3-1.3z" fill="#f8a353"/><path d="m228.9 348.2c.6 0 1.1-.1 1.7-.1.1 0 .1-.1.2-.1.1-.1 0-.2 0-.2-.1-.1-.1 0-.2 0-.3 0-.5.1-.8.1-.6 0-1.1 0-1.7 0-.2 0-.3 0-.4.1s-.1.1-.1.2.1 0 .2 0z" fill="#f8a353"/><path d="m234.6 356.1c0-.1 0-.2-.1-.2s-.2.1-.2.1c-.2.2-.2.5-.3.7 0 .1-.1.2 0 .2s.3 0 .3-.1c.2-.2.3-.4.3-.7z" fill="#fdea00"/><path d="m217.7 354.4c.3-.1.5-.2.6-.5 0-.1 0-.2 0-.2-.1-.1-.2-.1-.3 0-.2.1-.4.4-.4.6-.1 0 0 .1.1.1z" fill="#fdea00"/><path d="m237.9 351.4c.1 0 .3-.1.3-.3s-.2-.3-.3-.3c-.2 0-.3.2-.3.3 0 .3.1.3.3.3z" fill="#f8a353"/><path d="m214.8 350.7s0-.1-.1-.1c-.4.2-.7.4-1.1.6 0 0 0 .1.1.1.4-.2.8-.4 1.1-.6z" fill="#f8a353"/><path d="m240.7 350.8c-.3.1-.5.2-.8.4-.1 0-.1.1 0 .2h.1c.3-.2.6-.2.7-.6z" fill="#f8a353"/><path d="m214.3 353.6c-.1-.4-.1-.4-.8 0 .3 0 .6-.3.8 0z" fill="#fdea00"/><path d="m215 353.5c-.1-.1-.1-.3-.3-.2-.1.1-.2.2-.1.3s.1-.2.2-.1c.1.2.2.1.4.1 0-.1 0-.2 0-.4-.2 0-.1.2-.2.3z" fill="#fdea00"/><path d="m242 350.4c1 1 2 .9 3.1.4.3-.2.5-.4.4-.8-.1-.3-.5-.6-.7-.5-.3.1-.3.3-.3.6.1-.1.1-.2.1-.2.1-.1.1-.3.3-.2.2 0 .2.2.2.3.1.4-.3.8-.7.9-.1 0-.3.1-.4 0s-.1-.2 0-.3 0-.2 0-.3c-.1-1 0-1.9 0-2.9 0-.4.3-.3.5-.3.3 0 .2.2.1.3-.1.4.1.7.4.9.2.2.3.1.4-.1.1-.4 0-.7-.3-1.1.6.2 1.2.3 1.4 1 .1.3.3.5.6.6.3 0 .4-.1.4-.3.1-.4-.3-.8-.7-.8-.3 0-.5-.2-.8-.4.2-.1.4-.1.6-.3.1-.1.2 0 .2-.2 0-.1-.1-.2-.2-.2-.3-.1-.6-.1-.9 0-.3.2-.6.2-1 .2-.1 0-.2 0-.3 0-.2 0-.4.2-.5-.2 0-.1-.2-.1-.3-.1-.4.2-.9.3-1.2.7-.1.2-.2.4-.4.5-.6.9-.7 2.1 0 2.8zm4.9-2.6c.2 0 .5.4.4.5 0 .1 0 .1-.1.1s-.5-.4-.5-.5c.1 0 .1-.1.2-.1zm-1.1-.9c.1-.2.3-.1.4-.2.1 0 .3 0 .3.1-.1.2-.3.2-.5.2-.1.1-.3.1-.2-.1zm-.9.4c.1 0 .3.3.3.6 0 .1 0 .2-.1.2-.2-.1-.3-.3-.3-.5 0-.1 0-.2.1-.3zm-1.7-.2c.1-.1.2-.3.3.1.1.6 0 1.2 0 1.7 0 .6-.1 1.1 0 1.6 0 .3-.1.3-.3.2-.5-.3-.9-.7-1-1.3-.3-.8.2-1.9 1-2.3z" fill="#f8a353"/><path d="m234.2 353.5c.1.3.3.4.6.3s.3-.3.2-.5c0-.1 0-.2-.1-.2s-.1.1-.1.2.1.2-.1.2-.2-.1-.2-.3c0-.3.2-.5.4-.7.2-.1.3-.1.4.1.1.3.1.6.3.9.2.4.1.8-.1 1.2-.4.9-.5 1.6.7 1.8.3.1.4 0 .4-.3.1-1.2.2-2.4.3-3.6 0-.2 0-.4-.1-.7-.2.1-.3.3-.4.5-.1.4-.1.8-.1 1.2 0 .1-.1.3-.2.3-.2 0-.1-.2-.1-.3-.1-.4-.2-.9-.4-1.3s-.7-.5-1-.1c-.4.4-.5.9-.4 1.3zm1.9.7c.1 0 .1 0 0 0 0 .6-.1 1.2-.1 1.8 0 .1 0 .2-.1.2s-.1-.1-.2-.1c-.3-.4-.4-1 0-1.4.1-.2.3-.3.4-.5z" fill="#fdea00"/><path d="m249.6 347.1c0 .8-.1 1.6 0 2.4.1 1.5 0 3 0 4.4 0 .9-.1 1.8 0 2.6.2-.1.4-.1.6 0 .3 0 .4-.1.4-.4 0-.4 0-.7 0-1.1.2-.8.1-1.6.1-2.4-.1-1.4-.2-2.8 0-4.1.1-.5.1-1.1 0-1.6 0-.1 0-.3-.2-.3-.3-.1-.6-.1-.9 0-.2.2 0 .4 0 .5zm.1 7.2c.1-2.3.2-4.6 0-6.9 0-.1 0-.3 0-.4s0-.3.2-.3.2.1.2.3v.9c-.1 2.3 0 4.5.1 6.7 0-2.7-.2-5.3.1-8 .2.1.1.2.1.4 0 .6 0 1.3-.1 1.9-.1 1.3 0 2.6.1 3.9 0 .7.1 1.4-.2 2.1-.1.3 0 .7 0 1.1 0 .2 0 .3-.3.3-.2 0-.3 0-.4-.3.2-.5.2-1.1.2-1.7z" fill="#fff"/><path d="m241 352.4c0 .1.1.1.2.1.2 0 .2.1.3.2.2.4.3.9.5 1.3.1.2.1.3 0 .5-.5 1.1-.3 2.1 1.2 2.3.2 0 .4 0 .4-.3s0-.5 0-.8c-.1-1.1-.3-2.1-.4-3.2 0-.3-.1-.5-.4-.7-.1.3 0 .6 0 .9s0 .6.1.9c0 .2-.1.3-.2.3-.2.1-.2-.1-.3-.2-.2-.4-.4-.8-.6-1.3 0-.1 0-.2 0-.3.2-.3 0-.3-.2-.3s-.3.1-.4.2c-.1.2-.2.3-.2.4zm1.7 1.7h.1c.1.7.1 1.4.2 2.1 0 .3-.1.2-.3.2-.3-.1-.4-.3-.4-.6-.1-.7.1-1.2.4-1.7z" fill="#fdea00"/><path d="m211.9 355.9c0 .6.1.6.6.5.3 0 .2-.4.3-.6.2-2.1 0-4.3.1-6.6 0-.6 0-1.3 0-2.1 0-.1 0-.2 0-.2-.3-.1-.5-.2-.8-.1s-.2.3-.2.5c0 1.7 0 3.4-.1 5.1-.2 1.1 0 2.3.1 3.5zm.3-8.9c.3-.1.4 0 .4.3 0 1.2-.1 2.3 0 3.5.1 1.4.1 2.7.1 4.1v1.1c0 .2-.2.3-.3.3-.3 0-.1-.2-.1-.3.1-1-.1-2.1 0-2.7.1-1.6 0-2.7.1-3.9 0-.6-.1-1.3-.2-1.9-.1-.2-.1-.4 0-.5zm-.2-.1c.3 3 .1 6.1.1 9.2-.3-.7-.4-8.9-.1-9.2z" fill="#fff"/><path d="m219.2 347.2c.1.2.1.4.2.7.2.4.4.8.1 1.4-.4.8.2 1.7 1.1 1.6.1 0 .4 0 .3-.2-.2-.2-.1-.4-.1-.6 0-.6.1-1.2.1-1.8 0-.3 0-.5 0-.8 0-.1.1-.3-.2-.3-.2 0-.3.1-.3.3 0 .3 0 .5-.1.7 0 .1 0 .2-.1.2s-.1-.1-.1-.2c-.2-.4-.4-.8-.6-1.1 0-.1-.1-.2-.2-.1-.1 0-.2.1-.1.2zm1.1 1.6v1.4c0 .1 0 .3-.1.3s-.2-.1-.3-.2c-.3-.4-.2-1.1.4-1.5z" fill="#f8a353"/><path d="m223.4 352.5c.1.3.2.6.4.8.4.4.4.8.2 1.3-.3.8 0 1.2.8 1.4.4.1.6 0 .6-.4 0-.2 0-.3 0-.5 0-.7-.2-1.3-.2-2 0-.3 0-.5 0-.8 0-.2-.1-.3-.3-.3s-.2.2-.2.3v.7c0 .1.1.3-.1.4s-.3-.1-.4-.2c-.3-.2-.5-.6-.7-.9 0-.1-.1-.2-.2-.1 0 .2 0 .3.1.3zm1.1 1.8s.1-.1.2-.1.1.1.1.2c0 .3.1.6.1 1-.1.1.1.4-.1.4s-.4-.2-.4-.4c-.2-.4-.1-.8.1-1.1z" fill="#fdea00"/><path d="m243.5 352.5c0 .4.1.9.2 1.3.2.6.4 1.2.4 1.9 0 .1 0 .3.2.3s.3-.1.3-.3c.2-.6.5-1.2.8-1.9.2-.5.4-1 .4-1.6-.2.1-.2.2-.3.3 0 .3-.2.5-.3.8-.1.4-.5.2-.7.3-.3 0-.2-.2-.3-.4-.1-.4-.1-.7-.5-.9-.1 0-.1-.1-.2-.1zm1.4 1.4c.1 0 .1.1.1.2-.1.3-.2.5-.4.8-.1-.3-.1-.5-.1-.6-.1-.2.1-.4.4-.4z" fill="#fdea00"/><path d="m225.6 353.5c.1.9.3 1.7.6 2.5.1.2.1.5.4.4.2 0 .4-.2.5-.5.1-.6.3-1.1.4-1.7.1-.4.2-.8.1-1.3-.3.1-.2.3-.2.4-.1.7-.1.8-.7.9-.2.1-.3 0-.4-.2 0-.3 0-.6-.2-.8-.1-.1-.2-.3-.4-.3-.2.2-.1.4-.1.6zm1.3 1.1c.1 0 .2.1.1.2-.1.3-.2.6-.2.9h-.1c-.1-.2-.1-.4-.2-.6-.1-.3.1-.5.4-.5z" fill="#fdea00"/><path d="m221.3 348.2c.1.6.3 1.2.3 1.8 0 .1 0 .3.2.3s.3 0 .5-.1c.2-.4.5-.8.6-1.2.1-.2.2-.3.1-.6-.2 0-.2.2-.2.3-.1.4-.4.2-.7.2-.2 0-.2-.2-.2-.3 0-.2-.1-.4-.1-.5-.1-.2-.2-.3-.4-.2-.3 0-.2.1-.1.3zm1.2.9c-.1.3-.2.5-.4.7-.3-.5-.2-.6.4-.7z" fill="#f8a353"/><path d="m229.3 350c.3.4 1 .6 1.7.4-.4-.1-.3-.3-.3-.4.1-.4.1-.8.1-1.2 0-.1 0-.2-.2-.2-.5.1-1 .4-1.2.8-.2.2-.2.4-.1.6zm.3-.4c0-.1 0-.2.1-.2.1-.2.3-.5.5-.5s.1.4 0 .6c0 .2-.1.4-.1.6 0 .1 0 .1-.1.2-.1-.1-.5-.5-.4-.7z" fill="#f8a353"/><g fill="none" stroke="#004d86" stroke-miterlimit="10" stroke-width=".161"><path d="m109.5 151.8v1"/><path d="m109.5 154.7v157.5" stroke-dasharray="1.9322 1.9322"/><path d="m109.5 313.1v1"/><path d="m190.6 151.8v1"/><path d="m190.6 154.7v157.5" stroke-dasharray="1.9322 1.9322"/><path d="m190.6 313.1v1"/><path d="m271.8 151.8v1"/><path d="m271.8 154.7v157.5" stroke-dasharray="1.9322 1.9322"/><path d="m271.8 313.1v1"/><path d="m352.9 151.8v1"/><path d="m352.9 154.7v157.5" stroke-dasharray="1.9322 1.9322"/><path d="m352.9 313.1v1"/><path d="m28.3 151.8h162.3"/><path d="m271.8 151.8h162.3"/><path d="m271.8 314.1h162.3"/><path d="m28.3 314.1h162.3"/><path d="m190.6 151.8h1"/><path d="m193.5 151.8h76.3" stroke-dasharray="1.9322 1.9322"/><path d="m270.8 151.8h1"/><path d="m190.6 314.1h1"/><path d="m193.5 314.1h76.3" stroke-dasharray="1.9322 1.9322"/><path d="m270.8 314.1h1"/><path d="m109.5 146v-69.5"/><path d="m352.9 146v-69.5"/><path d="m109.5 389.5v-69.6"/><path d="m352.9 389.5v-69.6"/><path d="m190.6 151.8v-1"/><path d="m190.6 148.9v-76.3" stroke-dasharray="1.9322 1.9322"/><path d="m190.6 71.6v-.9"/><path d="m271.8 151.8v-1"/><path d="m271.8 148.9v-76.3" stroke-dasharray="1.9322 1.9322"/><path d="m271.8 71.6v-.9"/><path d="m190.6 395.3v-1"/><path d="m190.6 392.4v-76.4" stroke-dasharray="1.9322 1.9322"/><path d="m190.6 315.1v-1"/><path d="m271.8 395.3v-1"/><path d="m271.8 392.4v-76.4" stroke-dasharray="1.9322 1.9322"/><path d="m271.8 315.1v-1"/><path d="m190.6 70.7h81.2"/><path d="m190.6 395.3h81.2"/><path d="m109.5 319.9 81.1-5.8"/><path d="m109.5 389.5 81.1 5.8"/><path d="m271.8 314.1 81.1 5.8"/><path d="m271.8 395.3 81.1-5.8"/><path d="m352.9 76.5-81.1-5.8"/><path d="m352.9 146-81.1 5.8"/><path d="m109.5 76.5 81.1-5.8"/><path d="m109.5 146 81.1 5.8"/><path d="m193.5 175h2.9v23.2h-2.9z" transform="matrix(-1 0 0 -1 389.9167 373.1773)"/><path d="m266 175h2.9v23.2h-2.9z" transform="matrix(-1 0 0 -1 534.8311 373.1773)"/><path d="m193.5 267.7h2.9v23.2h-2.9z" transform="matrix(-1 0 0 -1 389.9167 558.6677)"/><path d="m266 267.7h2.9v23.2h-2.9z" transform="matrix(-1 0 0 -1 534.8311 558.6677)"/><path d="m434.1 314.1v-23.2l2.9-2.9v-17.4l-2.9-2.9v-69.5l2.9-2.9v-17.4l-2.9-2.9v-23.2 23.2"/><path d="m28.3 314.1v-23.2l-2.9-2.9v-17.4l2.9-2.9v-69.5l-2.9-2.9v-17.4l2.9-2.9v-23.2 23.2"/><circle cx="231.2" cy="88" r="11.6"/><circle cx="231.2" cy="377.9" r="11.6"/></g><text fill="#58595b" font-family="'NHaasGroteskTXPro-65Md'" font-size="5.7966" transform="translate(396.0942 84.555)">Cut Line</text><text fill="#58595b" font-family="'NHaasGroteskTXPro-65Md'" font-size="5.7966" transform="translate(302.5991 113.1195)">Glue Flap</text><text fill="#58595b" font-family="'NHaasGroteskTXPro-65Md'" font-size="5.7966" transform="translate(137.2261 113.1195)">Glue Flap</text><text fill="#58595b" font-family="'NHaasGroteskTXPro-65Md'" font-size="5.7966" transform="translate(302.5991 354.6883)">Glue Flap</text><text fill="#58595b" font-family="'NHaasGroteskTXPro-65Md'" font-size="5.7966" transform="translate(137.2261 354.6883)">Glue Flap</text><text fill="#58595b" font-family="'NHaasGroteskTXPro-65Md'" font-size="5.7966" transform="translate(395.0825 100.1541)">Fold Line</text><path d="m386.6 88.7h42" fill="none" stroke="#004d86" stroke-miterlimit="10" stroke-width=".161"/><path d="m386.6 104.3h1" fill="none" stroke="#004d86" stroke-miterlimit="10" stroke-width=".161"/><path d="m389.5 104.3h37.2" fill="none" stroke="#004d86" stroke-dasharray="1.9092 1.9092" stroke-miterlimit="10" stroke-width=".161"/><path d="m427.7 104.3h.9" fill="none" stroke="#004d86" stroke-miterlimit="10" stroke-width=".161"/><text fill="#58595b" font-family="'NHaasGroteskTXPro-65Md'" font-size="5.7966" transform="translate(1.7993 234.7498)">14”</text><text fill="#58595b" font-family="'NHaasGroteskTXPro-65Md'" font-size="9.0169" transform="translate(391.5493 71.1737)">Legend</text><text fill="#58595b" font-family="'NHaasGroteskTXPro-65Md'" font-size="5.7966" transform="translate(251.8306 89.8348)">1”</text><text fill="#58595b" font-family="'NHaasGroteskTXPro-65Md'" font-size="5.7966" transform="translate(365.5395 113.0208)">3”</text><text fill="#58595b" font-family="'NHaasGroteskTXPro-65Md'" font-size="5.7966" transform="translate(228.7964 111.9579)">1”</text><text fill="#58595b" font-family="'NHaasGroteskTXPro-65Md'" font-size="5.7966" transform="translate(223.4077 420.7411)">17.75”</text><path d="m17.1 70.7v324.6" fill="none" stroke="#58595b" stroke-miterlimit="10" stroke-width=".322"/><path d="m25.4 410.3h411.6" fill="none" stroke="#58595b" stroke-miterlimit="10" stroke-width=".322"/><text fill="#58595b" font-family="'NHaasGroteskTXPro-65Md'" font-size="5.7966" transform="translate(144.6152 59.0033)">3.5”</text><path d="m109.5 64.9h81.1" fill="none" stroke="#58595b" stroke-miterlimit="10" stroke-width=".322"/><text fill="#58595b" font-family="'NHaasGroteskTXPro-65Md'" font-size="5.7966" transform="translate(225.7671 50.8353)">3.5”</text><path d="m190.6 56.8h81.2" fill="none" stroke="#58595b" stroke-miterlimit="10" stroke-width=".322"/><text fill="#58595b" font-family="'NHaasGroteskTXPro-65Md'" font-size="5.7966" transform="translate(63.4629 134.265)">3.5”</text><text fill="#58595b" font-family="'NHaasGroteskTXPro-65Md'" font-size="5.7966" transform="translate(120.3369 234.7498)">7”</text><path d="m28.3 140.2h81.2" fill="none" stroke="#58595b" stroke-miterlimit="10" stroke-width=".322"/><path d="m219.6 104.3h23.2" fill="none" stroke="#58595b" stroke-miterlimit="10" stroke-width=".322"/><path d="m247.5 76.5v23.1" fill="none" stroke="#58595b" stroke-miterlimit="10" stroke-width=".322"/><text fill="#58595b" font-family="'NHaasGroteskTXPro-65Md'" font-size="5.7966" transform="translate(199.333 165.1908)">1”</text><path d="m195 151.8v23.2" fill="none" stroke="#58595b" stroke-miterlimit="10" stroke-width=".322"/><text fill="#58595b" font-family="'NHaasGroteskTXPro-65Md'" font-size="5.7966" transform="translate(206.0356 188.3768)">1”</text><text fill="#58595b" font-family="'NHaasGroteskTXPro-65Md'" font-size="5.7966" transform="translate(273.8862 177.5204)">0.125”</text><text fill="#58595b" font-family="'NHaasGroteskTXPro-65Md'" font-size="5.7966" transform="translate(415.0278 188.3768)">0.125”</text><text fill="#58595b" font-family="'NHaasGroteskTXPro-65Md'" font-size="5.7966" transform="translate(253.6186 207.1165)">0.125”</text><path d="m201.7 175v23.2" fill="none" stroke="#58595b" stroke-miterlimit="10" stroke-width=".322"/><path d="m359.4 76.5v69.5" fill="none" stroke="#58595b" stroke-miterlimit="10" stroke-width=".322"/><path d="m268.9 175.8h2.9" fill="none" stroke="#58595b" stroke-miterlimit="10" stroke-width=".322"/><path d="m266 200.3h2.9" fill="none" stroke="#58595b" stroke-miterlimit="10" stroke-width=".322"/><path d="m437 186.4h-2.9" fill="none" stroke="#58595b" stroke-miterlimit="10" stroke-width=".322"/><path d="m115.7 151.8v162.3" fill="none" stroke="#58595b" stroke-miterlimit="10" stroke-width=".322"/></svg>