<svg id="Layer_1" data-name="Layer 1" xmlns="http://www.w3.org/2000/svg" width="242" height="343" viewBox="0 0 242 343"><path d="M85.7,55.9A70.4,70.4,0,0,1,92,64c2.9,4.3,4,8.2,3.5,11.5a11.3,11.3,0,0,1-5.2,7.8,12.6,12.6,0,0,1-9.1,2.2c-4-.7-7.8-3.7-10.7-8a20.8,20.8,0,0,1-2.1-3.8L54.7,82.8l-2.9-4.4ZM72.1,71.3a16.1,16.1,0,0,0,2,3.9c3.6,5.4,8.3,6.9,13.1,3.8s4.6-7.7,1.3-12.6a23.4,23.4,0,0,0-3.1-3.9Z" transform="translate(-51.8 -55.9)" fill="#231f20"/><path d="M104.1,82.7l2.9,4.4L76.4,107.5l9.7,14.6-3.7,2.5L69.7,105.5Z" transform="translate(-51.8 -55.9)" fill="#231f20"/><path d="M100.2,127.9,87,131.5l-3-4.6,42-11.1,3.6,5.4L103,155.6l-3.1-4.7,8.3-10.8Zm10.9,9,7.6-10c1.8-2.2,3.5-4.1,5.1-5.9h0c-2.4.8-4.9,1.7-7.4,2.4l-12.2,3.2Z" transform="translate(-51.8 -55.9)" fill="#231f20"/><path d="M122.9,183.2a25.5,25.5,0,0,1-7.6-8c-6.5-9.7-5.2-21,6.1-28.5s22.8-4.7,29.9,6a22.6,22.6,0,0,1,3.9,9.1l-4.4,1.3a18.6,18.6,0,0,0-3.1-7.8c-5.4-8.1-14.1-10-23.1-4s-10.6,14-5,22.3a21.9,21.9,0,0,0,6.2,6.3Z" transform="translate(-51.8 -55.9)" fill="#231f20"/><path d="M153.3,196.5l-8.8-13.3-12.4,8.2,9.9,14.9-3.7,2.4-12.8-19.3,34.3-22.7,12.3,18.5-3.7,2.5L159,173.6l-10.8,7.2,8.8,13.3Z" transform="translate(-51.8 -55.9)" fill="#231f20"/><path d="M186.5,206.9l-14.3,9.6,11,16.6,14.3-9.6,3,4.5-34.3,22.8-3-4.5,16.1-10.7-11-16.6-16.1,10.7-2.9-4.4,34.3-22.8Z" transform="translate(-51.8 -55.9)" fill="#231f20"/><path d="M208.3,276.2c-11.8,7.8-22.9,4.8-28.7-4s-3.2-20,7.2-26.9,22.5-5.2,28.6,3.9S218.5,269.4,208.3,276.2ZM190,249.9c-7.3,4.9-11.2,13.2-6.6,20.2s13.8,6.7,21.6,1.5,11.5-12.8,6.6-20.2S197.6,244.9,190,249.9Z" transform="translate(-51.8 -55.9)" fill="#231f20"/><path d="M228.9,270.8l2.9,4.4-30.6,20.3,9.8,14.7-3.7,2.4-12.7-19Z" transform="translate(-51.8 -55.9)" fill="#231f20"/><path d="M244.4,295.1a74.6,74.6,0,0,1,7,9c4.2,6.3,5.7,11.8,4.9,16.7s-3.6,9.3-9.1,13-11.3,5-16.6,3.9-10.6-5.2-15-11.9a96,96,0,0,1-5-8.3ZM217,319.7a35.5,35.5,0,0,0,2.7,4.6c6.3,9.5,15,11.1,24.3,5s10.2-13.3,4-22.7a30.5,30.5,0,0,0-3.9-4.9Z" transform="translate(-51.8 -55.9)" fill="#231f20"/><path d="M260.9,358.6l-8.8-13.4-12.4,8.3,9.9,14.8-3.8,2.5L233,351.5l34.4-22.8,12.3,18.5-3.8,2.5-9.3-14.1-10.9,7.2,8.9,13.3Z" transform="translate(-51.8 -55.9)" fill="#231f20"/><path d="M283.5,354.1a46.6,46.6,0,0,1,6.4,8c3.1,4.7,4.3,8.4,3.8,11.8a10.4,10.4,0,0,1-4.8,7,10.6,10.6,0,0,1-13-.7l-.2.2c.9,3.2-.5,6.4-3.5,9.6s-6.8,7.3-7.7,8.9l-3-4.6c.6-1.2,3-3.9,6.6-7.7s4.7-7.2,2.1-11.3l-2.7-4.2L252.6,381l-2.9-4.5Zm-12.7,14.8,3,4.5c3.2,4.7,7.8,6,11.7,3.4s4.2-7.4,1.2-12.1a19.5,19.5,0,0,0-3.3-4.1Z" transform="translate(-51.8 -55.9)" fill="#231f20"/></svg>